%TF.GenerationSoftware,KiCad,Pcbnew,9.0.4*%
%TF.CreationDate,2025-10-23T19:24:02-04:00*%
%TF.ProjectId,Kicad,4b696361-642e-46b6-9963-61645f706362,rev?*%
%TF.SameCoordinates,Original*%
%TF.FileFunction,Copper,L4,Bot*%
%TF.FilePolarity,Positive*%
%FSLAX46Y46*%
G04 Gerber Fmt 4.6, Leading zero omitted, Abs format (unit mm)*
G04 Created by KiCad (PCBNEW 9.0.4) date 2025-10-23 19:24:02*
%MOMM*%
%LPD*%
G01*
G04 APERTURE LIST*
%TA.AperFunction,HeatsinkPad*%
%ADD10C,0.600000*%
%TD*%
%TA.AperFunction,ViaPad*%
%ADD11C,0.600000*%
%TD*%
%TA.AperFunction,Conductor*%
%ADD12C,0.250000*%
%TD*%
G04 APERTURE END LIST*
D10*
%TO.P,U1,39,GND*%
%TO.N,GND*%
X147700000Y-68250000D03*
X147700000Y-69650000D03*
X148400000Y-67550000D03*
X148400000Y-68950000D03*
X148400000Y-70350000D03*
X149075000Y-68250000D03*
X149075000Y-69650000D03*
X149800000Y-67550000D03*
X149800000Y-68950000D03*
X149800000Y-70350000D03*
X150500000Y-68250000D03*
X150500000Y-69650000D03*
%TD*%
D11*
%TO.N,/VBAT*%
X180050000Y-126500000D03*
X117450000Y-127000000D03*
X117275000Y-129000000D03*
X171750000Y-108000000D03*
X180000000Y-109825000D03*
X115775000Y-61500000D03*
X177000000Y-107950000D03*
X114500000Y-131500000D03*
X180500000Y-105775000D03*
X183725000Y-62500000D03*
X183550000Y-60500000D03*
X178500000Y-131250002D03*
X183500000Y-65000000D03*
X112500000Y-64000000D03*
X115950000Y-59500000D03*
X182630000Y-106000000D03*
X180049500Y-128629001D03*
%TO.N,GND*%
X185275000Y-62500000D03*
X181599500Y-128629001D03*
X181553033Y-132500000D03*
X149500000Y-102500000D03*
X114225000Y-61500000D03*
X185053033Y-66249998D03*
X177000000Y-106050000D03*
X149500000Y-104000000D03*
X126950000Y-68250000D03*
X142725000Y-104000000D03*
X147500000Y-99500000D03*
X115725000Y-129000000D03*
X138225000Y-61500000D03*
X185450000Y-60500000D03*
X113500000Y-66500000D03*
X156275000Y-102500000D03*
X139000000Y-68775000D03*
X162500000Y-80775000D03*
X144890000Y-78990000D03*
X120765500Y-131000000D03*
X179500000Y-133250002D03*
X115550000Y-127000000D03*
X117000000Y-132500000D03*
X183000000Y-67299757D03*
X171750000Y-106000000D03*
X181950000Y-126500000D03*
X127000000Y-76500000D03*
X180500000Y-104225000D03*
X115553033Y-65249998D03*
X188294500Y-106000000D03*
X141850000Y-60880000D03*
X114050000Y-59500000D03*
X115000000Y-133500000D03*
X159350000Y-61230000D03*
X189265500Y-64500000D03*
X182630000Y-106950000D03*
X119265500Y-63860999D03*
X151500000Y-104000000D03*
X185775500Y-130611001D03*
X151500000Y-136750000D03*
X150500000Y-102500000D03*
%TO.N,/ESP_UART_TX*%
X149500000Y-136750000D03*
X159350000Y-65040000D03*
%TO.N,/ESP_UART_RX*%
X147500000Y-136750000D03*
X159350000Y-66310000D03*
%TO.N,/BOOT*%
X136050000Y-63750000D03*
X144500000Y-62500000D03*
%TO.N,/MOTOR4_INPUT1*%
X184000000Y-133250002D03*
X141850000Y-76470000D03*
%TO.N,/SCL*%
X150500000Y-98500000D03*
X144825000Y-96000000D03*
X148000000Y-82500000D03*
X152000000Y-96500000D03*
X150000000Y-80500000D03*
X155000000Y-69000000D03*
%TO.N,/MOTOR2_INPUT2*%
X186124135Y-67874757D03*
X141850000Y-72660000D03*
%TO.N,/SDA*%
X144825000Y-94000000D03*
X149500000Y-97000000D03*
X150000000Y-94500000D03*
X151000000Y-81000000D03*
X157500000Y-69000000D03*
X149000000Y-83000000D03*
%TO.N,/MOTOR3_INPUT1*%
X119500000Y-133500000D03*
X141850000Y-73930000D03*
%TO.N,/MOTOR1_INPUT1*%
X118000000Y-65499998D03*
X141850000Y-70089997D03*
%TO.N,/MOTOR3_INPUT2*%
X118500000Y-134500000D03*
X141850000Y-75200000D03*
%TO.N,/MOTOR4_INPUT2*%
X182000000Y-134250002D03*
X159350000Y-73930000D03*
%TO.N,/MOTOR2_INPUT1*%
X159350000Y-71390000D03*
X187000000Y-67500000D03*
%TO.N,/MOTOR1_INPUT2*%
X141850000Y-71390000D03*
X117500000Y-66500000D03*
%TO.N,Net-(U2-INT2)*%
X152500000Y-99500000D03*
X154000000Y-100000000D03*
%TO.N,Net-(U2-CSB)*%
X151500000Y-98500000D03*
X154000000Y-96000000D03*
%TD*%
D12*
%TO.N,/ESP_UART_TX*%
X186374000Y-67240702D02*
X186740702Y-66874000D01*
X187259298Y-66874000D02*
X187626000Y-67240702D01*
X183147108Y-135626002D02*
X150126000Y-135626002D01*
X182060000Y-65440000D02*
X181660000Y-65040000D01*
X150126000Y-135626002D02*
X149500000Y-136252002D01*
X181660000Y-65040000D02*
X159350000Y-65040000D01*
X149500000Y-136252002D02*
X149500000Y-136750000D01*
X186740702Y-66874000D02*
X187259298Y-66874000D01*
X187626000Y-67240702D02*
X187626000Y-131147110D01*
X183860702Y-67240702D02*
X186374000Y-67240702D01*
X187626000Y-131147110D02*
X183147108Y-135626002D01*
X182060000Y-65440000D02*
X183860702Y-67240702D01*
%TO.N,/ESP_UART_RX*%
X156873998Y-64873998D02*
X158310000Y-66310000D01*
X158310000Y-66310000D02*
X159350000Y-66310000D01*
X117740702Y-64873998D02*
X156873998Y-64873998D01*
X119226892Y-136750000D02*
X116373000Y-133896108D01*
X116373000Y-133896108D02*
X116373000Y-66241700D01*
X116373000Y-66241700D02*
X117740702Y-64873998D01*
X147500000Y-136750000D02*
X119226892Y-136750000D01*
%TO.N,/BOOT*%
X142750000Y-63750000D02*
X136050000Y-63750000D01*
X144500000Y-62500000D02*
X144000000Y-62500000D01*
X144000000Y-62500000D02*
X142750000Y-63750000D01*
%TO.N,/MOTOR4_INPUT1*%
X143917649Y-76582351D02*
X184000000Y-116664702D01*
X143917649Y-76582351D02*
X143805298Y-76470000D01*
X184000000Y-116664702D02*
X184000000Y-133250002D01*
X143805298Y-76470000D02*
X141850000Y-76470000D01*
%TO.N,/SCL*%
X150500000Y-98500000D02*
X147325000Y-98500000D01*
X144825000Y-96000000D02*
X143423000Y-96000000D01*
X140923000Y-89577000D02*
X148000000Y-82500000D01*
X150000000Y-80500000D02*
X155000000Y-75500000D01*
X147325000Y-98500000D02*
X144825000Y-96000000D01*
X143423000Y-96000000D02*
X140923000Y-93500000D01*
X150500000Y-98500000D02*
X152000000Y-97000000D01*
X152000000Y-97000000D02*
X152000000Y-96500000D01*
X155000000Y-75500000D02*
X155000000Y-69000000D01*
X140923000Y-93500000D02*
X140923000Y-89577000D01*
%TO.N,/MOTOR2_INPUT2*%
X141850000Y-72650000D02*
X148126000Y-66374000D01*
X141850000Y-72660000D02*
X141850000Y-72650000D01*
X148126000Y-66374000D02*
X150059298Y-66374000D01*
X151560055Y-67874757D02*
X186124135Y-67874757D01*
X150059298Y-66374000D02*
X151560055Y-67874757D01*
%TO.N,/SDA*%
X151000000Y-81000000D02*
X157500000Y-74500000D01*
X141374000Y-90626000D02*
X149000000Y-83000000D01*
X141374000Y-92549000D02*
X141374000Y-90626000D01*
X149500000Y-97000000D02*
X149500000Y-95500000D01*
X149500000Y-97000000D02*
X146500000Y-94000000D01*
X146500000Y-94000000D02*
X144825000Y-94000000D01*
X150000000Y-95000000D02*
X150000000Y-94500000D01*
X144825000Y-94000000D02*
X142825000Y-94000000D01*
X157500000Y-74500000D02*
X157500000Y-69000000D01*
X142825000Y-94000000D02*
X141374000Y-92549000D01*
X149500000Y-95500000D02*
X150000000Y-95000000D01*
%TO.N,/MOTOR3_INPUT1*%
X118759298Y-135126000D02*
X118240702Y-135126000D01*
X141570000Y-73930000D02*
X141850000Y-73930000D01*
X117874000Y-134759298D02*
X117874000Y-134240702D01*
X117874000Y-134240702D02*
X118049000Y-134065702D01*
X119500000Y-133500000D02*
X119500000Y-134385298D01*
X118049000Y-125549000D02*
X117500000Y-125000000D01*
X141780000Y-74000000D02*
X141850000Y-73930000D01*
X118049000Y-134065702D02*
X118049000Y-125549000D01*
X119500000Y-134385298D02*
X118759298Y-135126000D01*
X117500000Y-125000000D02*
X117500000Y-98000000D01*
X118240702Y-135126000D02*
X117874000Y-134759298D01*
X141850000Y-73930000D02*
X141810000Y-73890000D01*
X117500000Y-98000000D02*
X141570000Y-73930000D01*
%TO.N,/MOTOR1_INPUT1*%
X141770002Y-69770000D02*
X141770002Y-70009999D01*
X141850000Y-69770000D02*
X137579998Y-65499998D01*
X141770002Y-70009999D02*
X141850000Y-70089997D01*
X141850000Y-70089997D02*
X141850000Y-69770000D01*
X137579998Y-65499998D02*
X118000000Y-65499998D01*
%TO.N,/MOTOR3_INPUT2*%
X118500000Y-134500000D02*
X118818198Y-134500000D01*
X118909099Y-133909099D02*
X118500000Y-133500000D01*
X141300000Y-75200000D02*
X141850000Y-75200000D01*
X118500000Y-133500000D02*
X118500000Y-98000000D01*
X118500000Y-98000000D02*
X141300000Y-75200000D01*
X118818198Y-134500000D02*
X118909099Y-134409099D01*
X118909099Y-134409099D02*
X118909099Y-133909099D01*
%TO.N,/MOTOR4_INPUT2*%
X184576000Y-133488590D02*
X184576000Y-98576000D01*
X183885298Y-134250002D02*
X184626000Y-133509300D01*
X182000000Y-134250002D02*
X183885298Y-134250002D01*
X184576000Y-98576000D02*
X159930000Y-73930000D01*
X182000000Y-134250002D02*
X183814588Y-134250002D01*
X183814588Y-134250002D02*
X184576000Y-133488590D01*
X159930000Y-73930000D02*
X159350000Y-73930000D01*
%TO.N,/MOTOR2_INPUT1*%
X159350000Y-71390000D02*
X159460000Y-71500000D01*
X159460000Y-71500000D02*
X183500000Y-71500000D01*
X183500000Y-71500000D02*
X187000000Y-68000000D01*
X187000000Y-68000000D02*
X187000000Y-67500000D01*
%TO.N,/MOTOR1_INPUT2*%
X121840000Y-70840000D02*
X117500000Y-66500000D01*
X141850000Y-71390000D02*
X141300000Y-70840000D01*
X141300000Y-70840000D02*
X121840000Y-70840000D01*
%TO.N,Net-(U2-INT2)*%
X152500000Y-99500000D02*
X153000000Y-100000000D01*
X153000000Y-100000000D02*
X154000000Y-100000000D01*
%TO.N,Net-(U2-CSB)*%
X151500000Y-98500000D02*
X154000000Y-96000000D01*
%TD*%
M02*
