%TF.GenerationSoftware,KiCad,Pcbnew,9.0.4*%
%TF.CreationDate,2025-10-23T19:24:02-04:00*%
%TF.ProjectId,Kicad,4b696361-642e-46b6-9963-61645f706362,rev?*%
%TF.SameCoordinates,Original*%
%TF.FileFunction,Soldermask,Top*%
%TF.FilePolarity,Negative*%
%FSLAX46Y46*%
G04 Gerber Fmt 4.6, Leading zero omitted, Abs format (unit mm)*
G04 Created by KiCad (PCBNEW 9.0.4) date 2025-10-23 19:24:02*
%MOMM*%
%LPD*%
G01*
G04 APERTURE LIST*
G04 Aperture macros list*
%AMRoundRect*
0 Rectangle with rounded corners*
0 $1 Rounding radius*
0 $2 $3 $4 $5 $6 $7 $8 $9 X,Y pos of 4 corners*
0 Add a 4 corners polygon primitive as box body*
4,1,4,$2,$3,$4,$5,$6,$7,$8,$9,$2,$3,0*
0 Add four circle primitives for the rounded corners*
1,1,$1+$1,$2,$3*
1,1,$1+$1,$4,$5*
1,1,$1+$1,$6,$7*
1,1,$1+$1,$8,$9*
0 Add four rect primitives between the rounded corners*
20,1,$1+$1,$2,$3,$4,$5,0*
20,1,$1+$1,$4,$5,$6,$7,0*
20,1,$1+$1,$6,$7,$8,$9,0*
20,1,$1+$1,$8,$9,$2,$3,0*%
G04 Aperture macros list end*
%ADD10RoundRect,0.225000X0.225000X0.250000X-0.225000X0.250000X-0.225000X-0.250000X0.225000X-0.250000X0*%
%ADD11RoundRect,0.225000X-0.225000X-0.250000X0.225000X-0.250000X0.225000X0.250000X-0.225000X0.250000X0*%
%ADD12R,1.000000X1.000000*%
%ADD13C,2.200000*%
%ADD14RoundRect,0.225000X-0.250000X0.225000X-0.250000X-0.225000X0.250000X-0.225000X0.250000X0.225000X0*%
%ADD15RoundRect,0.250000X0.475000X-0.250000X0.475000X0.250000X-0.475000X0.250000X-0.475000X-0.250000X0*%
%ADD16RoundRect,0.102000X2.750000X-0.500000X2.750000X0.500000X-2.750000X0.500000X-2.750000X-0.500000X0*%
%ADD17RoundRect,0.102000X1.500000X-0.800000X1.500000X0.800000X-1.500000X0.800000X-1.500000X-0.800000X0*%
%ADD18RoundRect,0.200000X0.200000X0.275000X-0.200000X0.275000X-0.200000X-0.275000X0.200000X-0.275000X0*%
%ADD19RoundRect,0.102000X-1.050000X-0.700000X1.050000X-0.700000X1.050000X0.700000X-1.050000X0.700000X0*%
%ADD20RoundRect,0.102000X-0.500000X-2.750000X0.500000X-2.750000X0.500000X2.750000X-0.500000X2.750000X0*%
%ADD21RoundRect,0.102000X-0.800000X-1.500000X0.800000X-1.500000X0.800000X1.500000X-0.800000X1.500000X0*%
%ADD22R,0.806066X0.256842*%
%ADD23R,1.000000X1.699999*%
%ADD24RoundRect,0.250000X-0.250000X-0.475000X0.250000X-0.475000X0.250000X0.475000X-0.250000X0.475000X0*%
%ADD25RoundRect,0.250000X0.250000X0.475000X-0.250000X0.475000X-0.250000X-0.475000X0.250000X-0.475000X0*%
%ADD26RoundRect,0.200000X-0.200000X-0.275000X0.200000X-0.275000X0.200000X0.275000X-0.200000X0.275000X0*%
%ADD27RoundRect,0.200000X-0.275000X0.200000X-0.275000X-0.200000X0.275000X-0.200000X0.275000X0.200000X0*%
%ADD28RoundRect,0.100500X-0.676500X-0.301500X0.676500X-0.301500X0.676500X0.301500X-0.676500X0.301500X0*%
%ADD29R,1.500000X0.900000*%
%ADD30R,0.900000X1.500000*%
%ADD31C,0.600000*%
%ADD32R,3.800000X3.800000*%
%ADD33R,0.482600X0.254000*%
%ADD34R,0.254000X0.482600*%
G04 APERTURE END LIST*
D10*
%TO.C,C3*%
X188275000Y-106000000D03*
X186725000Y-106000000D03*
%TD*%
D11*
%TO.C,C4*%
X142725000Y-104000000D03*
X144275000Y-104000000D03*
%TD*%
D12*
%TO.C,TP39*%
X176500000Y-135250002D03*
%TD*%
%TO.C,TP10*%
X110000000Y-63000000D03*
%TD*%
D13*
%TO.C,REF\u002A\u002A*%
X160000000Y-115000000D03*
%TD*%
D14*
%TO.C,C19*%
X162500000Y-79225000D03*
X162500000Y-80775000D03*
%TD*%
D12*
%TO.C,TP11*%
X118500000Y-69000000D03*
%TD*%
%TO.C,TP22*%
X182000000Y-70000000D03*
%TD*%
D15*
%TO.C,C1*%
X177000000Y-107950000D03*
X177000000Y-106050000D03*
%TD*%
D12*
%TO.C,TP1*%
X151500000Y-94000000D03*
%TD*%
D13*
%TO.C,Motor Mount*%
X95000000Y-155000000D03*
X100200000Y-150000000D03*
%TD*%
D16*
%TO.C,J1*%
X171750000Y-108000000D03*
X171750000Y-106000000D03*
D17*
X169500000Y-110400000D03*
X169500000Y-103600000D03*
%TD*%
D12*
%TO.C,TP3*%
X155500000Y-94000000D03*
%TD*%
%TO.C,TP20*%
X186000000Y-70000000D03*
%TD*%
D18*
%TO.C,R4*%
X189325000Y-66000000D03*
X187675000Y-66000000D03*
%TD*%
D12*
%TO.C,TP9*%
X145000000Y-101500000D03*
%TD*%
%TO.C,TP35*%
X185000000Y-135750002D03*
%TD*%
%TO.C,TP30*%
X114500000Y-136000000D03*
%TD*%
D19*
%TO.C,S1*%
X126950000Y-63750000D03*
X126950000Y-68250000D03*
X136050000Y-63750000D03*
X136050000Y-68250000D03*
%TD*%
D12*
%TO.C,TP4*%
X153500000Y-104500000D03*
%TD*%
D20*
%TO.C,J2*%
X145500000Y-136750000D03*
X147500000Y-136750000D03*
X149500000Y-136750000D03*
X151500000Y-136750000D03*
D21*
X143100000Y-134500000D03*
X153900000Y-134500000D03*
%TD*%
D12*
%TO.C,TP31*%
X112000000Y-136000000D03*
%TD*%
%TO.C,TP8*%
X147500000Y-105000000D03*
%TD*%
%TO.C,TP38*%
X179000000Y-135750002D03*
%TD*%
%TO.C,TP18*%
X179500000Y-64000000D03*
%TD*%
D22*
%TO.C,U6*%
X180500000Y-131750002D03*
X180500000Y-132250000D03*
X180500000Y-132750000D03*
X180500000Y-133250001D03*
X182606066Y-133250001D03*
X182606066Y-132750000D03*
X182606066Y-132250000D03*
X182606066Y-131750002D03*
D23*
X181553033Y-132500000D03*
%TD*%
D10*
%TO.C,C6*%
X139775000Y-61500000D03*
X138225000Y-61500000D03*
%TD*%
D22*
%TO.C,U4*%
X184000000Y-65500000D03*
X184000000Y-65999998D03*
X184000000Y-66499998D03*
X184000000Y-66999999D03*
X186106066Y-66999999D03*
X186106066Y-66499998D03*
X186106066Y-65999998D03*
X186106066Y-65500000D03*
D23*
X185053033Y-66249998D03*
%TD*%
D10*
%TO.C,C12*%
X185275000Y-62500000D03*
X183725000Y-62500000D03*
%TD*%
D12*
%TO.C,TP36*%
X183000000Y-135750002D03*
%TD*%
%TO.C,TP13*%
X114500000Y-69000000D03*
%TD*%
%TO.C,TP23*%
X179500000Y-70000000D03*
%TD*%
D13*
%TO.C,Motor Mount*%
X95000000Y-45000000D03*
X100000000Y-50200000D03*
%TD*%
D12*
%TO.C,TP37*%
X181000000Y-135750002D03*
%TD*%
D19*
%TO.C,S2*%
X127000000Y-72000000D03*
X127000000Y-76500000D03*
X136100000Y-72000000D03*
X136100000Y-76500000D03*
%TD*%
D11*
%TO.C,C13*%
X119225000Y-131000000D03*
X120775000Y-131000000D03*
%TD*%
D12*
%TO.C,TP34*%
X176500000Y-129250002D03*
%TD*%
D13*
%TO.C,Motor Mount*%
X199800000Y-50000000D03*
X205000000Y-45000000D03*
%TD*%
%TO.C,REF\u002A\u002A*%
X140000000Y-115000000D03*
%TD*%
D18*
%TO.C,R3*%
X120825000Y-65500000D03*
X119175000Y-65500000D03*
%TD*%
D12*
%TO.C,TP7*%
X149500000Y-105000000D03*
%TD*%
D24*
%TO.C,C14*%
X115550000Y-127000000D03*
X117450000Y-127000000D03*
%TD*%
D13*
%TO.C,REF\u002A\u002A*%
X160000000Y-125000000D03*
%TD*%
%TO.C,REF\u002A\u002A*%
X140000000Y-125000000D03*
%TD*%
D12*
%TO.C,TP19*%
X188000000Y-70000000D03*
%TD*%
D25*
%TO.C,C11*%
X185450000Y-60500000D03*
X183550000Y-60500000D03*
%TD*%
D12*
%TO.C,TP33*%
X112000000Y-134000000D03*
%TD*%
%TO.C,TP5*%
X156000000Y-100500000D03*
%TD*%
%TO.C,TP27*%
X120500000Y-136000000D03*
%TD*%
D14*
%TO.C,C20*%
X139000000Y-67225000D03*
X139000000Y-68775000D03*
%TD*%
D11*
%TO.C,C15*%
X115725000Y-129000000D03*
X117275000Y-129000000D03*
%TD*%
D26*
%TO.C,R2*%
X124175000Y-70000000D03*
X125825000Y-70000000D03*
%TD*%
D12*
%TO.C,TP32*%
X112000000Y-132000000D03*
%TD*%
D27*
%TO.C,R1*%
X180000000Y-108175000D03*
X180000000Y-109825000D03*
%TD*%
D12*
%TO.C,TP16*%
X110000000Y-67000000D03*
%TD*%
%TO.C,TP6*%
X151500000Y-105000000D03*
%TD*%
D22*
%TO.C,U5*%
X115946967Y-131750002D03*
X115946967Y-132250000D03*
X115946967Y-132750000D03*
X115946967Y-133250001D03*
X118053033Y-133250001D03*
X118053033Y-132750000D03*
X118053033Y-132250000D03*
X118053033Y-131750002D03*
D23*
X117000000Y-132500000D03*
%TD*%
D12*
%TO.C,TP24*%
X179500000Y-66000000D03*
%TD*%
%TO.C,TP25*%
X179500000Y-68000000D03*
%TD*%
%TO.C,TP40*%
X176500000Y-131250002D03*
%TD*%
%TO.C,TP21*%
X184000000Y-70000000D03*
%TD*%
D25*
%TO.C,C17*%
X181950000Y-126500000D03*
X180050000Y-126500000D03*
%TD*%
D22*
%TO.C,U3*%
X114500000Y-64500000D03*
X114500000Y-64999998D03*
X114500000Y-65499998D03*
X114500000Y-65999999D03*
X116606066Y-65999999D03*
X116606066Y-65499998D03*
X116606066Y-64999998D03*
X116606066Y-64500000D03*
D23*
X115553033Y-65249998D03*
%TD*%
D18*
%TO.C,R5*%
X122500000Y-132500000D03*
X120850000Y-132500000D03*
%TD*%
%TO.C,R6*%
X187150000Y-132500000D03*
X185500000Y-132500000D03*
%TD*%
D12*
%TO.C,TP2*%
X153500000Y-94000000D03*
%TD*%
D13*
%TO.C,Motor Mount*%
X200000000Y-150000000D03*
X205000000Y-155200000D03*
%TD*%
D28*
%TO.C,VR1*%
X182630000Y-106000000D03*
X182630000Y-106950000D03*
X182630000Y-107900000D03*
X185000000Y-107900000D03*
X185000000Y-106000000D03*
%TD*%
D11*
%TO.C,C7*%
X114225000Y-61500000D03*
X115775000Y-61500000D03*
%TD*%
%TO.C,C9*%
X117725000Y-64000000D03*
X119275000Y-64000000D03*
%TD*%
D12*
%TO.C,TP28*%
X118500000Y-136000000D03*
%TD*%
D11*
%TO.C,C10*%
X187725000Y-64500000D03*
X189275000Y-64500000D03*
%TD*%
D12*
%TO.C,TP41*%
X176500000Y-133250002D03*
%TD*%
D29*
%TO.C,U1*%
X141850000Y-61230000D03*
X141850000Y-62500000D03*
X141850000Y-63770000D03*
X141850000Y-65040000D03*
X141850000Y-66310000D03*
X141850000Y-67580000D03*
X141850000Y-68850000D03*
X141850000Y-70120000D03*
X141850000Y-71390000D03*
X141850000Y-72660000D03*
X141850000Y-73930000D03*
X141850000Y-75200000D03*
X141850000Y-76470000D03*
X141850000Y-77740000D03*
D30*
X144890000Y-78990000D03*
X146160000Y-78990000D03*
X147430000Y-78990000D03*
X148700000Y-78990000D03*
X149970000Y-78990000D03*
X151240000Y-78990000D03*
X152510000Y-78990000D03*
X153780000Y-78990000D03*
X155050000Y-78990000D03*
X156320000Y-78990000D03*
D29*
X159350000Y-77740000D03*
X159350000Y-76470000D03*
X159350000Y-75200000D03*
X159350000Y-73930000D03*
X159350000Y-72660000D03*
X159350000Y-71390000D03*
X159350000Y-70120000D03*
X159350000Y-68850000D03*
X159350000Y-67580000D03*
X159350000Y-66310000D03*
X159350000Y-65040000D03*
X159350000Y-63770000D03*
X159350000Y-62500000D03*
X159350000Y-61230000D03*
D31*
X147700000Y-68250000D03*
X147700000Y-69650000D03*
X148400000Y-67550000D03*
X148400000Y-68950000D03*
X148400000Y-70350000D03*
X149075000Y-68250000D03*
X149075000Y-69650000D03*
D32*
X149100000Y-68950000D03*
D31*
X149800000Y-67550000D03*
X149800000Y-68950000D03*
X149800000Y-70350000D03*
X150500000Y-68250000D03*
X150500000Y-69650000D03*
%TD*%
D12*
%TO.C,TP15*%
X110000000Y-65000000D03*
%TD*%
D24*
%TO.C,C8*%
X114050000Y-59500000D03*
X115950000Y-59500000D03*
%TD*%
D11*
%TO.C,C16*%
X184225000Y-130750002D03*
X185775000Y-130750002D03*
%TD*%
D10*
%TO.C,C18*%
X181600000Y-128500000D03*
X180050000Y-128500000D03*
%TD*%
D12*
%TO.C,TP12*%
X116500000Y-69000000D03*
%TD*%
D14*
%TO.C,C2*%
X180500000Y-104225000D03*
X180500000Y-105775000D03*
%TD*%
D12*
%TO.C,TP14*%
X112500000Y-69000000D03*
%TD*%
%TO.C,TP29*%
X116500000Y-136000000D03*
%TD*%
%TO.C,TP26*%
X112000000Y-130000000D03*
%TD*%
D26*
%TO.C,R9*%
X143175000Y-96000000D03*
X144825000Y-96000000D03*
%TD*%
%TO.C,R7*%
X125175000Y-62000000D03*
X126825000Y-62000000D03*
%TD*%
%TO.C,R8*%
X143175000Y-94000000D03*
X144825000Y-94000000D03*
%TD*%
D12*
%TO.C,TP17*%
X110000000Y-69000000D03*
%TD*%
D11*
%TO.C,C5*%
X154725000Y-102500000D03*
X156275000Y-102500000D03*
%TD*%
D33*
%TO.C,U2*%
X148844300Y-99835599D03*
X148844300Y-100335600D03*
X148844300Y-100835600D03*
X148844300Y-101335601D03*
D34*
X149500001Y-101500000D03*
X150000000Y-101500000D03*
X150499999Y-101500000D03*
D33*
X151155700Y-101335601D03*
X151155700Y-100835600D03*
X151155700Y-100335600D03*
X151155700Y-99835599D03*
D34*
X150499999Y-99671200D03*
X150000000Y-99671200D03*
X149500001Y-99671200D03*
%TD*%
M02*
