M48
; DRILL file {KiCad 9.0.4} date 2025-10-24T07:57:24-0400
; FORMAT={-:-/ absolute / metric / decimal}
; #@! TF.CreationDate,2025-10-24T07:57:24-04:00
; #@! TF.GenerationSoftware,Kicad,Pcbnew,9.0.4
; #@! TF.FileFunction,Plated,1,4,PTH
FMAT,2
METRIC
; #@! TA.AperFunction,Plated,PTH,ComponentDrill
T1C0.200
; #@! TA.AperFunction,Plated,PTH,ViaDrill
T2C0.300
%
G90
G05
T1
X147.7Y-68.25
X147.7Y-69.65
X148.4Y-67.55
X148.4Y-68.95
X148.4Y-70.35
X149.075Y-68.25
X149.075Y-69.65
X149.8Y-67.55
X149.8Y-68.95
X149.8Y-70.35
X150.5Y-68.25
X150.5Y-69.65
T2
X112.5Y-64.0
X113.5Y-66.5
X114.05Y-59.5
X114.225Y-61.5
X114.5Y-131.5
X115.0Y-133.5
X115.55Y-127.0
X115.553Y-65.25
X115.725Y-129.0
X115.775Y-61.5
X115.95Y-59.5
X117.0Y-132.5
X117.275Y-129.0
X117.45Y-127.0
X117.5Y-66.5
X118.0Y-65.5
X118.5Y-134.5
X119.265Y-63.861
X119.5Y-133.5
X120.765Y-131.0
X126.95Y-68.25
X127.0Y-76.5
X136.05Y-63.75
X138.225Y-61.5
X139.0Y-68.775
X141.85Y-60.88
X141.85Y-70.09
X141.85Y-71.39
X141.85Y-72.66
X141.85Y-73.93
X141.85Y-75.2
X141.85Y-76.47
X142.725Y-104.0
X144.5Y-62.5
X144.825Y-94.0
X144.825Y-96.0
X144.89Y-78.99
X147.5Y-99.5
X147.5Y-136.75
X148.0Y-82.5
X149.0Y-83.0
X149.5Y-97.0
X149.5Y-102.5
X149.5Y-104.0
X149.5Y-136.75
X150.0Y-80.5
X150.0Y-94.5
X150.5Y-98.5
X150.5Y-102.5
X151.0Y-81.0
X151.5Y-98.5
X151.5Y-104.0
X151.5Y-136.75
X152.0Y-96.5
X152.5Y-99.5
X154.0Y-96.0
X154.0Y-100.0
X155.0Y-69.0
X156.275Y-102.5
X157.5Y-69.0
X159.35Y-61.23
X159.35Y-65.04
X159.35Y-66.31
X159.35Y-71.39
X159.35Y-73.93
X162.5Y-80.775
X171.75Y-106.0
X171.75Y-108.0
X177.0Y-106.05
X177.0Y-107.95
X178.5Y-131.25
X179.5Y-133.25
X180.0Y-109.825
X180.049Y-128.629
X180.05Y-126.5
X180.5Y-104.225
X180.5Y-105.775
X181.553Y-132.5
X181.599Y-128.629
X181.95Y-126.5
X182.0Y-134.25
X182.63Y-106.0
X182.63Y-106.95
X183.0Y-67.3
X183.5Y-65.0
X183.55Y-60.5
X183.725Y-62.5
X184.0Y-133.25
X185.053Y-66.25
X185.275Y-62.5
X185.45Y-60.5
X185.775Y-130.611
X186.124Y-67.875
X187.0Y-67.5
X188.294Y-106.0
X189.266Y-64.5
M30
