%TF.GenerationSoftware,KiCad,Pcbnew,9.0.4*%
%TF.CreationDate,2025-10-23T19:24:02-04:00*%
%TF.ProjectId,Kicad,4b696361-642e-46b6-9963-61645f706362,rev?*%
%TF.SameCoordinates,Original*%
%TF.FileFunction,Copper,L3,Inr*%
%TF.FilePolarity,Positive*%
%FSLAX46Y46*%
G04 Gerber Fmt 4.6, Leading zero omitted, Abs format (unit mm)*
G04 Created by KiCad (PCBNEW 9.0.4) date 2025-10-23 19:24:02*
%MOMM*%
%LPD*%
G01*
G04 APERTURE LIST*
%TA.AperFunction,HeatsinkPad*%
%ADD10C,0.600000*%
%TD*%
%TA.AperFunction,ViaPad*%
%ADD11C,0.600000*%
%TD*%
G04 APERTURE END LIST*
D10*
%TO.N,GND*%
%TO.C,U1*%
X147700000Y-68250000D03*
X147700000Y-69650000D03*
X148400000Y-67550000D03*
X148400000Y-68950000D03*
X148400000Y-70350000D03*
X149075000Y-68250000D03*
X149075000Y-69650000D03*
X149800000Y-67550000D03*
X149800000Y-68950000D03*
X149800000Y-70350000D03*
X150500000Y-68250000D03*
X150500000Y-69650000D03*
%TD*%
D11*
%TO.N,/VBAT*%
X180050000Y-126500000D03*
X117450000Y-127000000D03*
X117275000Y-129000000D03*
X171750000Y-108000000D03*
X180000000Y-109825000D03*
X115775000Y-61500000D03*
X177000000Y-107950000D03*
X114500000Y-131500000D03*
X180500000Y-105775000D03*
X183725000Y-62500000D03*
X183550000Y-60500000D03*
X178500000Y-131250002D03*
X183500000Y-65000000D03*
X112500000Y-64000000D03*
X115950000Y-59500000D03*
X182630000Y-106000000D03*
X180049500Y-128629001D03*
%TO.N,GND*%
X185275000Y-62500000D03*
X181599500Y-128629001D03*
X181553033Y-132500000D03*
X149500000Y-102500000D03*
X114225000Y-61500000D03*
X185053033Y-66249998D03*
X177000000Y-106050000D03*
X149500000Y-104000000D03*
X126950000Y-68250000D03*
X142725000Y-104000000D03*
X147500000Y-99500000D03*
X115725000Y-129000000D03*
X138225000Y-61500000D03*
X185450000Y-60500000D03*
X113500000Y-66500000D03*
X156275000Y-102500000D03*
X139000000Y-68775000D03*
X162500000Y-80775000D03*
X144890000Y-78990000D03*
X120765500Y-131000000D03*
X179500000Y-133250002D03*
X115550000Y-127000000D03*
X117000000Y-132500000D03*
X183000000Y-67299757D03*
X171750000Y-106000000D03*
X181950000Y-126500000D03*
X127000000Y-76500000D03*
X180500000Y-104225000D03*
X115553033Y-65249998D03*
X188294500Y-106000000D03*
X141850000Y-60880000D03*
X114050000Y-59500000D03*
X115000000Y-133500000D03*
X159350000Y-61230000D03*
X189265500Y-64500000D03*
X182630000Y-106950000D03*
X119265500Y-63860999D03*
X151500000Y-104000000D03*
X185775500Y-130611001D03*
X151500000Y-136750000D03*
X150500000Y-102500000D03*
%TO.N,/ESP_UART_TX*%
X149500000Y-136750000D03*
X159350000Y-65040000D03*
%TO.N,/ESP_UART_RX*%
X147500000Y-136750000D03*
X159350000Y-66310000D03*
%TO.N,/BOOT*%
X136050000Y-63750000D03*
X144500000Y-62500000D03*
%TO.N,/MOTOR4_INPUT1*%
X184000000Y-133250002D03*
X141850000Y-76470000D03*
%TO.N,/SCL*%
X150500000Y-98500000D03*
X144825000Y-96000000D03*
X148000000Y-82500000D03*
X152000000Y-96500000D03*
X150000000Y-80500000D03*
X155000000Y-69000000D03*
%TO.N,/MOTOR2_INPUT2*%
X186124135Y-67874757D03*
X141850000Y-72660000D03*
%TO.N,/SDA*%
X144825000Y-94000000D03*
X149500000Y-97000000D03*
X150000000Y-94500000D03*
X151000000Y-81000000D03*
X157500000Y-69000000D03*
X149000000Y-83000000D03*
%TO.N,/MOTOR3_INPUT1*%
X119500000Y-133500000D03*
X141850000Y-73930000D03*
%TO.N,/MOTOR1_INPUT1*%
X118000000Y-65499998D03*
X141850000Y-70089997D03*
%TO.N,/MOTOR3_INPUT2*%
X118500000Y-134500000D03*
X141850000Y-75200000D03*
%TO.N,/MOTOR4_INPUT2*%
X182000000Y-134250002D03*
X159350000Y-73930000D03*
%TO.N,/MOTOR2_INPUT1*%
X159350000Y-71390000D03*
X187000000Y-67500000D03*
%TO.N,/MOTOR1_INPUT2*%
X141850000Y-71390000D03*
X117500000Y-66500000D03*
%TO.N,Net-(U2-INT2)*%
X152500000Y-99500000D03*
X154000000Y-100000000D03*
%TO.N,Net-(U2-CSB)*%
X151500000Y-98500000D03*
X154000000Y-96000000D03*
%TD*%
%TA.AperFunction,Conductor*%
%TO.N,/VBAT*%
G36*
X200731250Y-35519030D02*
G01*
X200737507Y-35519347D01*
X201463765Y-35574654D01*
X201470014Y-35575289D01*
X202192507Y-35667306D01*
X202198708Y-35668256D01*
X202915668Y-35796757D01*
X202921768Y-35798011D01*
X203631277Y-35962656D01*
X203637327Y-35964222D01*
X204337611Y-36164598D01*
X204343585Y-36166473D01*
X205032791Y-36402050D01*
X205038654Y-36404221D01*
X205715068Y-36674414D01*
X205720815Y-36676881D01*
X206207288Y-36900402D01*
X206382622Y-36980963D01*
X206388263Y-36983729D01*
X207033852Y-37320957D01*
X207039345Y-37324006D01*
X207667008Y-37693490D01*
X207672338Y-37696812D01*
X208280483Y-38097613D01*
X208285622Y-38101189D01*
X208872713Y-38532298D01*
X208877672Y-38536137D01*
X209442135Y-38996398D01*
X209446902Y-39000490D01*
X209987355Y-39488770D01*
X209991908Y-39493099D01*
X210506900Y-40008091D01*
X210511229Y-40012644D01*
X210999509Y-40553097D01*
X211003601Y-40557864D01*
X211463862Y-41122327D01*
X211467708Y-41127295D01*
X211898803Y-41714368D01*
X211902392Y-41719525D01*
X212303186Y-42327660D01*
X212306509Y-42332991D01*
X212675993Y-42960654D01*
X212679042Y-42966147D01*
X213016270Y-43611736D01*
X213019036Y-43617377D01*
X213323112Y-44279171D01*
X213325590Y-44284944D01*
X213595772Y-44961331D01*
X213597954Y-44967223D01*
X213833523Y-45656404D01*
X213835404Y-45662398D01*
X214035773Y-46362656D01*
X214037347Y-46368738D01*
X214201982Y-47078204D01*
X214203247Y-47084358D01*
X214331742Y-47801286D01*
X214332693Y-47807496D01*
X214424709Y-48529984D01*
X214425345Y-48536234D01*
X214480651Y-49262483D01*
X214480969Y-49268758D01*
X214493028Y-49744613D01*
X214475048Y-49812129D01*
X214456749Y-49835435D01*
X189692686Y-74599500D01*
X189599502Y-74692683D01*
X189599500Y-74692686D01*
X189533608Y-74806812D01*
X189529853Y-74820827D01*
X189499500Y-74934108D01*
X189499500Y-124934108D01*
X189499500Y-125065892D01*
X189510324Y-125106287D01*
X189533608Y-125193187D01*
X189566554Y-125250250D01*
X189599500Y-125307314D01*
X189599502Y-125307316D01*
X214456749Y-150164563D01*
X214490234Y-150225886D01*
X214493028Y-150255385D01*
X214480969Y-150731241D01*
X214480651Y-150737516D01*
X214425345Y-151463765D01*
X214424709Y-151470015D01*
X214332693Y-152192503D01*
X214331742Y-152198713D01*
X214203247Y-152915641D01*
X214201982Y-152921795D01*
X214037347Y-153631261D01*
X214035773Y-153637343D01*
X213835404Y-154337601D01*
X213833523Y-154343595D01*
X213597954Y-155032776D01*
X213595772Y-155038668D01*
X213325590Y-155715055D01*
X213323112Y-155720828D01*
X213019036Y-156382622D01*
X213016270Y-156388263D01*
X212679042Y-157033852D01*
X212675993Y-157039345D01*
X212306509Y-157667008D01*
X212303186Y-157672339D01*
X211902392Y-158280474D01*
X211898803Y-158285631D01*
X211467708Y-158872704D01*
X211463862Y-158877672D01*
X211003601Y-159442135D01*
X210999509Y-159446902D01*
X210511229Y-159987355D01*
X210506900Y-159991908D01*
X209991908Y-160506900D01*
X209987355Y-160511229D01*
X209446902Y-160999509D01*
X209442135Y-161003601D01*
X208877672Y-161463862D01*
X208872704Y-161467708D01*
X208285631Y-161898803D01*
X208280474Y-161902392D01*
X207672339Y-162303186D01*
X207667008Y-162306509D01*
X207039345Y-162675993D01*
X207033852Y-162679042D01*
X206388263Y-163016270D01*
X206382622Y-163019036D01*
X205720828Y-163323112D01*
X205715055Y-163325590D01*
X205038668Y-163595772D01*
X205032776Y-163597954D01*
X204343595Y-163833523D01*
X204337601Y-163835404D01*
X203637343Y-164035773D01*
X203631261Y-164037347D01*
X202921795Y-164201982D01*
X202915641Y-164203247D01*
X202198713Y-164331742D01*
X202192503Y-164332693D01*
X201470015Y-164424709D01*
X201463765Y-164425345D01*
X200737516Y-164480651D01*
X200731241Y-164480969D01*
X200255385Y-164493028D01*
X200187869Y-164475048D01*
X200164563Y-164456749D01*
X190801527Y-155093713D01*
X203649500Y-155093713D01*
X203649500Y-155306287D01*
X203682754Y-155516243D01*
X203747352Y-155715055D01*
X203748444Y-155718414D01*
X203844951Y-155907820D01*
X203969890Y-156079786D01*
X204120213Y-156230109D01*
X204292179Y-156355048D01*
X204292181Y-156355049D01*
X204292184Y-156355051D01*
X204481588Y-156451557D01*
X204683757Y-156517246D01*
X204893713Y-156550500D01*
X204893714Y-156550500D01*
X205106286Y-156550500D01*
X205106287Y-156550500D01*
X205316243Y-156517246D01*
X205518412Y-156451557D01*
X205707816Y-156355051D01*
X205729789Y-156339086D01*
X205879786Y-156230109D01*
X205879788Y-156230106D01*
X205879792Y-156230104D01*
X206030104Y-156079792D01*
X206030106Y-156079788D01*
X206030109Y-156079786D01*
X206155048Y-155907820D01*
X206155047Y-155907820D01*
X206155051Y-155907816D01*
X206251557Y-155718412D01*
X206317246Y-155516243D01*
X206350500Y-155306287D01*
X206350500Y-155093713D01*
X206317246Y-154883757D01*
X206251557Y-154681588D01*
X206155051Y-154492184D01*
X206155049Y-154492181D01*
X206155048Y-154492179D01*
X206030109Y-154320213D01*
X205879786Y-154169890D01*
X205707820Y-154044951D01*
X205518414Y-153948444D01*
X205518413Y-153948443D01*
X205518412Y-153948443D01*
X205316243Y-153882754D01*
X205316241Y-153882753D01*
X205316240Y-153882753D01*
X205154957Y-153857208D01*
X205106287Y-153849500D01*
X204893713Y-153849500D01*
X204845042Y-153857208D01*
X204683760Y-153882753D01*
X204481585Y-153948444D01*
X204292179Y-154044951D01*
X204120213Y-154169890D01*
X203969890Y-154320213D01*
X203844951Y-154492179D01*
X203748444Y-154681585D01*
X203682753Y-154883760D01*
X203658680Y-155035753D01*
X203649500Y-155093713D01*
X190801527Y-155093713D01*
X185601527Y-149893713D01*
X198649500Y-149893713D01*
X198649500Y-150106286D01*
X198682753Y-150316239D01*
X198748444Y-150518414D01*
X198844951Y-150707820D01*
X198969890Y-150879786D01*
X199120213Y-151030109D01*
X199292179Y-151155048D01*
X199292181Y-151155049D01*
X199292184Y-151155051D01*
X199481588Y-151251557D01*
X199683757Y-151317246D01*
X199893713Y-151350500D01*
X199893714Y-151350500D01*
X200106286Y-151350500D01*
X200106287Y-151350500D01*
X200316243Y-151317246D01*
X200518412Y-151251557D01*
X200707816Y-151155051D01*
X200729789Y-151139086D01*
X200879786Y-151030109D01*
X200879788Y-151030106D01*
X200879792Y-151030104D01*
X201030104Y-150879792D01*
X201030106Y-150879788D01*
X201030109Y-150879786D01*
X201155048Y-150707820D01*
X201155047Y-150707820D01*
X201155051Y-150707816D01*
X201251557Y-150518412D01*
X201317246Y-150316243D01*
X201350500Y-150106287D01*
X201350500Y-149893713D01*
X201317246Y-149683757D01*
X201251557Y-149481588D01*
X201155051Y-149292184D01*
X201155049Y-149292181D01*
X201155048Y-149292179D01*
X201030109Y-149120213D01*
X200879786Y-148969890D01*
X200707820Y-148844951D01*
X200518414Y-148748444D01*
X200518413Y-148748443D01*
X200518412Y-148748443D01*
X200316243Y-148682754D01*
X200316241Y-148682753D01*
X200316240Y-148682753D01*
X200154957Y-148657208D01*
X200106287Y-148649500D01*
X199893713Y-148649500D01*
X199845042Y-148657208D01*
X199683760Y-148682753D01*
X199481585Y-148748444D01*
X199292179Y-148844951D01*
X199120213Y-148969890D01*
X198969890Y-149120213D01*
X198844951Y-149292179D01*
X198748444Y-149481585D01*
X198682753Y-149683760D01*
X198649500Y-149893713D01*
X185601527Y-149893713D01*
X175307316Y-139599502D01*
X175307314Y-139599500D01*
X175250250Y-139566554D01*
X175193187Y-139533608D01*
X175129539Y-139516554D01*
X175065892Y-139499500D01*
X125065892Y-139499500D01*
X124934108Y-139499500D01*
X124806812Y-139533608D01*
X124692686Y-139599500D01*
X124692683Y-139599502D01*
X99835435Y-164456749D01*
X99774112Y-164490234D01*
X99744613Y-164493028D01*
X99268758Y-164480969D01*
X99262483Y-164480651D01*
X98536234Y-164425345D01*
X98529984Y-164424709D01*
X97807496Y-164332693D01*
X97801286Y-164331742D01*
X97084358Y-164203247D01*
X97078204Y-164201982D01*
X96368738Y-164037347D01*
X96362656Y-164035773D01*
X95662398Y-163835404D01*
X95656404Y-163833523D01*
X94967223Y-163597954D01*
X94961331Y-163595772D01*
X94284944Y-163325590D01*
X94279171Y-163323112D01*
X93617377Y-163019036D01*
X93611736Y-163016270D01*
X92966147Y-162679042D01*
X92960654Y-162675993D01*
X92332991Y-162306509D01*
X92327660Y-162303186D01*
X91719525Y-161902392D01*
X91714368Y-161898803D01*
X91127295Y-161467708D01*
X91122327Y-161463862D01*
X90557864Y-161003601D01*
X90553097Y-160999509D01*
X90012644Y-160511229D01*
X90008091Y-160506900D01*
X89493099Y-159991908D01*
X89488770Y-159987355D01*
X89000490Y-159446902D01*
X88996398Y-159442135D01*
X88536137Y-158877672D01*
X88532291Y-158872704D01*
X88101196Y-158285631D01*
X88097607Y-158280474D01*
X87696813Y-157672339D01*
X87693490Y-157667008D01*
X87324006Y-157039345D01*
X87320957Y-157033852D01*
X86983729Y-156388263D01*
X86980963Y-156382622D01*
X86910885Y-156230104D01*
X86676881Y-155720815D01*
X86674409Y-155715055D01*
X86671517Y-155707816D01*
X86404221Y-155038654D01*
X86402045Y-155032776D01*
X86354512Y-154893713D01*
X93649500Y-154893713D01*
X93649500Y-155106287D01*
X93682754Y-155316243D01*
X93747738Y-155516243D01*
X93748444Y-155518414D01*
X93844951Y-155707820D01*
X93969890Y-155879786D01*
X94120213Y-156030109D01*
X94292179Y-156155048D01*
X94292181Y-156155049D01*
X94292184Y-156155051D01*
X94481588Y-156251557D01*
X94683757Y-156317246D01*
X94893713Y-156350500D01*
X94893714Y-156350500D01*
X95106286Y-156350500D01*
X95106287Y-156350500D01*
X95316243Y-156317246D01*
X95518412Y-156251557D01*
X95707816Y-156155051D01*
X95811402Y-156079792D01*
X95879786Y-156030109D01*
X95879788Y-156030106D01*
X95879792Y-156030104D01*
X96030104Y-155879792D01*
X96030106Y-155879788D01*
X96030109Y-155879786D01*
X96155048Y-155707820D01*
X96155047Y-155707820D01*
X96155051Y-155707816D01*
X96251557Y-155518412D01*
X96317246Y-155316243D01*
X96350500Y-155106287D01*
X96350500Y-154893713D01*
X96317246Y-154683757D01*
X96251557Y-154481588D01*
X96155051Y-154292184D01*
X96155049Y-154292181D01*
X96155048Y-154292179D01*
X96030109Y-154120213D01*
X95879786Y-153969890D01*
X95707820Y-153844951D01*
X95518414Y-153748444D01*
X95518413Y-153748443D01*
X95518412Y-153748443D01*
X95316243Y-153682754D01*
X95316241Y-153682753D01*
X95316240Y-153682753D01*
X95154957Y-153657208D01*
X95106287Y-153649500D01*
X94893713Y-153649500D01*
X94845042Y-153657208D01*
X94683760Y-153682753D01*
X94481585Y-153748444D01*
X94292179Y-153844951D01*
X94120213Y-153969890D01*
X93969890Y-154120213D01*
X93844951Y-154292179D01*
X93748444Y-154481585D01*
X93682753Y-154683760D01*
X93654255Y-154863689D01*
X93649500Y-154893713D01*
X86354512Y-154893713D01*
X86166473Y-154343585D01*
X86164595Y-154337601D01*
X86159620Y-154320213D01*
X85964222Y-153637327D01*
X85962652Y-153631261D01*
X85798011Y-152921768D01*
X85796757Y-152915668D01*
X85668256Y-152198708D01*
X85667306Y-152192503D01*
X85575290Y-151470015D01*
X85574654Y-151463765D01*
X85541630Y-151030109D01*
X85519347Y-150737507D01*
X85519030Y-150731241D01*
X85518436Y-150707820D01*
X85506971Y-150255383D01*
X85524951Y-150187868D01*
X85543246Y-150164566D01*
X85814099Y-149893713D01*
X98849500Y-149893713D01*
X98849500Y-150106286D01*
X98882753Y-150316239D01*
X98948444Y-150518414D01*
X99044951Y-150707820D01*
X99169890Y-150879786D01*
X99320213Y-151030109D01*
X99492179Y-151155048D01*
X99492181Y-151155049D01*
X99492184Y-151155051D01*
X99681588Y-151251557D01*
X99883757Y-151317246D01*
X100093713Y-151350500D01*
X100093714Y-151350500D01*
X100306286Y-151350500D01*
X100306287Y-151350500D01*
X100516243Y-151317246D01*
X100718412Y-151251557D01*
X100907816Y-151155051D01*
X100929789Y-151139086D01*
X101079786Y-151030109D01*
X101079788Y-151030106D01*
X101079792Y-151030104D01*
X101230104Y-150879792D01*
X101230106Y-150879788D01*
X101230109Y-150879786D01*
X101355048Y-150707820D01*
X101355047Y-150707820D01*
X101355051Y-150707816D01*
X101451557Y-150518412D01*
X101517246Y-150316243D01*
X101550500Y-150106287D01*
X101550500Y-149893713D01*
X101517246Y-149683757D01*
X101451557Y-149481588D01*
X101355051Y-149292184D01*
X101355049Y-149292181D01*
X101355048Y-149292179D01*
X101230109Y-149120213D01*
X101079786Y-148969890D01*
X100907820Y-148844951D01*
X100718414Y-148748444D01*
X100718413Y-148748443D01*
X100718412Y-148748443D01*
X100516243Y-148682754D01*
X100516241Y-148682753D01*
X100516240Y-148682753D01*
X100354957Y-148657208D01*
X100306287Y-148649500D01*
X100093713Y-148649500D01*
X100045042Y-148657208D01*
X99883760Y-148682753D01*
X99681585Y-148748444D01*
X99492179Y-148844951D01*
X99320213Y-148969890D01*
X99169890Y-149120213D01*
X99044951Y-149292179D01*
X98948444Y-149481585D01*
X98882753Y-149683760D01*
X98849500Y-149893713D01*
X85814099Y-149893713D01*
X99036660Y-136671153D01*
X146699500Y-136671153D01*
X146699500Y-136828846D01*
X146730261Y-136983489D01*
X146730264Y-136983501D01*
X146790602Y-137129172D01*
X146790609Y-137129185D01*
X146878210Y-137260288D01*
X146878213Y-137260292D01*
X146989707Y-137371786D01*
X146989711Y-137371789D01*
X147120814Y-137459390D01*
X147120827Y-137459397D01*
X147266498Y-137519735D01*
X147266503Y-137519737D01*
X147421153Y-137550499D01*
X147421156Y-137550500D01*
X147421158Y-137550500D01*
X147578844Y-137550500D01*
X147578845Y-137550499D01*
X147733497Y-137519737D01*
X147879179Y-137459394D01*
X148010289Y-137371789D01*
X148121789Y-137260289D01*
X148209394Y-137129179D01*
X148269737Y-136983497D01*
X148300500Y-136828842D01*
X148300500Y-136671158D01*
X148300500Y-136671155D01*
X148300499Y-136671153D01*
X148699500Y-136671153D01*
X148699500Y-136828846D01*
X148730261Y-136983489D01*
X148730264Y-136983501D01*
X148790602Y-137129172D01*
X148790609Y-137129185D01*
X148878210Y-137260288D01*
X148878213Y-137260292D01*
X148989707Y-137371786D01*
X148989711Y-137371789D01*
X149120814Y-137459390D01*
X149120827Y-137459397D01*
X149266498Y-137519735D01*
X149266503Y-137519737D01*
X149421153Y-137550499D01*
X149421156Y-137550500D01*
X149421158Y-137550500D01*
X149578844Y-137550500D01*
X149578845Y-137550499D01*
X149733497Y-137519737D01*
X149879179Y-137459394D01*
X150010289Y-137371789D01*
X150121789Y-137260289D01*
X150209394Y-137129179D01*
X150269737Y-136983497D01*
X150300500Y-136828842D01*
X150300500Y-136671158D01*
X150300500Y-136671155D01*
X150300499Y-136671153D01*
X150699500Y-136671153D01*
X150699500Y-136828846D01*
X150730261Y-136983489D01*
X150730264Y-136983501D01*
X150790602Y-137129172D01*
X150790609Y-137129185D01*
X150878210Y-137260288D01*
X150878213Y-137260292D01*
X150989707Y-137371786D01*
X150989711Y-137371789D01*
X151120814Y-137459390D01*
X151120827Y-137459397D01*
X151266498Y-137519735D01*
X151266503Y-137519737D01*
X151421153Y-137550499D01*
X151421156Y-137550500D01*
X151421158Y-137550500D01*
X151578844Y-137550500D01*
X151578845Y-137550499D01*
X151733497Y-137519737D01*
X151879179Y-137459394D01*
X152010289Y-137371789D01*
X152121789Y-137260289D01*
X152209394Y-137129179D01*
X152269737Y-136983497D01*
X152300500Y-136828842D01*
X152300500Y-136671158D01*
X152300500Y-136671155D01*
X152300499Y-136671153D01*
X152269738Y-136516510D01*
X152269737Y-136516503D01*
X152269735Y-136516498D01*
X152209397Y-136370827D01*
X152209390Y-136370814D01*
X152121789Y-136239711D01*
X152121786Y-136239707D01*
X152010292Y-136128213D01*
X152010288Y-136128210D01*
X151879185Y-136040609D01*
X151879172Y-136040602D01*
X151733501Y-135980264D01*
X151733489Y-135980261D01*
X151578845Y-135949500D01*
X151578842Y-135949500D01*
X151421158Y-135949500D01*
X151421155Y-135949500D01*
X151266510Y-135980261D01*
X151266498Y-135980264D01*
X151120827Y-136040602D01*
X151120814Y-136040609D01*
X150989711Y-136128210D01*
X150989707Y-136128213D01*
X150878213Y-136239707D01*
X150878210Y-136239711D01*
X150790609Y-136370814D01*
X150790602Y-136370827D01*
X150730264Y-136516498D01*
X150730261Y-136516510D01*
X150699500Y-136671153D01*
X150300499Y-136671153D01*
X150269738Y-136516510D01*
X150269737Y-136516503D01*
X150269735Y-136516498D01*
X150209397Y-136370827D01*
X150209390Y-136370814D01*
X150121789Y-136239711D01*
X150121786Y-136239707D01*
X150010292Y-136128213D01*
X150010288Y-136128210D01*
X149879185Y-136040609D01*
X149879172Y-136040602D01*
X149733501Y-135980264D01*
X149733489Y-135980261D01*
X149578845Y-135949500D01*
X149578842Y-135949500D01*
X149421158Y-135949500D01*
X149421155Y-135949500D01*
X149266510Y-135980261D01*
X149266498Y-135980264D01*
X149120827Y-136040602D01*
X149120814Y-136040609D01*
X148989711Y-136128210D01*
X148989707Y-136128213D01*
X148878213Y-136239707D01*
X148878210Y-136239711D01*
X148790609Y-136370814D01*
X148790602Y-136370827D01*
X148730264Y-136516498D01*
X148730261Y-136516510D01*
X148699500Y-136671153D01*
X148300499Y-136671153D01*
X148269738Y-136516510D01*
X148269737Y-136516503D01*
X148269735Y-136516498D01*
X148209397Y-136370827D01*
X148209390Y-136370814D01*
X148121789Y-136239711D01*
X148121786Y-136239707D01*
X148010292Y-136128213D01*
X148010288Y-136128210D01*
X147879185Y-136040609D01*
X147879172Y-136040602D01*
X147733501Y-135980264D01*
X147733489Y-135980261D01*
X147578845Y-135949500D01*
X147578842Y-135949500D01*
X147421158Y-135949500D01*
X147421155Y-135949500D01*
X147266510Y-135980261D01*
X147266498Y-135980264D01*
X147120827Y-136040602D01*
X147120814Y-136040609D01*
X146989711Y-136128210D01*
X146989707Y-136128213D01*
X146878213Y-136239707D01*
X146878210Y-136239711D01*
X146790609Y-136370814D01*
X146790602Y-136370827D01*
X146730264Y-136516498D01*
X146730261Y-136516510D01*
X146699500Y-136671153D01*
X99036660Y-136671153D01*
X101286660Y-134421153D01*
X117699500Y-134421153D01*
X117699500Y-134578846D01*
X117730261Y-134733489D01*
X117730264Y-134733501D01*
X117790602Y-134879172D01*
X117790609Y-134879185D01*
X117878210Y-135010288D01*
X117878213Y-135010292D01*
X117989707Y-135121786D01*
X117989711Y-135121789D01*
X118120814Y-135209390D01*
X118120827Y-135209397D01*
X118266498Y-135269735D01*
X118266503Y-135269737D01*
X118421153Y-135300499D01*
X118421156Y-135300500D01*
X118421158Y-135300500D01*
X118578844Y-135300500D01*
X118578845Y-135300499D01*
X118733497Y-135269737D01*
X118879179Y-135209394D01*
X119010289Y-135121789D01*
X119121789Y-135010289D01*
X119209394Y-134879179D01*
X119212456Y-134871788D01*
X119258637Y-134760294D01*
X119269737Y-134733497D01*
X119300500Y-134578842D01*
X119300500Y-134424500D01*
X119320185Y-134357461D01*
X119372989Y-134311706D01*
X119424500Y-134300500D01*
X119578844Y-134300500D01*
X119578845Y-134300499D01*
X119733497Y-134269737D01*
X119879179Y-134209394D01*
X120010289Y-134121789D01*
X120121789Y-134010289D01*
X120209394Y-133879179D01*
X120212456Y-133871788D01*
X120223067Y-133846166D01*
X120269737Y-133733497D01*
X120300500Y-133578842D01*
X120300500Y-133421158D01*
X120300500Y-133421155D01*
X120300499Y-133421153D01*
X120291719Y-133377013D01*
X120269737Y-133266503D01*
X120246082Y-133209394D01*
X120230243Y-133171155D01*
X178699500Y-133171155D01*
X178699500Y-133328848D01*
X178730261Y-133483491D01*
X178730264Y-133483503D01*
X178790602Y-133629174D01*
X178790609Y-133629187D01*
X178878210Y-133760290D01*
X178878213Y-133760294D01*
X178989707Y-133871788D01*
X178989711Y-133871791D01*
X179120814Y-133959392D01*
X179120827Y-133959399D01*
X179258683Y-134016500D01*
X179266503Y-134019739D01*
X179421153Y-134050501D01*
X179421156Y-134050502D01*
X179421158Y-134050502D01*
X179578844Y-134050502D01*
X179578845Y-134050501D01*
X179733497Y-134019739D01*
X179879179Y-133959396D01*
X180010289Y-133871791D01*
X180121789Y-133760291D01*
X180209394Y-133629181D01*
X180269737Y-133483499D01*
X180300500Y-133328844D01*
X180300500Y-133171160D01*
X180300500Y-133171157D01*
X180300499Y-133171155D01*
X180269738Y-133016512D01*
X180269737Y-133016505D01*
X180212858Y-132879185D01*
X180209397Y-132870829D01*
X180209390Y-132870816D01*
X180121789Y-132739713D01*
X180121786Y-132739709D01*
X180010292Y-132628215D01*
X180010288Y-132628212D01*
X179879185Y-132540611D01*
X179879176Y-132540606D01*
X179852669Y-132529627D01*
X179852667Y-132529626D01*
X179733501Y-132480266D01*
X179733489Y-132480263D01*
X179578845Y-132449502D01*
X179578842Y-132449502D01*
X179421158Y-132449502D01*
X179421155Y-132449502D01*
X179266510Y-132480263D01*
X179266498Y-132480266D01*
X179120827Y-132540604D01*
X179120814Y-132540611D01*
X178989711Y-132628212D01*
X178989707Y-132628215D01*
X178878213Y-132739709D01*
X178878210Y-132739713D01*
X178790609Y-132870816D01*
X178790602Y-132870829D01*
X178730264Y-133016500D01*
X178730261Y-133016512D01*
X178699500Y-133171155D01*
X120230243Y-133171155D01*
X120209397Y-133120827D01*
X120209390Y-133120814D01*
X120121789Y-132989711D01*
X120121786Y-132989707D01*
X120010292Y-132878213D01*
X120010288Y-132878210D01*
X119879185Y-132790609D01*
X119879172Y-132790602D01*
X119733501Y-132730264D01*
X119733489Y-132730261D01*
X119578845Y-132699500D01*
X119578842Y-132699500D01*
X119421158Y-132699500D01*
X119421155Y-132699500D01*
X119266510Y-132730261D01*
X119266498Y-132730264D01*
X119120827Y-132790602D01*
X119120814Y-132790609D01*
X118989711Y-132878210D01*
X118989707Y-132878213D01*
X118878213Y-132989707D01*
X118878210Y-132989711D01*
X118790609Y-133120814D01*
X118790602Y-133120827D01*
X118730264Y-133266498D01*
X118730261Y-133266510D01*
X118699500Y-133421153D01*
X118699500Y-133575500D01*
X118679815Y-133642539D01*
X118627011Y-133688294D01*
X118575500Y-133699500D01*
X118421155Y-133699500D01*
X118266510Y-133730261D01*
X118266498Y-133730264D01*
X118120827Y-133790602D01*
X118120814Y-133790609D01*
X117989711Y-133878210D01*
X117989707Y-133878213D01*
X117878213Y-133989707D01*
X117878210Y-133989711D01*
X117790609Y-134120814D01*
X117790602Y-134120827D01*
X117730264Y-134266498D01*
X117730261Y-134266510D01*
X117699500Y-134421153D01*
X101286660Y-134421153D01*
X102286660Y-133421153D01*
X114199500Y-133421153D01*
X114199500Y-133578846D01*
X114230261Y-133733489D01*
X114230264Y-133733501D01*
X114290602Y-133879172D01*
X114290609Y-133879185D01*
X114378210Y-134010288D01*
X114378213Y-134010292D01*
X114489707Y-134121786D01*
X114489711Y-134121789D01*
X114620814Y-134209390D01*
X114620827Y-134209397D01*
X114758683Y-134266498D01*
X114766503Y-134269737D01*
X114921153Y-134300499D01*
X114921156Y-134300500D01*
X114921158Y-134300500D01*
X115078844Y-134300500D01*
X115078845Y-134300499D01*
X115089179Y-134298443D01*
X115114287Y-134293450D01*
X115114292Y-134293449D01*
X115199800Y-134276439D01*
X115233497Y-134269737D01*
X115379179Y-134209394D01*
X115510289Y-134121789D01*
X115621789Y-134010289D01*
X115709394Y-133879179D01*
X115712456Y-133871788D01*
X115723067Y-133846166D01*
X115769737Y-133733497D01*
X115800500Y-133578842D01*
X115800500Y-133421158D01*
X115800500Y-133421155D01*
X115800499Y-133421153D01*
X115791719Y-133377013D01*
X115769737Y-133266503D01*
X115709794Y-133121786D01*
X115709397Y-133120827D01*
X115709390Y-133120814D01*
X115621789Y-132989711D01*
X115621786Y-132989707D01*
X115510292Y-132878213D01*
X115510288Y-132878210D01*
X115379185Y-132790609D01*
X115379172Y-132790602D01*
X115233501Y-132730264D01*
X115233489Y-132730261D01*
X115078845Y-132699500D01*
X115078842Y-132699500D01*
X114921158Y-132699500D01*
X114921155Y-132699500D01*
X114766510Y-132730261D01*
X114766498Y-132730264D01*
X114620827Y-132790602D01*
X114620814Y-132790609D01*
X114489711Y-132878210D01*
X114489707Y-132878213D01*
X114378213Y-132989707D01*
X114378210Y-132989711D01*
X114290609Y-133120814D01*
X114290602Y-133120827D01*
X114230264Y-133266498D01*
X114230261Y-133266510D01*
X114199500Y-133421153D01*
X102286660Y-133421153D01*
X103286660Y-132421153D01*
X116199500Y-132421153D01*
X116199500Y-132578846D01*
X116230261Y-132733489D01*
X116230264Y-132733501D01*
X116290602Y-132879172D01*
X116290609Y-132879185D01*
X116378210Y-133010288D01*
X116378213Y-133010292D01*
X116489707Y-133121786D01*
X116489711Y-133121789D01*
X116620814Y-133209390D01*
X116620827Y-133209397D01*
X116758683Y-133266498D01*
X116766503Y-133269737D01*
X116921153Y-133300499D01*
X116921156Y-133300500D01*
X116921158Y-133300500D01*
X117078844Y-133300500D01*
X117078845Y-133300499D01*
X117233497Y-133269737D01*
X117375442Y-133210942D01*
X117379172Y-133209397D01*
X117379172Y-133209396D01*
X117379179Y-133209394D01*
X117510289Y-133121789D01*
X117621789Y-133010289D01*
X117709394Y-132879179D01*
X117769737Y-132733497D01*
X117800500Y-132578842D01*
X117800500Y-132421158D01*
X117800500Y-132421155D01*
X117800499Y-132421153D01*
X180752533Y-132421153D01*
X180752533Y-132578846D01*
X180783294Y-132733489D01*
X180783297Y-132733501D01*
X180843635Y-132879172D01*
X180843642Y-132879185D01*
X180931243Y-133010288D01*
X180931246Y-133010292D01*
X181042740Y-133121786D01*
X181042744Y-133121789D01*
X181173847Y-133209390D01*
X181173860Y-133209397D01*
X181311716Y-133266498D01*
X181319536Y-133269737D01*
X181474186Y-133300499D01*
X181474189Y-133300500D01*
X181577102Y-133300500D01*
X181644141Y-133320185D01*
X181689896Y-133372989D01*
X181699840Y-133442147D01*
X181670815Y-133505703D01*
X181624556Y-133539060D01*
X181620829Y-133540603D01*
X181620814Y-133540611D01*
X181489711Y-133628212D01*
X181489707Y-133628215D01*
X181378213Y-133739709D01*
X181378210Y-133739713D01*
X181290609Y-133870816D01*
X181290602Y-133870829D01*
X181230264Y-134016500D01*
X181230261Y-134016512D01*
X181199500Y-134171155D01*
X181199500Y-134328848D01*
X181230261Y-134483491D01*
X181230264Y-134483503D01*
X181290602Y-134629174D01*
X181290609Y-134629187D01*
X181378210Y-134760290D01*
X181378213Y-134760294D01*
X181489707Y-134871788D01*
X181489711Y-134871791D01*
X181620814Y-134959392D01*
X181620827Y-134959399D01*
X181766498Y-135019737D01*
X181766503Y-135019739D01*
X181921153Y-135050501D01*
X181921156Y-135050502D01*
X181921158Y-135050502D01*
X182078844Y-135050502D01*
X182078845Y-135050501D01*
X182233497Y-135019739D01*
X182379179Y-134959396D01*
X182510289Y-134871791D01*
X182621789Y-134760291D01*
X182709394Y-134629181D01*
X182769737Y-134483499D01*
X182800500Y-134328844D01*
X182800500Y-134171160D01*
X182800500Y-134171157D01*
X182800499Y-134171155D01*
X182769738Y-134016512D01*
X182769737Y-134016505D01*
X182712858Y-133879185D01*
X182709397Y-133870829D01*
X182709390Y-133870816D01*
X182621789Y-133739713D01*
X182621786Y-133739709D01*
X182510292Y-133628215D01*
X182510288Y-133628212D01*
X182379185Y-133540611D01*
X182379172Y-133540604D01*
X182233501Y-133480266D01*
X182233489Y-133480263D01*
X182078845Y-133449502D01*
X182078842Y-133449502D01*
X181975931Y-133449502D01*
X181908892Y-133429817D01*
X181863137Y-133377013D01*
X181853193Y-133307855D01*
X181882218Y-133244299D01*
X181928477Y-133210942D01*
X181932203Y-133209398D01*
X181932205Y-133209396D01*
X181932212Y-133209394D01*
X181989441Y-133171155D01*
X183199500Y-133171155D01*
X183199500Y-133328848D01*
X183230261Y-133483491D01*
X183230264Y-133483503D01*
X183290602Y-133629174D01*
X183290609Y-133629187D01*
X183378210Y-133760290D01*
X183378213Y-133760294D01*
X183489707Y-133871788D01*
X183489711Y-133871791D01*
X183620814Y-133959392D01*
X183620827Y-133959399D01*
X183758683Y-134016500D01*
X183766503Y-134019739D01*
X183921153Y-134050501D01*
X183921156Y-134050502D01*
X183921158Y-134050502D01*
X184078844Y-134050502D01*
X184078845Y-134050501D01*
X184233497Y-134019739D01*
X184379179Y-133959396D01*
X184510289Y-133871791D01*
X184621789Y-133760291D01*
X184709394Y-133629181D01*
X184769737Y-133483499D01*
X184800500Y-133328844D01*
X184800500Y-133171160D01*
X184800500Y-133171157D01*
X184800499Y-133171155D01*
X184769738Y-133016512D01*
X184769737Y-133016505D01*
X184712858Y-132879185D01*
X184709397Y-132870829D01*
X184709390Y-132870816D01*
X184621789Y-132739713D01*
X184621786Y-132739709D01*
X184510292Y-132628215D01*
X184510288Y-132628212D01*
X184379185Y-132540611D01*
X184379172Y-132540604D01*
X184233501Y-132480266D01*
X184233489Y-132480263D01*
X184078845Y-132449502D01*
X184078842Y-132449502D01*
X183921158Y-132449502D01*
X183921155Y-132449502D01*
X183766510Y-132480263D01*
X183766498Y-132480266D01*
X183620827Y-132540604D01*
X183620814Y-132540611D01*
X183489711Y-132628212D01*
X183489707Y-132628215D01*
X183378213Y-132739709D01*
X183378210Y-132739713D01*
X183290609Y-132870816D01*
X183290602Y-132870829D01*
X183230264Y-133016500D01*
X183230261Y-133016512D01*
X183199500Y-133171155D01*
X181989441Y-133171155D01*
X182063322Y-133121789D01*
X182064297Y-133120814D01*
X182107725Y-133077387D01*
X182174819Y-133010292D01*
X182174822Y-133010289D01*
X182262427Y-132879179D01*
X182322770Y-132733497D01*
X182353533Y-132578842D01*
X182353533Y-132421158D01*
X182353533Y-132421155D01*
X182353532Y-132421153D01*
X182322771Y-132266510D01*
X182322770Y-132266503D01*
X182322768Y-132266498D01*
X182262430Y-132120827D01*
X182262423Y-132120814D01*
X182174822Y-131989711D01*
X182174819Y-131989707D01*
X182063325Y-131878213D01*
X182063321Y-131878210D01*
X181932218Y-131790609D01*
X181932205Y-131790602D01*
X181786534Y-131730264D01*
X181786522Y-131730261D01*
X181631878Y-131699500D01*
X181631875Y-131699500D01*
X181474191Y-131699500D01*
X181474188Y-131699500D01*
X181319543Y-131730261D01*
X181319531Y-131730264D01*
X181173860Y-131790602D01*
X181173847Y-131790609D01*
X181042744Y-131878210D01*
X181042740Y-131878213D01*
X180931246Y-131989707D01*
X180931243Y-131989711D01*
X180843642Y-132120814D01*
X180843635Y-132120827D01*
X180783297Y-132266498D01*
X180783294Y-132266510D01*
X180752533Y-132421153D01*
X117800499Y-132421153D01*
X117769738Y-132266510D01*
X117769737Y-132266503D01*
X117769735Y-132266498D01*
X117709397Y-132120827D01*
X117709390Y-132120814D01*
X117621789Y-131989711D01*
X117621786Y-131989707D01*
X117510292Y-131878213D01*
X117510288Y-131878210D01*
X117379185Y-131790609D01*
X117379172Y-131790602D01*
X117233501Y-131730264D01*
X117233489Y-131730261D01*
X117078845Y-131699500D01*
X117078842Y-131699500D01*
X116921158Y-131699500D01*
X116921155Y-131699500D01*
X116766510Y-131730261D01*
X116766498Y-131730264D01*
X116620827Y-131790602D01*
X116620814Y-131790609D01*
X116489711Y-131878210D01*
X116489707Y-131878213D01*
X116378213Y-131989707D01*
X116378210Y-131989711D01*
X116290609Y-132120814D01*
X116290602Y-132120827D01*
X116230264Y-132266498D01*
X116230261Y-132266510D01*
X116199500Y-132421153D01*
X103286660Y-132421153D01*
X104786660Y-130921153D01*
X119965000Y-130921153D01*
X119965000Y-131078846D01*
X119995761Y-131233489D01*
X119995764Y-131233501D01*
X120056102Y-131379172D01*
X120056109Y-131379185D01*
X120143710Y-131510288D01*
X120143713Y-131510292D01*
X120255207Y-131621786D01*
X120255211Y-131621789D01*
X120386314Y-131709390D01*
X120386327Y-131709397D01*
X120531998Y-131769735D01*
X120532003Y-131769737D01*
X120686653Y-131800499D01*
X120686656Y-131800500D01*
X120686658Y-131800500D01*
X120844344Y-131800500D01*
X120844345Y-131800499D01*
X120998997Y-131769737D01*
X121144679Y-131709394D01*
X121275789Y-131621789D01*
X121387289Y-131510289D01*
X121474894Y-131379179D01*
X121535237Y-131233497D01*
X121566000Y-131078842D01*
X121566000Y-130921158D01*
X121566000Y-130921155D01*
X121565999Y-130921153D01*
X121550751Y-130844498D01*
X121535237Y-130766503D01*
X121535235Y-130766498D01*
X121474897Y-130620827D01*
X121474889Y-130620812D01*
X121457614Y-130594959D01*
X121457613Y-130594958D01*
X121415649Y-130532154D01*
X184975000Y-130532154D01*
X184975000Y-130689847D01*
X185005761Y-130844490D01*
X185005764Y-130844502D01*
X185066102Y-130990173D01*
X185066109Y-130990186D01*
X185153710Y-131121289D01*
X185153713Y-131121293D01*
X185265207Y-131232787D01*
X185265211Y-131232790D01*
X185396314Y-131320391D01*
X185396327Y-131320398D01*
X185541998Y-131380736D01*
X185542003Y-131380738D01*
X185696653Y-131411500D01*
X185696656Y-131411501D01*
X185696658Y-131411501D01*
X185854344Y-131411501D01*
X185854345Y-131411500D01*
X186008997Y-131380738D01*
X186154679Y-131320395D01*
X186285789Y-131232790D01*
X186397289Y-131121290D01*
X186484894Y-130990180D01*
X186545237Y-130844498D01*
X186576000Y-130689843D01*
X186576000Y-130532159D01*
X186576000Y-130532156D01*
X186575999Y-130532154D01*
X186545237Y-130377504D01*
X186545235Y-130377499D01*
X186484897Y-130231828D01*
X186484890Y-130231815D01*
X186397289Y-130100712D01*
X186397286Y-130100708D01*
X186285792Y-129989214D01*
X186285788Y-129989211D01*
X186154685Y-129901610D01*
X186154672Y-129901603D01*
X186009001Y-129841265D01*
X186008989Y-129841262D01*
X185854345Y-129810501D01*
X185854342Y-129810501D01*
X185696658Y-129810501D01*
X185696655Y-129810501D01*
X185542010Y-129841262D01*
X185541998Y-129841265D01*
X185396327Y-129901603D01*
X185396314Y-129901610D01*
X185265211Y-129989211D01*
X185265207Y-129989214D01*
X185153713Y-130100708D01*
X185153710Y-130100712D01*
X185066109Y-130231815D01*
X185066102Y-130231828D01*
X185005764Y-130377499D01*
X185005761Y-130377511D01*
X184975000Y-130532154D01*
X121415649Y-130532154D01*
X121387289Y-130489710D01*
X121275792Y-130378213D01*
X121275788Y-130378210D01*
X121144685Y-130290609D01*
X121144672Y-130290602D01*
X120999001Y-130230264D01*
X120998989Y-130230261D01*
X120844345Y-130199500D01*
X120844342Y-130199500D01*
X120686658Y-130199500D01*
X120686655Y-130199500D01*
X120532010Y-130230261D01*
X120531998Y-130230264D01*
X120386327Y-130290602D01*
X120386314Y-130290609D01*
X120255211Y-130378210D01*
X120255207Y-130378213D01*
X120143713Y-130489707D01*
X120143710Y-130489711D01*
X120056109Y-130620814D01*
X120056102Y-130620827D01*
X119995764Y-130766498D01*
X119995761Y-130766510D01*
X119965000Y-130921153D01*
X104786660Y-130921153D01*
X106786661Y-128921153D01*
X114924500Y-128921153D01*
X114924500Y-129078846D01*
X114955261Y-129233489D01*
X114955264Y-129233501D01*
X115015602Y-129379172D01*
X115015609Y-129379185D01*
X115103210Y-129510288D01*
X115103213Y-129510292D01*
X115214707Y-129621786D01*
X115214711Y-129621789D01*
X115345814Y-129709390D01*
X115345827Y-129709397D01*
X115491498Y-129769735D01*
X115491503Y-129769737D01*
X115646153Y-129800499D01*
X115646156Y-129800500D01*
X115646158Y-129800500D01*
X115803844Y-129800500D01*
X115803845Y-129800499D01*
X115958497Y-129769737D01*
X116104179Y-129709394D01*
X116235289Y-129621789D01*
X116346789Y-129510289D01*
X116434394Y-129379179D01*
X116494737Y-129233497D01*
X116525500Y-129078842D01*
X116525500Y-128921158D01*
X116525500Y-128921155D01*
X116525499Y-128921153D01*
X116494737Y-128766503D01*
X116470440Y-128707845D01*
X116434397Y-128620827D01*
X116434391Y-128620816D01*
X116429140Y-128612957D01*
X116429139Y-128612956D01*
X116387176Y-128550154D01*
X180799000Y-128550154D01*
X180799000Y-128707847D01*
X180829761Y-128862490D01*
X180829764Y-128862502D01*
X180890102Y-129008173D01*
X180890109Y-129008186D01*
X180977710Y-129139289D01*
X180977713Y-129139293D01*
X181089207Y-129250787D01*
X181089211Y-129250790D01*
X181220314Y-129338391D01*
X181220327Y-129338398D01*
X181365998Y-129398736D01*
X181366003Y-129398738D01*
X181520653Y-129429500D01*
X181520656Y-129429501D01*
X181520658Y-129429501D01*
X181678344Y-129429501D01*
X181678345Y-129429500D01*
X181832997Y-129398738D01*
X181978679Y-129338395D01*
X182109789Y-129250790D01*
X182221289Y-129139290D01*
X182308894Y-129008180D01*
X182369237Y-128862498D01*
X182400000Y-128707843D01*
X182400000Y-128550159D01*
X182400000Y-128550156D01*
X182399999Y-128550154D01*
X182369238Y-128395511D01*
X182369237Y-128395504D01*
X182362074Y-128378210D01*
X182308897Y-128249828D01*
X182308890Y-128249815D01*
X182221289Y-128118712D01*
X182221286Y-128118708D01*
X182109792Y-128007214D01*
X182109788Y-128007211D01*
X181978685Y-127919610D01*
X181978672Y-127919603D01*
X181833001Y-127859265D01*
X181832989Y-127859262D01*
X181678345Y-127828501D01*
X181678342Y-127828501D01*
X181520658Y-127828501D01*
X181520655Y-127828501D01*
X181366010Y-127859262D01*
X181365998Y-127859265D01*
X181220327Y-127919603D01*
X181220314Y-127919610D01*
X181089211Y-128007211D01*
X181089207Y-128007214D01*
X180977713Y-128118708D01*
X180977710Y-128118712D01*
X180890109Y-128249815D01*
X180890102Y-128249828D01*
X180829764Y-128395499D01*
X180829761Y-128395511D01*
X180799000Y-128550154D01*
X116387176Y-128550154D01*
X116346789Y-128489711D01*
X116346786Y-128489707D01*
X116235292Y-128378213D01*
X116235288Y-128378210D01*
X116104185Y-128290609D01*
X116104172Y-128290602D01*
X115958501Y-128230264D01*
X115958489Y-128230261D01*
X115803845Y-128199500D01*
X115803842Y-128199500D01*
X115646158Y-128199500D01*
X115646155Y-128199500D01*
X115491510Y-128230261D01*
X115491498Y-128230264D01*
X115345827Y-128290602D01*
X115345814Y-128290609D01*
X115214711Y-128378210D01*
X115214707Y-128378213D01*
X115103213Y-128489707D01*
X115103210Y-128489711D01*
X115015609Y-128620814D01*
X115015602Y-128620827D01*
X114955264Y-128766498D01*
X114955261Y-128766510D01*
X114924500Y-128921153D01*
X106786661Y-128921153D01*
X108786661Y-126921153D01*
X114749500Y-126921153D01*
X114749500Y-127078846D01*
X114780261Y-127233489D01*
X114780264Y-127233501D01*
X114840602Y-127379172D01*
X114840609Y-127379185D01*
X114928210Y-127510288D01*
X114928213Y-127510292D01*
X115039707Y-127621786D01*
X115039711Y-127621789D01*
X115170814Y-127709390D01*
X115170827Y-127709397D01*
X115316498Y-127769735D01*
X115316503Y-127769737D01*
X115471153Y-127800499D01*
X115471156Y-127800500D01*
X115471158Y-127800500D01*
X115628844Y-127800500D01*
X115628845Y-127800499D01*
X115783497Y-127769737D01*
X115929179Y-127709394D01*
X116060289Y-127621789D01*
X116171789Y-127510289D01*
X116259394Y-127379179D01*
X116319737Y-127233497D01*
X116350500Y-127078842D01*
X116350500Y-126921158D01*
X116350500Y-126921155D01*
X116350499Y-126921153D01*
X116319738Y-126766510D01*
X116319737Y-126766503D01*
X116306062Y-126733489D01*
X116259397Y-126620827D01*
X116259390Y-126620814D01*
X116171789Y-126489711D01*
X116171786Y-126489707D01*
X116103232Y-126421153D01*
X181149500Y-126421153D01*
X181149500Y-126578846D01*
X181180261Y-126733489D01*
X181180264Y-126733501D01*
X181240602Y-126879172D01*
X181240609Y-126879185D01*
X181328210Y-127010288D01*
X181328213Y-127010292D01*
X181439707Y-127121786D01*
X181439711Y-127121789D01*
X181570814Y-127209390D01*
X181570827Y-127209397D01*
X181716498Y-127269735D01*
X181716503Y-127269737D01*
X181871153Y-127300499D01*
X181871156Y-127300500D01*
X181871158Y-127300500D01*
X182028844Y-127300500D01*
X182028845Y-127300499D01*
X182183497Y-127269737D01*
X182329179Y-127209394D01*
X182460289Y-127121789D01*
X182571789Y-127010289D01*
X182659394Y-126879179D01*
X182719737Y-126733497D01*
X182750500Y-126578842D01*
X182750500Y-126421158D01*
X182750500Y-126421155D01*
X182750499Y-126421153D01*
X182724531Y-126290606D01*
X182719737Y-126266503D01*
X182713545Y-126251555D01*
X182659397Y-126120827D01*
X182659390Y-126120814D01*
X182571789Y-125989711D01*
X182571786Y-125989707D01*
X182460292Y-125878213D01*
X182460288Y-125878210D01*
X182329185Y-125790609D01*
X182329172Y-125790602D01*
X182183501Y-125730264D01*
X182183489Y-125730261D01*
X182028845Y-125699500D01*
X182028842Y-125699500D01*
X181871158Y-125699500D01*
X181871155Y-125699500D01*
X181716510Y-125730261D01*
X181716498Y-125730264D01*
X181570827Y-125790602D01*
X181570814Y-125790609D01*
X181439711Y-125878210D01*
X181439707Y-125878213D01*
X181328213Y-125989707D01*
X181328210Y-125989711D01*
X181240609Y-126120814D01*
X181240602Y-126120827D01*
X181180264Y-126266498D01*
X181180261Y-126266510D01*
X181149500Y-126421153D01*
X116103232Y-126421153D01*
X116060292Y-126378213D01*
X116060288Y-126378210D01*
X115929185Y-126290609D01*
X115929172Y-126290602D01*
X115783501Y-126230264D01*
X115783489Y-126230261D01*
X115628845Y-126199500D01*
X115628842Y-126199500D01*
X115471158Y-126199500D01*
X115471155Y-126199500D01*
X115316510Y-126230261D01*
X115316498Y-126230264D01*
X115170827Y-126290602D01*
X115170814Y-126290609D01*
X115039711Y-126378210D01*
X115039707Y-126378213D01*
X114928213Y-126489707D01*
X114928210Y-126489711D01*
X114840609Y-126620814D01*
X114840602Y-126620827D01*
X114780264Y-126766498D01*
X114780261Y-126766510D01*
X114749500Y-126921153D01*
X108786661Y-126921153D01*
X110400500Y-125307314D01*
X110466392Y-125193186D01*
X110500500Y-125065892D01*
X110500500Y-124934108D01*
X110500500Y-124893713D01*
X138649500Y-124893713D01*
X138649500Y-125106286D01*
X138682753Y-125316239D01*
X138748444Y-125518414D01*
X138844951Y-125707820D01*
X138969890Y-125879786D01*
X139120213Y-126030109D01*
X139292179Y-126155048D01*
X139292181Y-126155049D01*
X139292184Y-126155051D01*
X139481588Y-126251557D01*
X139683757Y-126317246D01*
X139893713Y-126350500D01*
X139893714Y-126350500D01*
X140106286Y-126350500D01*
X140106287Y-126350500D01*
X140316243Y-126317246D01*
X140518412Y-126251557D01*
X140707816Y-126155051D01*
X140754940Y-126120814D01*
X140879786Y-126030109D01*
X140879788Y-126030106D01*
X140879792Y-126030104D01*
X141030104Y-125879792D01*
X141030106Y-125879788D01*
X141030109Y-125879786D01*
X141155048Y-125707820D01*
X141155047Y-125707820D01*
X141155051Y-125707816D01*
X141251557Y-125518412D01*
X141317246Y-125316243D01*
X141350500Y-125106287D01*
X141350500Y-124893713D01*
X158649500Y-124893713D01*
X158649500Y-125106286D01*
X158682753Y-125316239D01*
X158748444Y-125518414D01*
X158844951Y-125707820D01*
X158969890Y-125879786D01*
X159120213Y-126030109D01*
X159292179Y-126155048D01*
X159292181Y-126155049D01*
X159292184Y-126155051D01*
X159481588Y-126251557D01*
X159683757Y-126317246D01*
X159893713Y-126350500D01*
X159893714Y-126350500D01*
X160106286Y-126350500D01*
X160106287Y-126350500D01*
X160316243Y-126317246D01*
X160518412Y-126251557D01*
X160707816Y-126155051D01*
X160754940Y-126120814D01*
X160879786Y-126030109D01*
X160879788Y-126030106D01*
X160879792Y-126030104D01*
X161030104Y-125879792D01*
X161030106Y-125879788D01*
X161030109Y-125879786D01*
X161155048Y-125707820D01*
X161155047Y-125707820D01*
X161155051Y-125707816D01*
X161251557Y-125518412D01*
X161317246Y-125316243D01*
X161350500Y-125106287D01*
X161350500Y-124893713D01*
X161317246Y-124683757D01*
X161251557Y-124481588D01*
X161155051Y-124292184D01*
X161155049Y-124292181D01*
X161155048Y-124292179D01*
X161030109Y-124120213D01*
X160879786Y-123969890D01*
X160707820Y-123844951D01*
X160518414Y-123748444D01*
X160518413Y-123748443D01*
X160518412Y-123748443D01*
X160316243Y-123682754D01*
X160316241Y-123682753D01*
X160316240Y-123682753D01*
X160154957Y-123657208D01*
X160106287Y-123649500D01*
X159893713Y-123649500D01*
X159845042Y-123657208D01*
X159683760Y-123682753D01*
X159481585Y-123748444D01*
X159292179Y-123844951D01*
X159120213Y-123969890D01*
X158969890Y-124120213D01*
X158844951Y-124292179D01*
X158748444Y-124481585D01*
X158682753Y-124683760D01*
X158649500Y-124893713D01*
X141350500Y-124893713D01*
X141317246Y-124683757D01*
X141251557Y-124481588D01*
X141155051Y-124292184D01*
X141155049Y-124292181D01*
X141155048Y-124292179D01*
X141030109Y-124120213D01*
X140879786Y-123969890D01*
X140707820Y-123844951D01*
X140518414Y-123748444D01*
X140518413Y-123748443D01*
X140518412Y-123748443D01*
X140316243Y-123682754D01*
X140316241Y-123682753D01*
X140316240Y-123682753D01*
X140154957Y-123657208D01*
X140106287Y-123649500D01*
X139893713Y-123649500D01*
X139845042Y-123657208D01*
X139683760Y-123682753D01*
X139481585Y-123748444D01*
X139292179Y-123844951D01*
X139120213Y-123969890D01*
X138969890Y-124120213D01*
X138844951Y-124292179D01*
X138748444Y-124481585D01*
X138682753Y-124683760D01*
X138649500Y-124893713D01*
X110500500Y-124893713D01*
X110500500Y-114893713D01*
X138649500Y-114893713D01*
X138649500Y-115106286D01*
X138682753Y-115316239D01*
X138748444Y-115518414D01*
X138844951Y-115707820D01*
X138969890Y-115879786D01*
X139120213Y-116030109D01*
X139292179Y-116155048D01*
X139292181Y-116155049D01*
X139292184Y-116155051D01*
X139481588Y-116251557D01*
X139683757Y-116317246D01*
X139893713Y-116350500D01*
X139893714Y-116350500D01*
X140106286Y-116350500D01*
X140106287Y-116350500D01*
X140316243Y-116317246D01*
X140518412Y-116251557D01*
X140707816Y-116155051D01*
X140729789Y-116139086D01*
X140879786Y-116030109D01*
X140879788Y-116030106D01*
X140879792Y-116030104D01*
X141030104Y-115879792D01*
X141030106Y-115879788D01*
X141030109Y-115879786D01*
X141155048Y-115707820D01*
X141155047Y-115707820D01*
X141155051Y-115707816D01*
X141251557Y-115518412D01*
X141317246Y-115316243D01*
X141350500Y-115106287D01*
X141350500Y-114893713D01*
X158649500Y-114893713D01*
X158649500Y-115106286D01*
X158682753Y-115316239D01*
X158748444Y-115518414D01*
X158844951Y-115707820D01*
X158969890Y-115879786D01*
X159120213Y-116030109D01*
X159292179Y-116155048D01*
X159292181Y-116155049D01*
X159292184Y-116155051D01*
X159481588Y-116251557D01*
X159683757Y-116317246D01*
X159893713Y-116350500D01*
X159893714Y-116350500D01*
X160106286Y-116350500D01*
X160106287Y-116350500D01*
X160316243Y-116317246D01*
X160518412Y-116251557D01*
X160707816Y-116155051D01*
X160729789Y-116139086D01*
X160879786Y-116030109D01*
X160879788Y-116030106D01*
X160879792Y-116030104D01*
X161030104Y-115879792D01*
X161030106Y-115879788D01*
X161030109Y-115879786D01*
X161155048Y-115707820D01*
X161155047Y-115707820D01*
X161155051Y-115707816D01*
X161251557Y-115518412D01*
X161317246Y-115316243D01*
X161350500Y-115106287D01*
X161350500Y-114893713D01*
X161317246Y-114683757D01*
X161251557Y-114481588D01*
X161155051Y-114292184D01*
X161155049Y-114292181D01*
X161155048Y-114292179D01*
X161030109Y-114120213D01*
X160879786Y-113969890D01*
X160707820Y-113844951D01*
X160518414Y-113748444D01*
X160518413Y-113748443D01*
X160518412Y-113748443D01*
X160316243Y-113682754D01*
X160316241Y-113682753D01*
X160316240Y-113682753D01*
X160154957Y-113657208D01*
X160106287Y-113649500D01*
X159893713Y-113649500D01*
X159845042Y-113657208D01*
X159683760Y-113682753D01*
X159481585Y-113748444D01*
X159292179Y-113844951D01*
X159120213Y-113969890D01*
X158969890Y-114120213D01*
X158844951Y-114292179D01*
X158748444Y-114481585D01*
X158682753Y-114683760D01*
X158649500Y-114893713D01*
X141350500Y-114893713D01*
X141317246Y-114683757D01*
X141251557Y-114481588D01*
X141155051Y-114292184D01*
X141155049Y-114292181D01*
X141155048Y-114292179D01*
X141030109Y-114120213D01*
X140879786Y-113969890D01*
X140707820Y-113844951D01*
X140518414Y-113748444D01*
X140518413Y-113748443D01*
X140518412Y-113748443D01*
X140316243Y-113682754D01*
X140316241Y-113682753D01*
X140316240Y-113682753D01*
X140154957Y-113657208D01*
X140106287Y-113649500D01*
X139893713Y-113649500D01*
X139845042Y-113657208D01*
X139683760Y-113682753D01*
X139481585Y-113748444D01*
X139292179Y-113844951D01*
X139120213Y-113969890D01*
X138969890Y-114120213D01*
X138844951Y-114292179D01*
X138748444Y-114481585D01*
X138682753Y-114683760D01*
X138649500Y-114893713D01*
X110500500Y-114893713D01*
X110500500Y-106871153D01*
X181829500Y-106871153D01*
X181829500Y-107028846D01*
X181860261Y-107183489D01*
X181860264Y-107183501D01*
X181920602Y-107329172D01*
X181920609Y-107329185D01*
X182008210Y-107460288D01*
X182008213Y-107460292D01*
X182119707Y-107571786D01*
X182119711Y-107571789D01*
X182250814Y-107659390D01*
X182250827Y-107659397D01*
X182396498Y-107719735D01*
X182396503Y-107719737D01*
X182551153Y-107750499D01*
X182551156Y-107750500D01*
X182551158Y-107750500D01*
X182708844Y-107750500D01*
X182708845Y-107750499D01*
X182863497Y-107719737D01*
X183009179Y-107659394D01*
X183140289Y-107571789D01*
X183251789Y-107460289D01*
X183339394Y-107329179D01*
X183399737Y-107183497D01*
X183430500Y-107028842D01*
X183430500Y-106871158D01*
X183430500Y-106871155D01*
X183430499Y-106871153D01*
X183410326Y-106769737D01*
X183399737Y-106716503D01*
X183381215Y-106671786D01*
X183339397Y-106570827D01*
X183339390Y-106570814D01*
X183251789Y-106439711D01*
X183251786Y-106439707D01*
X183140292Y-106328213D01*
X183140288Y-106328210D01*
X183009185Y-106240609D01*
X183009172Y-106240602D01*
X182863501Y-106180264D01*
X182863489Y-106180261D01*
X182708845Y-106149500D01*
X182708842Y-106149500D01*
X182551158Y-106149500D01*
X182551155Y-106149500D01*
X182396510Y-106180261D01*
X182396498Y-106180264D01*
X182250827Y-106240602D01*
X182250814Y-106240609D01*
X182119711Y-106328210D01*
X182119707Y-106328213D01*
X182008213Y-106439707D01*
X182008210Y-106439711D01*
X181920609Y-106570814D01*
X181920602Y-106570827D01*
X181860264Y-106716498D01*
X181860261Y-106716510D01*
X181829500Y-106871153D01*
X110500500Y-106871153D01*
X110500500Y-105921153D01*
X170949500Y-105921153D01*
X170949500Y-106078846D01*
X170980261Y-106233489D01*
X170980264Y-106233501D01*
X171040602Y-106379172D01*
X171040609Y-106379185D01*
X171128210Y-106510288D01*
X171128213Y-106510292D01*
X171239707Y-106621786D01*
X171239711Y-106621789D01*
X171370814Y-106709390D01*
X171370827Y-106709397D01*
X171516498Y-106769735D01*
X171516503Y-106769737D01*
X171671153Y-106800499D01*
X171671156Y-106800500D01*
X171671158Y-106800500D01*
X171828844Y-106800500D01*
X171828845Y-106800499D01*
X171983497Y-106769737D01*
X172129179Y-106709394D01*
X172260289Y-106621789D01*
X172371789Y-106510289D01*
X172459394Y-106379179D01*
X172519737Y-106233497D01*
X172550500Y-106078842D01*
X172550500Y-105971153D01*
X176199500Y-105971153D01*
X176199500Y-106128846D01*
X176230261Y-106283489D01*
X176230264Y-106283501D01*
X176290602Y-106429172D01*
X176290609Y-106429185D01*
X176378210Y-106560288D01*
X176378213Y-106560292D01*
X176489707Y-106671786D01*
X176489711Y-106671789D01*
X176620814Y-106759390D01*
X176620827Y-106759397D01*
X176720060Y-106800500D01*
X176766503Y-106819737D01*
X176921153Y-106850499D01*
X176921156Y-106850500D01*
X176921158Y-106850500D01*
X177078844Y-106850500D01*
X177078845Y-106850499D01*
X177233497Y-106819737D01*
X177379179Y-106759394D01*
X177510289Y-106671789D01*
X177621789Y-106560289D01*
X177709394Y-106429179D01*
X177769737Y-106283497D01*
X177800500Y-106128842D01*
X177800500Y-105971158D01*
X177800500Y-105971155D01*
X177794155Y-105939258D01*
X177794155Y-105939257D01*
X177790554Y-105921153D01*
X187494000Y-105921153D01*
X187494000Y-106078846D01*
X187524761Y-106233489D01*
X187524764Y-106233501D01*
X187585102Y-106379172D01*
X187585109Y-106379185D01*
X187672710Y-106510288D01*
X187672713Y-106510292D01*
X187784207Y-106621786D01*
X187784211Y-106621789D01*
X187915314Y-106709390D01*
X187915327Y-106709397D01*
X188060998Y-106769735D01*
X188061003Y-106769737D01*
X188215653Y-106800499D01*
X188215656Y-106800500D01*
X188215658Y-106800500D01*
X188373344Y-106800500D01*
X188373345Y-106800499D01*
X188527997Y-106769737D01*
X188673679Y-106709394D01*
X188804789Y-106621789D01*
X188916289Y-106510289D01*
X189003894Y-106379179D01*
X189064237Y-106233497D01*
X189095000Y-106078842D01*
X189095000Y-105921158D01*
X189095000Y-105921155D01*
X189094999Y-105921153D01*
X189074184Y-105816510D01*
X189064237Y-105766503D01*
X189024602Y-105670814D01*
X189003897Y-105620827D01*
X189003890Y-105620814D01*
X188916289Y-105489711D01*
X188916286Y-105489707D01*
X188804792Y-105378213D01*
X188804788Y-105378210D01*
X188673685Y-105290609D01*
X188673672Y-105290602D01*
X188528001Y-105230264D01*
X188527989Y-105230261D01*
X188373345Y-105199500D01*
X188373342Y-105199500D01*
X188215658Y-105199500D01*
X188215655Y-105199500D01*
X188061010Y-105230261D01*
X188060998Y-105230264D01*
X187915327Y-105290602D01*
X187915314Y-105290609D01*
X187784211Y-105378210D01*
X187784207Y-105378213D01*
X187672713Y-105489707D01*
X187672710Y-105489711D01*
X187585109Y-105620814D01*
X187585102Y-105620827D01*
X187524764Y-105766498D01*
X187524761Y-105766510D01*
X187494000Y-105921153D01*
X177790554Y-105921153D01*
X177769738Y-105816510D01*
X177769737Y-105816503D01*
X177769735Y-105816498D01*
X177709397Y-105670827D01*
X177709390Y-105670814D01*
X177621789Y-105539711D01*
X177621786Y-105539707D01*
X177510292Y-105428213D01*
X177510288Y-105428210D01*
X177379185Y-105340609D01*
X177379172Y-105340602D01*
X177233501Y-105280264D01*
X177233489Y-105280261D01*
X177078845Y-105249500D01*
X177078842Y-105249500D01*
X176921158Y-105249500D01*
X176921155Y-105249500D01*
X176766510Y-105280261D01*
X176766498Y-105280264D01*
X176620827Y-105340602D01*
X176620814Y-105340609D01*
X176489711Y-105428210D01*
X176489707Y-105428213D01*
X176378213Y-105539707D01*
X176378210Y-105539711D01*
X176290609Y-105670814D01*
X176290602Y-105670827D01*
X176230264Y-105816498D01*
X176230261Y-105816510D01*
X176199500Y-105971153D01*
X172550500Y-105971153D01*
X172550500Y-105921158D01*
X172550500Y-105921155D01*
X172550499Y-105921153D01*
X172529684Y-105816510D01*
X172519737Y-105766503D01*
X172480102Y-105670814D01*
X172459397Y-105620827D01*
X172459390Y-105620814D01*
X172371789Y-105489711D01*
X172371786Y-105489707D01*
X172260292Y-105378213D01*
X172260288Y-105378210D01*
X172129185Y-105290609D01*
X172129172Y-105290602D01*
X171983501Y-105230264D01*
X171983489Y-105230261D01*
X171828845Y-105199500D01*
X171828842Y-105199500D01*
X171671158Y-105199500D01*
X171671155Y-105199500D01*
X171516510Y-105230261D01*
X171516498Y-105230264D01*
X171370827Y-105290602D01*
X171370814Y-105290609D01*
X171239711Y-105378210D01*
X171239707Y-105378213D01*
X171128213Y-105489707D01*
X171128210Y-105489711D01*
X171040609Y-105620814D01*
X171040602Y-105620827D01*
X170980264Y-105766498D01*
X170980261Y-105766510D01*
X170949500Y-105921153D01*
X110500500Y-105921153D01*
X110500500Y-103921153D01*
X141924500Y-103921153D01*
X141924500Y-104078846D01*
X141955261Y-104233489D01*
X141955264Y-104233501D01*
X142015602Y-104379172D01*
X142015609Y-104379185D01*
X142103210Y-104510288D01*
X142103213Y-104510292D01*
X142214707Y-104621786D01*
X142214711Y-104621789D01*
X142345814Y-104709390D01*
X142345827Y-104709397D01*
X142491498Y-104769735D01*
X142491503Y-104769737D01*
X142646153Y-104800499D01*
X142646156Y-104800500D01*
X142646158Y-104800500D01*
X142803844Y-104800500D01*
X142803845Y-104800499D01*
X142958497Y-104769737D01*
X143104179Y-104709394D01*
X143235289Y-104621789D01*
X143346789Y-104510289D01*
X143434394Y-104379179D01*
X143494737Y-104233497D01*
X143525500Y-104078842D01*
X143525500Y-103921158D01*
X143525500Y-103921155D01*
X143525499Y-103921153D01*
X143494737Y-103766503D01*
X143473283Y-103714707D01*
X143434397Y-103620827D01*
X143434390Y-103620814D01*
X143346789Y-103489711D01*
X143346786Y-103489707D01*
X143235292Y-103378213D01*
X143235288Y-103378210D01*
X143104185Y-103290609D01*
X143104172Y-103290602D01*
X142958501Y-103230264D01*
X142958489Y-103230261D01*
X142803845Y-103199500D01*
X142803842Y-103199500D01*
X142646158Y-103199500D01*
X142646155Y-103199500D01*
X142491510Y-103230261D01*
X142491498Y-103230264D01*
X142345827Y-103290602D01*
X142345814Y-103290609D01*
X142214711Y-103378210D01*
X142214707Y-103378213D01*
X142103213Y-103489707D01*
X142103210Y-103489711D01*
X142015609Y-103620814D01*
X142015602Y-103620827D01*
X141955264Y-103766498D01*
X141955261Y-103766510D01*
X141924500Y-103921153D01*
X110500500Y-103921153D01*
X110500500Y-102421153D01*
X148699500Y-102421153D01*
X148699500Y-102578846D01*
X148730261Y-102733489D01*
X148730264Y-102733501D01*
X148790602Y-102879172D01*
X148790609Y-102879185D01*
X148878210Y-103010288D01*
X148878213Y-103010292D01*
X148989707Y-103121786D01*
X149027289Y-103146898D01*
X149072093Y-103200511D01*
X149080800Y-103269836D01*
X149050645Y-103332863D01*
X149027289Y-103353102D01*
X148989707Y-103378213D01*
X148878213Y-103489707D01*
X148878210Y-103489711D01*
X148790609Y-103620814D01*
X148790602Y-103620827D01*
X148730264Y-103766498D01*
X148730261Y-103766510D01*
X148699500Y-103921153D01*
X148699500Y-104078846D01*
X148730261Y-104233489D01*
X148730264Y-104233501D01*
X148790602Y-104379172D01*
X148790609Y-104379185D01*
X148878210Y-104510288D01*
X148878213Y-104510292D01*
X148989707Y-104621786D01*
X148989711Y-104621789D01*
X149120814Y-104709390D01*
X149120827Y-104709397D01*
X149266498Y-104769735D01*
X149266503Y-104769737D01*
X149421153Y-104800499D01*
X149421156Y-104800500D01*
X149421158Y-104800500D01*
X149578844Y-104800500D01*
X149578845Y-104800499D01*
X149733497Y-104769737D01*
X149879179Y-104709394D01*
X150010289Y-104621789D01*
X150121789Y-104510289D01*
X150209394Y-104379179D01*
X150269737Y-104233497D01*
X150300500Y-104078842D01*
X150300500Y-103921158D01*
X150300500Y-103921155D01*
X150300499Y-103921153D01*
X150269737Y-103766503D01*
X150248283Y-103714707D01*
X150209397Y-103620827D01*
X150209390Y-103620814D01*
X150121789Y-103489711D01*
X150121786Y-103489707D01*
X150084746Y-103452667D01*
X150051261Y-103391344D01*
X150056245Y-103321652D01*
X150098117Y-103265719D01*
X150163581Y-103241302D01*
X150219878Y-103250424D01*
X150266503Y-103269737D01*
X150421153Y-103300499D01*
X150421156Y-103300500D01*
X150421158Y-103300500D01*
X150578844Y-103300500D01*
X150578845Y-103300499D01*
X150733497Y-103269737D01*
X150780121Y-103250424D01*
X150849588Y-103242956D01*
X150912067Y-103274231D01*
X150947720Y-103334319D01*
X150945227Y-103404144D01*
X150915254Y-103452666D01*
X150878214Y-103489706D01*
X150878210Y-103489711D01*
X150790609Y-103620814D01*
X150790602Y-103620827D01*
X150730264Y-103766498D01*
X150730261Y-103766510D01*
X150699500Y-103921153D01*
X150699500Y-104078846D01*
X150730261Y-104233489D01*
X150730264Y-104233501D01*
X150790602Y-104379172D01*
X150790609Y-104379185D01*
X150878210Y-104510288D01*
X150878213Y-104510292D01*
X150989707Y-104621786D01*
X150989711Y-104621789D01*
X151120814Y-104709390D01*
X151120827Y-104709397D01*
X151266498Y-104769735D01*
X151266503Y-104769737D01*
X151421153Y-104800499D01*
X151421156Y-104800500D01*
X151421158Y-104800500D01*
X151578844Y-104800500D01*
X151578845Y-104800499D01*
X151733497Y-104769737D01*
X151879179Y-104709394D01*
X152010289Y-104621789D01*
X152121789Y-104510289D01*
X152209394Y-104379179D01*
X152269737Y-104233497D01*
X152287111Y-104146153D01*
X179699500Y-104146153D01*
X179699500Y-104303846D01*
X179730261Y-104458489D01*
X179730264Y-104458501D01*
X179790602Y-104604172D01*
X179790609Y-104604185D01*
X179878210Y-104735288D01*
X179878213Y-104735292D01*
X179989707Y-104846786D01*
X179989711Y-104846789D01*
X180120814Y-104934390D01*
X180120827Y-104934397D01*
X180266498Y-104994735D01*
X180266503Y-104994737D01*
X180421153Y-105025499D01*
X180421156Y-105025500D01*
X180421158Y-105025500D01*
X180578844Y-105025500D01*
X180578845Y-105025499D01*
X180733497Y-104994737D01*
X180879179Y-104934394D01*
X181010289Y-104846789D01*
X181121789Y-104735289D01*
X181209394Y-104604179D01*
X181269737Y-104458497D01*
X181300500Y-104303842D01*
X181300500Y-104146158D01*
X181300500Y-104146155D01*
X181300499Y-104146153D01*
X181269738Y-103991510D01*
X181269737Y-103991503D01*
X181269735Y-103991498D01*
X181209397Y-103845827D01*
X181209390Y-103845814D01*
X181121789Y-103714711D01*
X181121786Y-103714707D01*
X181010292Y-103603213D01*
X181010288Y-103603210D01*
X180879185Y-103515609D01*
X180879172Y-103515602D01*
X180733501Y-103455264D01*
X180733489Y-103455261D01*
X180578845Y-103424500D01*
X180578842Y-103424500D01*
X180421158Y-103424500D01*
X180421155Y-103424500D01*
X180266510Y-103455261D01*
X180266498Y-103455264D01*
X180120827Y-103515602D01*
X180120814Y-103515609D01*
X179989711Y-103603210D01*
X179989707Y-103603213D01*
X179878213Y-103714707D01*
X179878210Y-103714711D01*
X179790609Y-103845814D01*
X179790602Y-103845827D01*
X179730264Y-103991498D01*
X179730261Y-103991510D01*
X179699500Y-104146153D01*
X152287111Y-104146153D01*
X152293134Y-104115874D01*
X152300500Y-104078844D01*
X152300500Y-103921155D01*
X152300499Y-103921153D01*
X152269737Y-103766503D01*
X152248283Y-103714707D01*
X152209397Y-103620827D01*
X152209390Y-103620814D01*
X152121789Y-103489711D01*
X152121786Y-103489707D01*
X152010292Y-103378213D01*
X152010288Y-103378210D01*
X151879185Y-103290609D01*
X151879172Y-103290602D01*
X151733501Y-103230264D01*
X151733489Y-103230261D01*
X151578845Y-103199500D01*
X151578842Y-103199500D01*
X151421158Y-103199500D01*
X151421155Y-103199500D01*
X151266510Y-103230261D01*
X151266502Y-103230263D01*
X151219878Y-103249575D01*
X151150408Y-103257042D01*
X151087930Y-103225766D01*
X151052278Y-103165677D01*
X151054773Y-103095852D01*
X151084747Y-103047331D01*
X151121786Y-103010292D01*
X151121789Y-103010289D01*
X151209394Y-102879179D01*
X151269737Y-102733497D01*
X151300500Y-102578842D01*
X151300500Y-102421158D01*
X151300500Y-102421155D01*
X151300499Y-102421153D01*
X155474500Y-102421153D01*
X155474500Y-102578846D01*
X155505261Y-102733489D01*
X155505264Y-102733501D01*
X155565602Y-102879172D01*
X155565609Y-102879185D01*
X155653210Y-103010288D01*
X155653213Y-103010292D01*
X155764707Y-103121786D01*
X155764711Y-103121789D01*
X155895814Y-103209390D01*
X155895827Y-103209397D01*
X156041498Y-103269735D01*
X156041503Y-103269737D01*
X156196153Y-103300499D01*
X156196156Y-103300500D01*
X156196158Y-103300500D01*
X156353844Y-103300500D01*
X156353845Y-103300499D01*
X156508497Y-103269737D01*
X156654179Y-103209394D01*
X156785289Y-103121789D01*
X156896789Y-103010289D01*
X156984394Y-102879179D01*
X157044737Y-102733497D01*
X157075500Y-102578842D01*
X157075500Y-102421158D01*
X157075500Y-102421155D01*
X157075499Y-102421153D01*
X157044738Y-102266510D01*
X157044737Y-102266503D01*
X157044735Y-102266498D01*
X156984397Y-102120827D01*
X156984390Y-102120814D01*
X156896789Y-101989711D01*
X156896786Y-101989707D01*
X156785292Y-101878213D01*
X156785288Y-101878210D01*
X156654185Y-101790609D01*
X156654172Y-101790602D01*
X156508501Y-101730264D01*
X156508489Y-101730261D01*
X156353845Y-101699500D01*
X156353842Y-101699500D01*
X156196158Y-101699500D01*
X156196155Y-101699500D01*
X156041510Y-101730261D01*
X156041498Y-101730264D01*
X155895827Y-101790602D01*
X155895814Y-101790609D01*
X155764711Y-101878210D01*
X155764707Y-101878213D01*
X155653213Y-101989707D01*
X155653210Y-101989711D01*
X155565609Y-102120814D01*
X155565602Y-102120827D01*
X155505264Y-102266498D01*
X155505261Y-102266510D01*
X155474500Y-102421153D01*
X151300499Y-102421153D01*
X151269738Y-102266510D01*
X151269737Y-102266503D01*
X151269735Y-102266498D01*
X151209397Y-102120827D01*
X151209390Y-102120814D01*
X151121789Y-101989711D01*
X151121786Y-101989707D01*
X151010292Y-101878213D01*
X151010288Y-101878210D01*
X150879185Y-101790609D01*
X150879172Y-101790602D01*
X150733501Y-101730264D01*
X150733489Y-101730261D01*
X150578845Y-101699500D01*
X150578842Y-101699500D01*
X150421158Y-101699500D01*
X150421155Y-101699500D01*
X150266510Y-101730261D01*
X150266498Y-101730264D01*
X150120827Y-101790602D01*
X150120814Y-101790609D01*
X150068891Y-101825304D01*
X150002214Y-101846182D01*
X149934833Y-101827698D01*
X149931109Y-101825304D01*
X149879185Y-101790609D01*
X149879172Y-101790602D01*
X149733501Y-101730264D01*
X149733489Y-101730261D01*
X149578845Y-101699500D01*
X149578842Y-101699500D01*
X149421158Y-101699500D01*
X149421155Y-101699500D01*
X149266510Y-101730261D01*
X149266498Y-101730264D01*
X149120827Y-101790602D01*
X149120814Y-101790609D01*
X148989711Y-101878210D01*
X148989707Y-101878213D01*
X148878213Y-101989707D01*
X148878210Y-101989711D01*
X148790609Y-102120814D01*
X148790602Y-102120827D01*
X148730264Y-102266498D01*
X148730261Y-102266510D01*
X148699500Y-102421153D01*
X110500500Y-102421153D01*
X110500500Y-99421153D01*
X146699500Y-99421153D01*
X146699500Y-99578846D01*
X146730261Y-99733489D01*
X146730264Y-99733501D01*
X146790602Y-99879172D01*
X146790609Y-99879185D01*
X146878210Y-100010288D01*
X146878213Y-100010292D01*
X146989707Y-100121786D01*
X146989711Y-100121789D01*
X147120814Y-100209390D01*
X147120827Y-100209397D01*
X147266498Y-100269735D01*
X147266503Y-100269737D01*
X147421153Y-100300499D01*
X147421156Y-100300500D01*
X147421158Y-100300500D01*
X147578844Y-100300500D01*
X147578845Y-100300499D01*
X147733497Y-100269737D01*
X147879179Y-100209394D01*
X148010289Y-100121789D01*
X148121789Y-100010289D01*
X148209394Y-99879179D01*
X148269737Y-99733497D01*
X148300500Y-99578842D01*
X148300500Y-99421158D01*
X148300500Y-99421155D01*
X148300499Y-99421153D01*
X148291957Y-99378210D01*
X148269737Y-99266503D01*
X148269735Y-99266498D01*
X148209397Y-99120827D01*
X148209390Y-99120814D01*
X148121789Y-98989711D01*
X148121786Y-98989707D01*
X148010292Y-98878213D01*
X148010288Y-98878210D01*
X147879185Y-98790609D01*
X147879172Y-98790602D01*
X147733501Y-98730264D01*
X147733489Y-98730261D01*
X147578845Y-98699500D01*
X147578842Y-98699500D01*
X147421158Y-98699500D01*
X147421155Y-98699500D01*
X147266510Y-98730261D01*
X147266498Y-98730264D01*
X147120827Y-98790602D01*
X147120814Y-98790609D01*
X146989711Y-98878210D01*
X146989707Y-98878213D01*
X146878213Y-98989707D01*
X146878210Y-98989711D01*
X146790609Y-99120814D01*
X146790602Y-99120827D01*
X146730264Y-99266498D01*
X146730261Y-99266510D01*
X146699500Y-99421153D01*
X110500500Y-99421153D01*
X110500500Y-96921153D01*
X148699500Y-96921153D01*
X148699500Y-97078846D01*
X148730261Y-97233489D01*
X148730264Y-97233501D01*
X148790602Y-97379172D01*
X148790609Y-97379185D01*
X148878210Y-97510288D01*
X148878213Y-97510292D01*
X148989707Y-97621786D01*
X148989711Y-97621789D01*
X149120814Y-97709390D01*
X149120827Y-97709397D01*
X149201847Y-97742956D01*
X149266503Y-97769737D01*
X149421153Y-97800499D01*
X149421156Y-97800500D01*
X149421158Y-97800500D01*
X149578844Y-97800500D01*
X149578845Y-97800499D01*
X149733497Y-97769737D01*
X149780121Y-97750424D01*
X149849588Y-97742956D01*
X149912067Y-97774231D01*
X149947720Y-97834319D01*
X149945227Y-97904144D01*
X149915254Y-97952666D01*
X149878214Y-97989706D01*
X149878210Y-97989711D01*
X149790609Y-98120814D01*
X149790602Y-98120827D01*
X149730264Y-98266498D01*
X149730261Y-98266510D01*
X149699500Y-98421153D01*
X149699500Y-98578846D01*
X149730261Y-98733489D01*
X149730264Y-98733501D01*
X149790602Y-98879172D01*
X149790609Y-98879185D01*
X149878210Y-99010288D01*
X149878213Y-99010292D01*
X149989707Y-99121786D01*
X149989711Y-99121789D01*
X150120814Y-99209390D01*
X150120827Y-99209397D01*
X150258683Y-99266498D01*
X150266503Y-99269737D01*
X150421153Y-99300499D01*
X150421156Y-99300500D01*
X150421158Y-99300500D01*
X150578844Y-99300500D01*
X150578845Y-99300499D01*
X150733497Y-99269737D01*
X150879179Y-99209394D01*
X150931110Y-99174694D01*
X150997785Y-99153816D01*
X151065165Y-99172300D01*
X151068863Y-99174676D01*
X151120821Y-99209394D01*
X151120823Y-99209395D01*
X151120825Y-99209396D01*
X151258683Y-99266498D01*
X151266503Y-99269737D01*
X151421153Y-99300499D01*
X151421156Y-99300500D01*
X151575500Y-99300500D01*
X151642539Y-99320185D01*
X151688294Y-99372989D01*
X151699500Y-99424500D01*
X151699500Y-99578846D01*
X151730261Y-99733489D01*
X151730264Y-99733501D01*
X151790602Y-99879172D01*
X151790609Y-99879185D01*
X151878210Y-100010288D01*
X151878213Y-100010292D01*
X151989707Y-100121786D01*
X151989711Y-100121789D01*
X152120814Y-100209390D01*
X152120827Y-100209397D01*
X152266498Y-100269735D01*
X152266503Y-100269737D01*
X152421153Y-100300499D01*
X152421156Y-100300500D01*
X152421158Y-100300500D01*
X152578844Y-100300500D01*
X152578845Y-100300499D01*
X152733497Y-100269737D01*
X152879179Y-100209394D01*
X153010289Y-100121789D01*
X153011186Y-100120891D01*
X153011773Y-100120571D01*
X153014999Y-100117924D01*
X153015500Y-100118535D01*
X153072504Y-100087402D01*
X153142196Y-100092380D01*
X153198134Y-100134246D01*
X153220491Y-100184374D01*
X153230261Y-100233491D01*
X153230264Y-100233501D01*
X153290602Y-100379172D01*
X153290609Y-100379185D01*
X153378210Y-100510288D01*
X153378213Y-100510292D01*
X153489707Y-100621786D01*
X153489711Y-100621789D01*
X153620814Y-100709390D01*
X153620827Y-100709397D01*
X153766498Y-100769735D01*
X153766503Y-100769737D01*
X153921153Y-100800499D01*
X153921156Y-100800500D01*
X153921158Y-100800500D01*
X154078844Y-100800500D01*
X154078845Y-100800499D01*
X154233497Y-100769737D01*
X154379179Y-100709394D01*
X154510289Y-100621789D01*
X154621789Y-100510289D01*
X154709394Y-100379179D01*
X154769737Y-100233497D01*
X154800500Y-100078842D01*
X154800500Y-99921158D01*
X154800500Y-99921155D01*
X154800499Y-99921153D01*
X154769738Y-99766510D01*
X154769737Y-99766503D01*
X154756062Y-99733489D01*
X154709397Y-99620827D01*
X154709390Y-99620814D01*
X154621789Y-99489711D01*
X154621786Y-99489707D01*
X154510292Y-99378213D01*
X154510288Y-99378210D01*
X154379185Y-99290609D01*
X154379172Y-99290602D01*
X154233501Y-99230264D01*
X154233489Y-99230261D01*
X154078845Y-99199500D01*
X154078842Y-99199500D01*
X153921158Y-99199500D01*
X153921155Y-99199500D01*
X153766510Y-99230261D01*
X153766498Y-99230264D01*
X153620827Y-99290602D01*
X153620814Y-99290609D01*
X153489711Y-99378210D01*
X153489708Y-99378212D01*
X153488798Y-99379123D01*
X153488204Y-99379446D01*
X153485001Y-99382076D01*
X153484502Y-99381468D01*
X153427471Y-99412602D01*
X153357780Y-99407611D01*
X153301851Y-99365734D01*
X153279508Y-99315624D01*
X153269738Y-99266509D01*
X153269737Y-99266503D01*
X153269735Y-99266498D01*
X153209397Y-99120827D01*
X153209390Y-99120814D01*
X153121789Y-98989711D01*
X153121786Y-98989707D01*
X153010292Y-98878213D01*
X153010288Y-98878210D01*
X152879185Y-98790609D01*
X152879172Y-98790602D01*
X152733501Y-98730264D01*
X152733489Y-98730261D01*
X152578845Y-98699500D01*
X152578842Y-98699500D01*
X152424500Y-98699500D01*
X152357461Y-98679815D01*
X152311706Y-98627011D01*
X152300500Y-98575500D01*
X152300500Y-98421155D01*
X152300499Y-98421153D01*
X152269738Y-98266510D01*
X152269737Y-98266503D01*
X152269735Y-98266498D01*
X152209397Y-98120827D01*
X152209390Y-98120814D01*
X152121789Y-97989711D01*
X152121786Y-97989707D01*
X152010292Y-97878213D01*
X152010288Y-97878210D01*
X151879185Y-97790609D01*
X151879172Y-97790602D01*
X151733501Y-97730264D01*
X151733489Y-97730261D01*
X151578845Y-97699500D01*
X151578842Y-97699500D01*
X151421158Y-97699500D01*
X151421155Y-97699500D01*
X151266510Y-97730261D01*
X151266498Y-97730264D01*
X151120827Y-97790602D01*
X151120814Y-97790609D01*
X151068891Y-97825304D01*
X151002214Y-97846182D01*
X150934833Y-97827698D01*
X150931109Y-97825304D01*
X150879185Y-97790609D01*
X150879172Y-97790602D01*
X150733501Y-97730264D01*
X150733489Y-97730261D01*
X150578845Y-97699500D01*
X150578842Y-97699500D01*
X150421158Y-97699500D01*
X150421155Y-97699500D01*
X150266510Y-97730261D01*
X150266502Y-97730263D01*
X150219878Y-97749575D01*
X150150408Y-97757042D01*
X150087930Y-97725766D01*
X150052278Y-97665677D01*
X150054773Y-97595852D01*
X150084747Y-97547331D01*
X150121786Y-97510292D01*
X150121789Y-97510289D01*
X150209394Y-97379179D01*
X150269737Y-97233497D01*
X150300500Y-97078842D01*
X150300500Y-96921158D01*
X150300500Y-96921155D01*
X150300499Y-96921153D01*
X150269738Y-96766510D01*
X150269737Y-96766503D01*
X150209794Y-96621786D01*
X150209397Y-96620827D01*
X150209390Y-96620814D01*
X150121790Y-96489712D01*
X150121784Y-96489705D01*
X150053232Y-96421153D01*
X151199500Y-96421153D01*
X151199500Y-96578846D01*
X151230261Y-96733489D01*
X151230264Y-96733501D01*
X151290602Y-96879172D01*
X151290609Y-96879185D01*
X151378210Y-97010288D01*
X151378213Y-97010292D01*
X151489707Y-97121786D01*
X151489711Y-97121789D01*
X151620814Y-97209390D01*
X151620827Y-97209397D01*
X151766498Y-97269735D01*
X151766503Y-97269737D01*
X151921153Y-97300499D01*
X151921156Y-97300500D01*
X151921158Y-97300500D01*
X152078844Y-97300500D01*
X152078845Y-97300499D01*
X152233497Y-97269737D01*
X152379179Y-97209394D01*
X152510289Y-97121789D01*
X152621789Y-97010289D01*
X152709394Y-96879179D01*
X152769737Y-96733497D01*
X152800500Y-96578842D01*
X152800500Y-96421158D01*
X152800500Y-96421155D01*
X152800499Y-96421153D01*
X152774531Y-96290606D01*
X152769737Y-96266503D01*
X152756062Y-96233489D01*
X152709397Y-96120827D01*
X152709390Y-96120814D01*
X152621790Y-95989712D01*
X152621784Y-95989705D01*
X152553232Y-95921153D01*
X153199500Y-95921153D01*
X153199500Y-96078846D01*
X153230261Y-96233489D01*
X153230264Y-96233501D01*
X153290602Y-96379172D01*
X153290609Y-96379185D01*
X153378210Y-96510288D01*
X153378213Y-96510292D01*
X153489707Y-96621786D01*
X153489711Y-96621789D01*
X153620814Y-96709390D01*
X153620827Y-96709397D01*
X153758683Y-96766498D01*
X153766503Y-96769737D01*
X153921153Y-96800499D01*
X153921156Y-96800500D01*
X153921158Y-96800500D01*
X154078844Y-96800500D01*
X154078845Y-96800499D01*
X154233497Y-96769737D01*
X154379179Y-96709394D01*
X154510289Y-96621789D01*
X154621789Y-96510289D01*
X154709394Y-96379179D01*
X154769737Y-96233497D01*
X154800500Y-96078842D01*
X154800500Y-95921158D01*
X154800500Y-95921155D01*
X154800499Y-95921153D01*
X154774531Y-95790606D01*
X154769737Y-95766503D01*
X154769735Y-95766498D01*
X154709397Y-95620827D01*
X154709390Y-95620814D01*
X154621789Y-95489711D01*
X154621786Y-95489707D01*
X154510292Y-95378213D01*
X154510288Y-95378210D01*
X154379185Y-95290609D01*
X154379172Y-95290602D01*
X154233501Y-95230264D01*
X154233489Y-95230261D01*
X154078845Y-95199500D01*
X154078842Y-95199500D01*
X153921158Y-95199500D01*
X153921155Y-95199500D01*
X153766510Y-95230261D01*
X153766498Y-95230264D01*
X153620827Y-95290602D01*
X153620814Y-95290609D01*
X153489711Y-95378210D01*
X153489707Y-95378213D01*
X153378213Y-95489707D01*
X153378210Y-95489711D01*
X153290609Y-95620814D01*
X153290602Y-95620827D01*
X153230264Y-95766498D01*
X153230261Y-95766510D01*
X153199500Y-95921153D01*
X152553232Y-95921153D01*
X152510292Y-95878213D01*
X152510288Y-95878210D01*
X152379185Y-95790609D01*
X152379172Y-95790602D01*
X152233501Y-95730264D01*
X152233489Y-95730261D01*
X152078845Y-95699500D01*
X152078842Y-95699500D01*
X151921158Y-95699500D01*
X151921155Y-95699500D01*
X151766510Y-95730261D01*
X151766498Y-95730264D01*
X151620827Y-95790602D01*
X151620814Y-95790609D01*
X151489711Y-95878210D01*
X151489707Y-95878213D01*
X151378213Y-95989707D01*
X151378210Y-95989711D01*
X151290609Y-96120814D01*
X151290602Y-96120827D01*
X151230264Y-96266498D01*
X151230261Y-96266510D01*
X151199500Y-96421153D01*
X150053232Y-96421153D01*
X150010292Y-96378213D01*
X150010288Y-96378210D01*
X149879185Y-96290609D01*
X149879172Y-96290602D01*
X149733501Y-96230264D01*
X149733489Y-96230261D01*
X149578845Y-96199500D01*
X149578842Y-96199500D01*
X149421158Y-96199500D01*
X149421155Y-96199500D01*
X149266510Y-96230261D01*
X149266498Y-96230264D01*
X149120827Y-96290602D01*
X149120814Y-96290609D01*
X148989711Y-96378210D01*
X148989707Y-96378213D01*
X148878213Y-96489707D01*
X148878210Y-96489711D01*
X148790609Y-96620814D01*
X148790602Y-96620827D01*
X148730264Y-96766498D01*
X148730261Y-96766510D01*
X148699500Y-96921153D01*
X110500500Y-96921153D01*
X110500500Y-95921153D01*
X144024500Y-95921153D01*
X144024500Y-96078846D01*
X144055261Y-96233489D01*
X144055264Y-96233501D01*
X144115602Y-96379172D01*
X144115609Y-96379185D01*
X144203210Y-96510288D01*
X144203213Y-96510292D01*
X144314707Y-96621786D01*
X144314711Y-96621789D01*
X144445814Y-96709390D01*
X144445827Y-96709397D01*
X144583683Y-96766498D01*
X144591503Y-96769737D01*
X144746153Y-96800499D01*
X144746156Y-96800500D01*
X144746158Y-96800500D01*
X144903844Y-96800500D01*
X144903845Y-96800499D01*
X144914179Y-96798443D01*
X144939287Y-96793450D01*
X144939292Y-96793449D01*
X145024800Y-96776439D01*
X145058497Y-96769737D01*
X145204179Y-96709394D01*
X145335289Y-96621789D01*
X145446789Y-96510289D01*
X145534394Y-96379179D01*
X145594737Y-96233497D01*
X145625500Y-96078842D01*
X145625500Y-95921158D01*
X145625500Y-95921155D01*
X145625499Y-95921153D01*
X145599531Y-95790606D01*
X145594737Y-95766503D01*
X145594735Y-95766498D01*
X145534397Y-95620827D01*
X145534390Y-95620814D01*
X145446789Y-95489711D01*
X145446786Y-95489707D01*
X145335292Y-95378213D01*
X145335288Y-95378210D01*
X145204185Y-95290609D01*
X145204172Y-95290602D01*
X145058501Y-95230264D01*
X145058489Y-95230261D01*
X144903845Y-95199500D01*
X144903842Y-95199500D01*
X144746158Y-95199500D01*
X144746155Y-95199500D01*
X144591510Y-95230261D01*
X144591498Y-95230264D01*
X144445827Y-95290602D01*
X144445814Y-95290609D01*
X144314711Y-95378210D01*
X144314707Y-95378213D01*
X144203213Y-95489707D01*
X144203210Y-95489711D01*
X144115609Y-95620814D01*
X144115602Y-95620827D01*
X144055264Y-95766498D01*
X144055261Y-95766510D01*
X144024500Y-95921153D01*
X110500500Y-95921153D01*
X110500500Y-93921153D01*
X144024500Y-93921153D01*
X144024500Y-94078846D01*
X144055261Y-94233489D01*
X144055264Y-94233501D01*
X144115602Y-94379172D01*
X144115609Y-94379185D01*
X144203210Y-94510288D01*
X144203213Y-94510292D01*
X144314707Y-94621786D01*
X144314711Y-94621789D01*
X144445814Y-94709390D01*
X144445827Y-94709397D01*
X144591498Y-94769735D01*
X144591503Y-94769737D01*
X144746153Y-94800499D01*
X144746156Y-94800500D01*
X144746158Y-94800500D01*
X144903844Y-94800500D01*
X144903845Y-94800499D01*
X145058497Y-94769737D01*
X145204179Y-94709394D01*
X145335289Y-94621789D01*
X145446789Y-94510289D01*
X145506348Y-94421153D01*
X149199500Y-94421153D01*
X149199500Y-94578846D01*
X149230261Y-94733489D01*
X149230264Y-94733501D01*
X149290602Y-94879172D01*
X149290609Y-94879185D01*
X149378210Y-95010288D01*
X149378213Y-95010292D01*
X149489707Y-95121786D01*
X149489711Y-95121789D01*
X149620814Y-95209390D01*
X149620827Y-95209397D01*
X149766498Y-95269735D01*
X149766503Y-95269737D01*
X149921153Y-95300499D01*
X149921156Y-95300500D01*
X149921158Y-95300500D01*
X150078844Y-95300500D01*
X150078845Y-95300499D01*
X150233497Y-95269737D01*
X150379179Y-95209394D01*
X150510289Y-95121789D01*
X150621789Y-95010289D01*
X150709394Y-94879179D01*
X150769737Y-94733497D01*
X150800500Y-94578842D01*
X150800500Y-94421158D01*
X150800500Y-94421155D01*
X150800499Y-94421153D01*
X150769738Y-94266510D01*
X150769737Y-94266503D01*
X150756062Y-94233489D01*
X150709397Y-94120827D01*
X150709390Y-94120814D01*
X150621789Y-93989711D01*
X150621786Y-93989707D01*
X150510292Y-93878213D01*
X150510288Y-93878210D01*
X150379185Y-93790609D01*
X150379172Y-93790602D01*
X150233501Y-93730264D01*
X150233489Y-93730261D01*
X150078845Y-93699500D01*
X150078842Y-93699500D01*
X149921158Y-93699500D01*
X149921155Y-93699500D01*
X149766510Y-93730261D01*
X149766498Y-93730264D01*
X149620827Y-93790602D01*
X149620814Y-93790609D01*
X149489711Y-93878210D01*
X149489707Y-93878213D01*
X149378213Y-93989707D01*
X149378210Y-93989711D01*
X149290609Y-94120814D01*
X149290602Y-94120827D01*
X149230264Y-94266498D01*
X149230261Y-94266510D01*
X149199500Y-94421153D01*
X145506348Y-94421153D01*
X145534394Y-94379179D01*
X145594737Y-94233497D01*
X145625500Y-94078842D01*
X145625500Y-93921158D01*
X145625500Y-93921155D01*
X145625499Y-93921153D01*
X145599531Y-93790606D01*
X145594737Y-93766503D01*
X145594735Y-93766498D01*
X145534397Y-93620827D01*
X145534390Y-93620814D01*
X145446789Y-93489711D01*
X145446786Y-93489707D01*
X145335292Y-93378213D01*
X145335288Y-93378210D01*
X145204185Y-93290609D01*
X145204172Y-93290602D01*
X145058501Y-93230264D01*
X145058489Y-93230261D01*
X144903845Y-93199500D01*
X144903842Y-93199500D01*
X144746158Y-93199500D01*
X144746155Y-93199500D01*
X144591510Y-93230261D01*
X144591498Y-93230264D01*
X144445827Y-93290602D01*
X144445814Y-93290609D01*
X144314711Y-93378210D01*
X144314707Y-93378213D01*
X144203213Y-93489707D01*
X144203210Y-93489711D01*
X144115609Y-93620814D01*
X144115602Y-93620827D01*
X144055264Y-93766498D01*
X144055261Y-93766510D01*
X144024500Y-93921153D01*
X110500500Y-93921153D01*
X110500500Y-82421153D01*
X147199500Y-82421153D01*
X147199500Y-82578846D01*
X147230261Y-82733489D01*
X147230264Y-82733501D01*
X147290602Y-82879172D01*
X147290609Y-82879185D01*
X147378210Y-83010288D01*
X147378213Y-83010292D01*
X147489707Y-83121786D01*
X147489711Y-83121789D01*
X147620814Y-83209390D01*
X147620827Y-83209397D01*
X147756450Y-83265573D01*
X147766503Y-83269737D01*
X147886736Y-83293653D01*
X147921153Y-83300499D01*
X147921156Y-83300500D01*
X147921158Y-83300500D01*
X148078843Y-83300500D01*
X148095304Y-83297225D01*
X148144568Y-83287426D01*
X148214158Y-83293653D01*
X148269336Y-83336515D01*
X148283320Y-83361589D01*
X148290606Y-83379179D01*
X148290609Y-83379185D01*
X148378210Y-83510288D01*
X148378213Y-83510292D01*
X148489707Y-83621786D01*
X148489711Y-83621789D01*
X148620814Y-83709390D01*
X148620827Y-83709397D01*
X148766498Y-83769735D01*
X148766503Y-83769737D01*
X148921153Y-83800499D01*
X148921156Y-83800500D01*
X148921158Y-83800500D01*
X149078844Y-83800500D01*
X149078845Y-83800499D01*
X149233497Y-83769737D01*
X149379179Y-83709394D01*
X149510289Y-83621789D01*
X149621789Y-83510289D01*
X149709394Y-83379179D01*
X149769737Y-83233497D01*
X149800500Y-83078842D01*
X149800500Y-82921158D01*
X149800500Y-82921155D01*
X149800499Y-82921153D01*
X149769738Y-82766510D01*
X149769737Y-82766503D01*
X149756062Y-82733489D01*
X149709397Y-82620827D01*
X149709390Y-82620814D01*
X149621789Y-82489711D01*
X149621786Y-82489707D01*
X149510292Y-82378213D01*
X149510288Y-82378210D01*
X149379185Y-82290609D01*
X149379172Y-82290602D01*
X149233501Y-82230264D01*
X149233489Y-82230261D01*
X149078845Y-82199500D01*
X149078842Y-82199500D01*
X148921158Y-82199500D01*
X148921153Y-82199500D01*
X148855431Y-82212573D01*
X148785839Y-82206346D01*
X148730662Y-82163482D01*
X148716679Y-82138409D01*
X148709392Y-82120817D01*
X148621789Y-81989711D01*
X148621786Y-81989707D01*
X148510292Y-81878213D01*
X148510288Y-81878210D01*
X148379185Y-81790609D01*
X148379172Y-81790602D01*
X148233501Y-81730264D01*
X148233489Y-81730261D01*
X148078845Y-81699500D01*
X148078842Y-81699500D01*
X147921158Y-81699500D01*
X147921155Y-81699500D01*
X147766510Y-81730261D01*
X147766498Y-81730264D01*
X147620827Y-81790602D01*
X147620814Y-81790609D01*
X147489711Y-81878210D01*
X147489707Y-81878213D01*
X147378213Y-81989707D01*
X147378210Y-81989711D01*
X147290609Y-82120814D01*
X147290602Y-82120827D01*
X147230264Y-82266498D01*
X147230261Y-82266510D01*
X147199500Y-82421153D01*
X110500500Y-82421153D01*
X110500500Y-80421153D01*
X149199500Y-80421153D01*
X149199500Y-80578846D01*
X149230261Y-80733489D01*
X149230264Y-80733501D01*
X149290602Y-80879172D01*
X149290609Y-80879185D01*
X149378210Y-81010288D01*
X149378213Y-81010292D01*
X149489707Y-81121786D01*
X149489711Y-81121789D01*
X149620814Y-81209390D01*
X149620827Y-81209397D01*
X149756450Y-81265573D01*
X149766503Y-81269737D01*
X149886736Y-81293653D01*
X149921153Y-81300499D01*
X149921156Y-81300500D01*
X149921158Y-81300500D01*
X150078843Y-81300500D01*
X150095304Y-81297225D01*
X150144568Y-81287426D01*
X150214158Y-81293653D01*
X150269336Y-81336515D01*
X150283320Y-81361589D01*
X150290606Y-81379179D01*
X150290609Y-81379185D01*
X150378210Y-81510288D01*
X150378213Y-81510292D01*
X150489707Y-81621786D01*
X150489711Y-81621789D01*
X150620814Y-81709390D01*
X150620827Y-81709397D01*
X150766498Y-81769735D01*
X150766503Y-81769737D01*
X150921153Y-81800499D01*
X150921156Y-81800500D01*
X150921158Y-81800500D01*
X151078844Y-81800500D01*
X151078845Y-81800499D01*
X151233497Y-81769737D01*
X151379179Y-81709394D01*
X151510289Y-81621789D01*
X151621789Y-81510289D01*
X151709394Y-81379179D01*
X151769737Y-81233497D01*
X151800500Y-81078842D01*
X151800500Y-80921158D01*
X151800500Y-80921155D01*
X151800499Y-80921153D01*
X151769738Y-80766510D01*
X151769737Y-80766503D01*
X151740597Y-80696153D01*
X161699500Y-80696153D01*
X161699500Y-80853846D01*
X161730261Y-81008489D01*
X161730264Y-81008501D01*
X161790602Y-81154172D01*
X161790609Y-81154185D01*
X161878210Y-81285288D01*
X161878213Y-81285292D01*
X161989707Y-81396786D01*
X161989711Y-81396789D01*
X162120814Y-81484390D01*
X162120827Y-81484397D01*
X162266498Y-81544735D01*
X162266503Y-81544737D01*
X162421153Y-81575499D01*
X162421156Y-81575500D01*
X162421158Y-81575500D01*
X162578844Y-81575500D01*
X162578845Y-81575499D01*
X162733497Y-81544737D01*
X162879179Y-81484394D01*
X163010289Y-81396789D01*
X163121789Y-81285289D01*
X163209394Y-81154179D01*
X163269737Y-81008497D01*
X163300500Y-80853842D01*
X163300500Y-80696158D01*
X163300500Y-80696155D01*
X163300499Y-80696153D01*
X163269737Y-80541503D01*
X163219887Y-80421153D01*
X163209397Y-80395827D01*
X163209390Y-80395814D01*
X163121789Y-80264711D01*
X163121786Y-80264707D01*
X163010292Y-80153213D01*
X163010288Y-80153210D01*
X162879185Y-80065609D01*
X162879172Y-80065602D01*
X162733501Y-80005264D01*
X162733489Y-80005261D01*
X162578845Y-79974500D01*
X162578842Y-79974500D01*
X162421158Y-79974500D01*
X162421155Y-79974500D01*
X162266510Y-80005261D01*
X162266498Y-80005264D01*
X162120827Y-80065602D01*
X162120814Y-80065609D01*
X161989711Y-80153210D01*
X161989707Y-80153213D01*
X161878213Y-80264707D01*
X161878210Y-80264711D01*
X161790609Y-80395814D01*
X161790602Y-80395827D01*
X161730264Y-80541498D01*
X161730261Y-80541510D01*
X161699500Y-80696153D01*
X151740597Y-80696153D01*
X151729924Y-80670386D01*
X151709397Y-80620827D01*
X151709390Y-80620814D01*
X151621789Y-80489711D01*
X151621786Y-80489707D01*
X151510292Y-80378213D01*
X151510288Y-80378210D01*
X151379185Y-80290609D01*
X151379172Y-80290602D01*
X151233501Y-80230264D01*
X151233489Y-80230261D01*
X151078845Y-80199500D01*
X151078842Y-80199500D01*
X150921158Y-80199500D01*
X150921153Y-80199500D01*
X150855431Y-80212573D01*
X150785839Y-80206346D01*
X150730662Y-80163482D01*
X150716679Y-80138409D01*
X150709392Y-80120817D01*
X150621789Y-79989711D01*
X150621786Y-79989707D01*
X150510292Y-79878213D01*
X150510288Y-79878210D01*
X150379185Y-79790609D01*
X150379172Y-79790602D01*
X150233501Y-79730264D01*
X150233489Y-79730261D01*
X150078845Y-79699500D01*
X150078842Y-79699500D01*
X149921158Y-79699500D01*
X149921155Y-79699500D01*
X149766510Y-79730261D01*
X149766498Y-79730264D01*
X149620827Y-79790602D01*
X149620814Y-79790609D01*
X149489711Y-79878210D01*
X149489707Y-79878213D01*
X149378213Y-79989707D01*
X149378210Y-79989711D01*
X149290609Y-80120814D01*
X149290602Y-80120827D01*
X149230264Y-80266498D01*
X149230261Y-80266510D01*
X149199500Y-80421153D01*
X110500500Y-80421153D01*
X110500500Y-78911153D01*
X144089500Y-78911153D01*
X144089500Y-79068846D01*
X144120261Y-79223489D01*
X144120264Y-79223501D01*
X144180602Y-79369172D01*
X144180609Y-79369185D01*
X144268210Y-79500288D01*
X144268213Y-79500292D01*
X144379707Y-79611786D01*
X144379711Y-79611789D01*
X144510814Y-79699390D01*
X144510827Y-79699397D01*
X144585348Y-79730264D01*
X144656503Y-79759737D01*
X144811153Y-79790499D01*
X144811156Y-79790500D01*
X144811158Y-79790500D01*
X144968844Y-79790500D01*
X144968845Y-79790499D01*
X145123497Y-79759737D01*
X145269179Y-79699394D01*
X145400289Y-79611789D01*
X145511789Y-79500289D01*
X145599394Y-79369179D01*
X145659737Y-79223497D01*
X145690500Y-79068842D01*
X145690500Y-78911158D01*
X145690500Y-78911155D01*
X145690499Y-78911153D01*
X145659738Y-78756510D01*
X145659737Y-78756503D01*
X145659735Y-78756498D01*
X145599397Y-78610827D01*
X145599390Y-78610814D01*
X145511789Y-78479711D01*
X145511786Y-78479707D01*
X145400292Y-78368213D01*
X145400288Y-78368210D01*
X145269185Y-78280609D01*
X145269172Y-78280602D01*
X145123501Y-78220264D01*
X145123489Y-78220261D01*
X144968845Y-78189500D01*
X144968842Y-78189500D01*
X144811158Y-78189500D01*
X144811155Y-78189500D01*
X144656510Y-78220261D01*
X144656498Y-78220264D01*
X144510827Y-78280602D01*
X144510814Y-78280609D01*
X144379711Y-78368210D01*
X144379707Y-78368213D01*
X144268213Y-78479707D01*
X144268210Y-78479711D01*
X144180609Y-78610814D01*
X144180602Y-78610827D01*
X144120264Y-78756498D01*
X144120261Y-78756510D01*
X144089500Y-78911153D01*
X110500500Y-78911153D01*
X110500500Y-76421153D01*
X126199500Y-76421153D01*
X126199500Y-76578846D01*
X126230261Y-76733489D01*
X126230264Y-76733501D01*
X126290602Y-76879172D01*
X126290609Y-76879185D01*
X126378210Y-77010288D01*
X126378213Y-77010292D01*
X126489707Y-77121786D01*
X126489711Y-77121789D01*
X126620814Y-77209390D01*
X126620827Y-77209397D01*
X126694078Y-77239738D01*
X126766503Y-77269737D01*
X126921153Y-77300499D01*
X126921156Y-77300500D01*
X126921158Y-77300500D01*
X127078844Y-77300500D01*
X127078845Y-77300499D01*
X127233497Y-77269737D01*
X127379179Y-77209394D01*
X127510289Y-77121789D01*
X127621789Y-77010289D01*
X127709394Y-76879179D01*
X127769737Y-76733497D01*
X127800500Y-76578842D01*
X127800500Y-76421158D01*
X127800500Y-76421155D01*
X127800499Y-76421153D01*
X127769738Y-76266510D01*
X127769737Y-76266503D01*
X127757309Y-76236498D01*
X127709397Y-76120827D01*
X127709390Y-76120814D01*
X127621789Y-75989711D01*
X127621786Y-75989707D01*
X127510292Y-75878213D01*
X127510288Y-75878210D01*
X127379185Y-75790609D01*
X127379172Y-75790602D01*
X127233501Y-75730264D01*
X127233489Y-75730261D01*
X127078845Y-75699500D01*
X127078842Y-75699500D01*
X126921158Y-75699500D01*
X126921155Y-75699500D01*
X126766510Y-75730261D01*
X126766498Y-75730264D01*
X126620827Y-75790602D01*
X126620814Y-75790609D01*
X126489711Y-75878210D01*
X126489707Y-75878213D01*
X126378213Y-75989707D01*
X126378210Y-75989711D01*
X126290609Y-76120814D01*
X126290602Y-76120827D01*
X126230264Y-76266498D01*
X126230261Y-76266510D01*
X126199500Y-76421153D01*
X110500500Y-76421153D01*
X110500500Y-74934108D01*
X110466392Y-74806814D01*
X110400500Y-74692686D01*
X110307314Y-74599500D01*
X105718964Y-70011150D01*
X141049500Y-70011150D01*
X141049500Y-70168843D01*
X141080261Y-70323486D01*
X141080264Y-70323498D01*
X141140602Y-70469169D01*
X141140609Y-70469182D01*
X141228210Y-70600285D01*
X141228213Y-70600289D01*
X141280241Y-70652317D01*
X141313726Y-70713640D01*
X141308742Y-70783332D01*
X141280242Y-70827678D01*
X141228214Y-70879706D01*
X141228210Y-70879711D01*
X141140609Y-71010814D01*
X141140602Y-71010827D01*
X141080264Y-71156498D01*
X141080261Y-71156510D01*
X141049500Y-71311153D01*
X141049500Y-71468846D01*
X141080261Y-71623489D01*
X141080264Y-71623501D01*
X141140602Y-71769172D01*
X141140609Y-71769185D01*
X141228210Y-71900288D01*
X141228213Y-71900292D01*
X141265240Y-71937319D01*
X141298725Y-71998642D01*
X141293741Y-72068334D01*
X141265240Y-72112681D01*
X141228213Y-72149707D01*
X141228210Y-72149711D01*
X141140609Y-72280814D01*
X141140602Y-72280827D01*
X141080264Y-72426498D01*
X141080261Y-72426510D01*
X141049500Y-72581153D01*
X141049500Y-72738846D01*
X141080261Y-72893489D01*
X141080264Y-72893501D01*
X141140602Y-73039172D01*
X141140609Y-73039185D01*
X141228210Y-73170288D01*
X141228213Y-73170292D01*
X141265240Y-73207319D01*
X141298725Y-73268642D01*
X141293741Y-73338334D01*
X141265240Y-73382681D01*
X141228213Y-73419707D01*
X141228210Y-73419711D01*
X141140609Y-73550814D01*
X141140602Y-73550827D01*
X141080264Y-73696498D01*
X141080261Y-73696510D01*
X141049500Y-73851153D01*
X141049500Y-74008846D01*
X141080261Y-74163489D01*
X141080264Y-74163501D01*
X141140602Y-74309172D01*
X141140609Y-74309185D01*
X141228210Y-74440288D01*
X141228213Y-74440292D01*
X141265240Y-74477319D01*
X141298725Y-74538642D01*
X141293741Y-74608334D01*
X141265240Y-74652681D01*
X141228213Y-74689707D01*
X141228210Y-74689711D01*
X141140609Y-74820814D01*
X141140602Y-74820827D01*
X141080264Y-74966498D01*
X141080261Y-74966510D01*
X141049500Y-75121153D01*
X141049500Y-75278846D01*
X141080261Y-75433489D01*
X141080264Y-75433501D01*
X141140602Y-75579172D01*
X141140609Y-75579185D01*
X141228210Y-75710288D01*
X141228213Y-75710292D01*
X141265240Y-75747319D01*
X141298725Y-75808642D01*
X141293741Y-75878334D01*
X141265240Y-75922681D01*
X141228213Y-75959707D01*
X141228210Y-75959711D01*
X141140609Y-76090814D01*
X141140602Y-76090827D01*
X141080264Y-76236498D01*
X141080261Y-76236510D01*
X141049500Y-76391153D01*
X141049500Y-76548846D01*
X141080261Y-76703489D01*
X141080264Y-76703501D01*
X141140602Y-76849172D01*
X141140609Y-76849185D01*
X141228210Y-76980288D01*
X141228213Y-76980292D01*
X141339707Y-77091786D01*
X141339711Y-77091789D01*
X141470814Y-77179390D01*
X141470827Y-77179397D01*
X141616498Y-77239735D01*
X141616503Y-77239737D01*
X141767312Y-77269735D01*
X141771153Y-77270499D01*
X141771156Y-77270500D01*
X141771158Y-77270500D01*
X141928844Y-77270500D01*
X141928845Y-77270499D01*
X142083497Y-77239737D01*
X142229179Y-77179394D01*
X142360289Y-77091789D01*
X142471789Y-76980289D01*
X142559394Y-76849179D01*
X142619737Y-76703497D01*
X142650500Y-76548842D01*
X142650500Y-76391158D01*
X142650500Y-76391155D01*
X142650499Y-76391153D01*
X142619737Y-76236503D01*
X142571823Y-76120827D01*
X142559397Y-76090827D01*
X142559390Y-76090814D01*
X142471789Y-75959711D01*
X142471786Y-75959707D01*
X142434760Y-75922681D01*
X142401275Y-75861358D01*
X142406259Y-75791666D01*
X142434760Y-75747319D01*
X142471786Y-75710292D01*
X142471789Y-75710289D01*
X142559394Y-75579179D01*
X142619737Y-75433497D01*
X142650500Y-75278842D01*
X142650500Y-75121158D01*
X142650500Y-75121155D01*
X142650499Y-75121153D01*
X142619738Y-74966510D01*
X142619737Y-74966503D01*
X142619735Y-74966498D01*
X142559397Y-74820827D01*
X142559390Y-74820814D01*
X142471789Y-74689711D01*
X142471786Y-74689707D01*
X142434760Y-74652681D01*
X142401275Y-74591358D01*
X142406259Y-74521666D01*
X142434760Y-74477319D01*
X142471786Y-74440292D01*
X142471789Y-74440289D01*
X142559394Y-74309179D01*
X142619737Y-74163497D01*
X142650500Y-74008842D01*
X142650500Y-73851158D01*
X142650500Y-73851155D01*
X142650499Y-73851153D01*
X158549500Y-73851153D01*
X158549500Y-74008846D01*
X158580261Y-74163489D01*
X158580264Y-74163501D01*
X158640602Y-74309172D01*
X158640609Y-74309185D01*
X158728210Y-74440288D01*
X158728213Y-74440292D01*
X158839707Y-74551786D01*
X158839711Y-74551789D01*
X158970814Y-74639390D01*
X158970827Y-74639397D01*
X159092288Y-74689707D01*
X159116503Y-74699737D01*
X159271153Y-74730499D01*
X159271156Y-74730500D01*
X159271158Y-74730500D01*
X159428844Y-74730500D01*
X159428845Y-74730499D01*
X159583497Y-74699737D01*
X159729179Y-74639394D01*
X159860289Y-74551789D01*
X159971789Y-74440289D01*
X160059394Y-74309179D01*
X160119737Y-74163497D01*
X160150500Y-74008842D01*
X160150500Y-73851158D01*
X160150500Y-73851155D01*
X160150499Y-73851153D01*
X160119738Y-73696510D01*
X160119737Y-73696503D01*
X160119735Y-73696498D01*
X160059397Y-73550827D01*
X160059390Y-73550814D01*
X159971789Y-73419711D01*
X159971786Y-73419707D01*
X159860292Y-73308213D01*
X159860288Y-73308210D01*
X159729185Y-73220609D01*
X159729172Y-73220602D01*
X159583501Y-73160264D01*
X159583489Y-73160261D01*
X159428845Y-73129500D01*
X159428842Y-73129500D01*
X159271158Y-73129500D01*
X159271155Y-73129500D01*
X159116510Y-73160261D01*
X159116498Y-73160264D01*
X158970827Y-73220602D01*
X158970814Y-73220609D01*
X158839711Y-73308210D01*
X158839707Y-73308213D01*
X158728213Y-73419707D01*
X158728210Y-73419711D01*
X158640609Y-73550814D01*
X158640602Y-73550827D01*
X158580264Y-73696498D01*
X158580261Y-73696510D01*
X158549500Y-73851153D01*
X142650499Y-73851153D01*
X142619738Y-73696510D01*
X142619737Y-73696503D01*
X142619735Y-73696498D01*
X142559397Y-73550827D01*
X142559390Y-73550814D01*
X142471789Y-73419711D01*
X142471786Y-73419707D01*
X142434760Y-73382681D01*
X142401275Y-73321358D01*
X142406259Y-73251666D01*
X142434760Y-73207319D01*
X142471786Y-73170292D01*
X142471789Y-73170289D01*
X142559394Y-73039179D01*
X142619737Y-72893497D01*
X142650500Y-72738842D01*
X142650500Y-72581158D01*
X142650500Y-72581155D01*
X142650499Y-72581153D01*
X142619738Y-72426510D01*
X142619737Y-72426503D01*
X142619735Y-72426498D01*
X142559397Y-72280827D01*
X142559390Y-72280814D01*
X142471789Y-72149711D01*
X142471786Y-72149707D01*
X142434760Y-72112681D01*
X142401275Y-72051358D01*
X142406259Y-71981666D01*
X142434760Y-71937319D01*
X142471786Y-71900292D01*
X142471789Y-71900289D01*
X142559394Y-71769179D01*
X142619737Y-71623497D01*
X142650500Y-71468842D01*
X142650500Y-71311158D01*
X142650500Y-71311155D01*
X142650499Y-71311153D01*
X158549500Y-71311153D01*
X158549500Y-71468846D01*
X158580261Y-71623489D01*
X158580264Y-71623501D01*
X158640602Y-71769172D01*
X158640609Y-71769185D01*
X158728210Y-71900288D01*
X158728213Y-71900292D01*
X158839707Y-72011786D01*
X158839711Y-72011789D01*
X158970814Y-72099390D01*
X158970827Y-72099397D01*
X159092288Y-72149707D01*
X159116503Y-72159737D01*
X159271153Y-72190499D01*
X159271156Y-72190500D01*
X159271158Y-72190500D01*
X159428844Y-72190500D01*
X159428845Y-72190499D01*
X159583497Y-72159737D01*
X159729179Y-72099394D01*
X159860289Y-72011789D01*
X159971789Y-71900289D01*
X160059394Y-71769179D01*
X160119737Y-71623497D01*
X160150500Y-71468842D01*
X160150500Y-71311158D01*
X160150500Y-71311155D01*
X160150499Y-71311153D01*
X160119738Y-71156510D01*
X160119737Y-71156503D01*
X160119735Y-71156498D01*
X160059397Y-71010827D01*
X160059390Y-71010814D01*
X159971789Y-70879711D01*
X159971786Y-70879707D01*
X159860292Y-70768213D01*
X159860288Y-70768210D01*
X159729185Y-70680609D01*
X159729172Y-70680602D01*
X159583501Y-70620264D01*
X159583489Y-70620261D01*
X159428845Y-70589500D01*
X159428842Y-70589500D01*
X159271158Y-70589500D01*
X159271155Y-70589500D01*
X159116510Y-70620261D01*
X159116498Y-70620264D01*
X158970827Y-70680602D01*
X158970814Y-70680609D01*
X158839711Y-70768210D01*
X158839707Y-70768213D01*
X158728213Y-70879707D01*
X158728210Y-70879711D01*
X158640609Y-71010814D01*
X158640602Y-71010827D01*
X158580264Y-71156498D01*
X158580261Y-71156510D01*
X158549500Y-71311153D01*
X142650499Y-71311153D01*
X142619738Y-71156510D01*
X142619737Y-71156503D01*
X142619735Y-71156498D01*
X142559397Y-71010827D01*
X142559390Y-71010814D01*
X142471789Y-70879711D01*
X142471786Y-70879707D01*
X142419758Y-70827679D01*
X142386273Y-70766356D01*
X142391257Y-70696664D01*
X142419759Y-70652316D01*
X142471786Y-70600289D01*
X142471789Y-70600286D01*
X142559394Y-70469176D01*
X142619737Y-70323494D01*
X142650500Y-70168839D01*
X142650500Y-70011155D01*
X142650500Y-70011152D01*
X142650499Y-70011150D01*
X142619738Y-69856507D01*
X142619737Y-69856500D01*
X142596541Y-69800499D01*
X142559397Y-69710824D01*
X142559390Y-69710811D01*
X142471789Y-69579708D01*
X142471786Y-69579704D01*
X142360292Y-69468210D01*
X142360288Y-69468207D01*
X142229185Y-69380606D01*
X142229172Y-69380599D01*
X142083501Y-69320261D01*
X142083489Y-69320258D01*
X141928845Y-69289497D01*
X141928842Y-69289497D01*
X141771158Y-69289497D01*
X141771155Y-69289497D01*
X141616510Y-69320258D01*
X141616498Y-69320261D01*
X141470827Y-69380599D01*
X141470814Y-69380606D01*
X141339711Y-69468207D01*
X141339707Y-69468210D01*
X141228213Y-69579704D01*
X141228210Y-69579708D01*
X141140609Y-69710811D01*
X141140602Y-69710824D01*
X141080264Y-69856495D01*
X141080261Y-69856507D01*
X141049500Y-70011150D01*
X105718964Y-70011150D01*
X103878967Y-68171153D01*
X126149500Y-68171153D01*
X126149500Y-68328846D01*
X126180261Y-68483489D01*
X126180264Y-68483501D01*
X126240602Y-68629172D01*
X126240609Y-68629185D01*
X126328210Y-68760288D01*
X126328213Y-68760292D01*
X126439707Y-68871786D01*
X126439711Y-68871789D01*
X126570814Y-68959390D01*
X126570827Y-68959397D01*
X126716498Y-69019735D01*
X126716503Y-69019737D01*
X126871153Y-69050499D01*
X126871156Y-69050500D01*
X126871158Y-69050500D01*
X127028844Y-69050500D01*
X127028845Y-69050499D01*
X127183497Y-69019737D01*
X127296166Y-68973067D01*
X127329172Y-68959397D01*
X127329172Y-68959396D01*
X127329179Y-68959394D01*
X127460289Y-68871789D01*
X127571789Y-68760289D01*
X127614643Y-68696153D01*
X138199500Y-68696153D01*
X138199500Y-68853846D01*
X138230261Y-69008489D01*
X138230264Y-69008501D01*
X138290602Y-69154172D01*
X138290609Y-69154185D01*
X138378210Y-69285288D01*
X138378213Y-69285292D01*
X138489707Y-69396786D01*
X138489711Y-69396789D01*
X138620814Y-69484390D01*
X138620827Y-69484397D01*
X138766498Y-69544735D01*
X138766503Y-69544737D01*
X138921153Y-69575499D01*
X138921156Y-69575500D01*
X138921158Y-69575500D01*
X139078844Y-69575500D01*
X139078845Y-69575499D01*
X139233497Y-69544737D01*
X139379179Y-69484394D01*
X139510289Y-69396789D01*
X139621789Y-69285289D01*
X139709394Y-69154179D01*
X139715389Y-69139707D01*
X139740598Y-69078846D01*
X139769737Y-69008497D01*
X139800500Y-68853842D01*
X139800500Y-68696158D01*
X139800500Y-68696155D01*
X139800499Y-68696153D01*
X139769737Y-68541503D01*
X139769735Y-68541498D01*
X139709397Y-68395827D01*
X139709390Y-68395814D01*
X139621789Y-68264711D01*
X139621786Y-68264707D01*
X139528232Y-68171153D01*
X146899500Y-68171153D01*
X146899500Y-68328846D01*
X146930261Y-68483489D01*
X146930264Y-68483501D01*
X146990602Y-68629172D01*
X146990609Y-68629185D01*
X147078210Y-68760288D01*
X147078213Y-68760292D01*
X147180240Y-68862319D01*
X147213725Y-68923642D01*
X147208741Y-68993334D01*
X147180240Y-69037681D01*
X147078213Y-69139707D01*
X147078210Y-69139711D01*
X146990609Y-69270814D01*
X146990602Y-69270827D01*
X146930264Y-69416498D01*
X146930261Y-69416510D01*
X146899500Y-69571153D01*
X146899500Y-69728846D01*
X146930261Y-69883489D01*
X146930264Y-69883501D01*
X146990602Y-70029172D01*
X146990609Y-70029185D01*
X147078210Y-70160288D01*
X147078213Y-70160292D01*
X147189707Y-70271786D01*
X147189711Y-70271789D01*
X147320814Y-70359390D01*
X147320827Y-70359397D01*
X147430082Y-70404651D01*
X147466503Y-70419737D01*
X147521831Y-70430742D01*
X147583740Y-70463126D01*
X147618315Y-70523841D01*
X147619256Y-70528166D01*
X147630261Y-70583492D01*
X147630264Y-70583501D01*
X147690602Y-70729172D01*
X147690609Y-70729185D01*
X147778210Y-70860288D01*
X147778213Y-70860292D01*
X147889707Y-70971786D01*
X147889711Y-70971789D01*
X148020814Y-71059390D01*
X148020827Y-71059397D01*
X148166498Y-71119735D01*
X148166503Y-71119737D01*
X148321153Y-71150499D01*
X148321156Y-71150500D01*
X148321158Y-71150500D01*
X148478844Y-71150500D01*
X148478845Y-71150499D01*
X148633497Y-71119737D01*
X148779179Y-71059394D01*
X148910289Y-70971789D01*
X148910292Y-70971786D01*
X149012319Y-70869760D01*
X149073642Y-70836275D01*
X149143334Y-70841259D01*
X149187681Y-70869760D01*
X149289707Y-70971786D01*
X149289711Y-70971789D01*
X149420814Y-71059390D01*
X149420827Y-71059397D01*
X149566498Y-71119735D01*
X149566503Y-71119737D01*
X149721153Y-71150499D01*
X149721156Y-71150500D01*
X149721158Y-71150500D01*
X149878844Y-71150500D01*
X149878845Y-71150499D01*
X150033497Y-71119737D01*
X150179179Y-71059394D01*
X150310289Y-70971789D01*
X150421789Y-70860289D01*
X150509394Y-70729179D01*
X150569737Y-70583497D01*
X150580743Y-70528166D01*
X150613125Y-70466258D01*
X150673841Y-70431683D01*
X150678118Y-70430752D01*
X150733497Y-70419737D01*
X150879179Y-70359394D01*
X151010289Y-70271789D01*
X151121789Y-70160289D01*
X151209394Y-70029179D01*
X151269737Y-69883497D01*
X151300500Y-69728842D01*
X151300500Y-69571158D01*
X151300500Y-69571155D01*
X151300499Y-69571153D01*
X151295245Y-69544738D01*
X151269737Y-69416503D01*
X151254865Y-69380599D01*
X151209397Y-69270827D01*
X151209390Y-69270814D01*
X151121789Y-69139711D01*
X151121786Y-69139707D01*
X151019760Y-69037681D01*
X151015421Y-69029735D01*
X151008174Y-69024310D01*
X150998939Y-68999550D01*
X150986275Y-68976358D01*
X150986920Y-68967328D01*
X150983757Y-68958846D01*
X150989373Y-68933025D01*
X150990222Y-68921153D01*
X154199500Y-68921153D01*
X154199500Y-69078846D01*
X154230261Y-69233489D01*
X154230264Y-69233501D01*
X154290602Y-69379172D01*
X154290609Y-69379185D01*
X154378210Y-69510288D01*
X154378213Y-69510292D01*
X154489707Y-69621786D01*
X154489711Y-69621789D01*
X154620814Y-69709390D01*
X154620827Y-69709397D01*
X154766498Y-69769735D01*
X154766503Y-69769737D01*
X154921153Y-69800499D01*
X154921156Y-69800500D01*
X154921158Y-69800500D01*
X155078844Y-69800500D01*
X155078845Y-69800499D01*
X155233497Y-69769737D01*
X155379179Y-69709394D01*
X155510289Y-69621789D01*
X155621789Y-69510289D01*
X155709394Y-69379179D01*
X155769737Y-69233497D01*
X155800500Y-69078842D01*
X155800500Y-68921158D01*
X155800500Y-68921155D01*
X155800499Y-68921153D01*
X156699500Y-68921153D01*
X156699500Y-69078846D01*
X156730261Y-69233489D01*
X156730264Y-69233501D01*
X156790602Y-69379172D01*
X156790609Y-69379185D01*
X156878210Y-69510288D01*
X156878213Y-69510292D01*
X156989707Y-69621786D01*
X156989711Y-69621789D01*
X157120814Y-69709390D01*
X157120827Y-69709397D01*
X157266498Y-69769735D01*
X157266503Y-69769737D01*
X157421153Y-69800499D01*
X157421156Y-69800500D01*
X157421158Y-69800500D01*
X157578844Y-69800500D01*
X157578845Y-69800499D01*
X157733497Y-69769737D01*
X157879179Y-69709394D01*
X158010289Y-69621789D01*
X158121789Y-69510289D01*
X158209394Y-69379179D01*
X158269737Y-69233497D01*
X158300500Y-69078842D01*
X158300500Y-68921158D01*
X158300500Y-68921155D01*
X158300499Y-68921153D01*
X158269738Y-68766510D01*
X158269737Y-68766503D01*
X158267163Y-68760288D01*
X158209397Y-68620827D01*
X158209390Y-68620814D01*
X158121789Y-68489711D01*
X158121786Y-68489707D01*
X158010292Y-68378213D01*
X158010288Y-68378210D01*
X157879185Y-68290609D01*
X157879172Y-68290602D01*
X157733501Y-68230264D01*
X157733489Y-68230261D01*
X157578845Y-68199500D01*
X157578842Y-68199500D01*
X157421158Y-68199500D01*
X157421155Y-68199500D01*
X157266510Y-68230261D01*
X157266498Y-68230264D01*
X157120827Y-68290602D01*
X157120814Y-68290609D01*
X156989711Y-68378210D01*
X156989707Y-68378213D01*
X156878213Y-68489707D01*
X156878210Y-68489711D01*
X156790609Y-68620814D01*
X156790602Y-68620827D01*
X156730264Y-68766498D01*
X156730261Y-68766510D01*
X156699500Y-68921153D01*
X155800499Y-68921153D01*
X155769738Y-68766510D01*
X155769737Y-68766503D01*
X155767163Y-68760288D01*
X155709397Y-68620827D01*
X155709390Y-68620814D01*
X155621789Y-68489711D01*
X155621786Y-68489707D01*
X155510292Y-68378213D01*
X155510288Y-68378210D01*
X155379185Y-68290609D01*
X155379172Y-68290602D01*
X155233501Y-68230264D01*
X155233489Y-68230261D01*
X155078845Y-68199500D01*
X155078842Y-68199500D01*
X154921158Y-68199500D01*
X154921155Y-68199500D01*
X154766510Y-68230261D01*
X154766498Y-68230264D01*
X154620827Y-68290602D01*
X154620814Y-68290609D01*
X154489711Y-68378210D01*
X154489707Y-68378213D01*
X154378213Y-68489707D01*
X154378210Y-68489711D01*
X154290609Y-68620814D01*
X154290602Y-68620827D01*
X154230264Y-68766498D01*
X154230261Y-68766510D01*
X154199500Y-68921153D01*
X150990222Y-68921153D01*
X150991259Y-68906666D01*
X150997077Y-68897612D01*
X150998609Y-68890573D01*
X151019760Y-68862319D01*
X151054694Y-68827385D01*
X151121786Y-68760292D01*
X151121789Y-68760289D01*
X151209394Y-68629179D01*
X151212854Y-68620827D01*
X151267163Y-68489711D01*
X151269737Y-68483497D01*
X151300500Y-68328842D01*
X151300500Y-68171158D01*
X151300500Y-68171155D01*
X151300499Y-68171153D01*
X151287988Y-68108258D01*
X151269737Y-68016503D01*
X151265081Y-68005263D01*
X151209397Y-67870827D01*
X151209390Y-67870814D01*
X151121789Y-67739711D01*
X151121786Y-67739707D01*
X151010292Y-67628213D01*
X151010288Y-67628210D01*
X150879185Y-67540609D01*
X150879172Y-67540602D01*
X150733501Y-67480264D01*
X150733492Y-67480261D01*
X150678166Y-67469256D01*
X150616256Y-67436870D01*
X150581682Y-67376154D01*
X150580750Y-67371874D01*
X150569737Y-67316503D01*
X150549029Y-67266510D01*
X150530141Y-67220910D01*
X182199500Y-67220910D01*
X182199500Y-67378603D01*
X182230261Y-67533246D01*
X182230264Y-67533258D01*
X182290602Y-67678929D01*
X182290609Y-67678942D01*
X182378210Y-67810045D01*
X182378213Y-67810049D01*
X182489707Y-67921543D01*
X182489711Y-67921546D01*
X182620814Y-68009147D01*
X182620827Y-68009154D01*
X182766498Y-68069492D01*
X182766503Y-68069494D01*
X182921153Y-68100256D01*
X182921156Y-68100257D01*
X182921158Y-68100257D01*
X183078844Y-68100257D01*
X183078845Y-68100256D01*
X183233497Y-68069494D01*
X183361442Y-68016498D01*
X183379172Y-68009154D01*
X183379172Y-68009153D01*
X183379179Y-68009151D01*
X183510289Y-67921546D01*
X183621789Y-67810046D01*
X183631234Y-67795910D01*
X185323635Y-67795910D01*
X185323635Y-67953603D01*
X185354396Y-68108246D01*
X185354399Y-68108258D01*
X185414737Y-68253929D01*
X185414744Y-68253942D01*
X185502345Y-68385045D01*
X185502348Y-68385049D01*
X185613842Y-68496543D01*
X185613846Y-68496546D01*
X185744949Y-68584147D01*
X185744962Y-68584154D01*
X185890633Y-68644492D01*
X185890638Y-68644494D01*
X186045288Y-68675256D01*
X186045291Y-68675257D01*
X186045293Y-68675257D01*
X186202979Y-68675257D01*
X186202980Y-68675256D01*
X186357632Y-68644494D01*
X186503314Y-68584151D01*
X186634424Y-68496546D01*
X186745924Y-68385046D01*
X186770315Y-68348540D01*
X186823923Y-68303737D01*
X186893248Y-68295028D01*
X186897596Y-68295813D01*
X186905044Y-68297294D01*
X186921155Y-68300500D01*
X186921158Y-68300500D01*
X187078844Y-68300500D01*
X187078845Y-68300499D01*
X187233497Y-68269737D01*
X187379179Y-68209394D01*
X187510289Y-68121789D01*
X187621789Y-68010289D01*
X187709394Y-67879179D01*
X187712854Y-67870827D01*
X187738028Y-67810049D01*
X187769737Y-67733497D01*
X187800500Y-67578842D01*
X187800500Y-67421158D01*
X187800500Y-67421155D01*
X187800499Y-67421153D01*
X187791548Y-67376154D01*
X187769737Y-67266503D01*
X187769735Y-67266498D01*
X187709397Y-67120827D01*
X187709390Y-67120814D01*
X187621789Y-66989711D01*
X187621786Y-66989707D01*
X187510292Y-66878213D01*
X187510288Y-66878210D01*
X187379185Y-66790609D01*
X187379172Y-66790602D01*
X187233501Y-66730264D01*
X187233489Y-66730261D01*
X187078845Y-66699500D01*
X187078842Y-66699500D01*
X186921158Y-66699500D01*
X186921155Y-66699500D01*
X186766510Y-66730261D01*
X186766498Y-66730264D01*
X186620827Y-66790602D01*
X186620814Y-66790609D01*
X186489711Y-66878210D01*
X186489707Y-66878213D01*
X186378217Y-66989704D01*
X186378212Y-66989709D01*
X186353817Y-67026217D01*
X186300203Y-67071021D01*
X186230878Y-67079726D01*
X186226529Y-67078941D01*
X186202978Y-67074257D01*
X186202977Y-67074257D01*
X186045293Y-67074257D01*
X186045290Y-67074257D01*
X185890645Y-67105018D01*
X185890633Y-67105021D01*
X185744962Y-67165359D01*
X185744949Y-67165366D01*
X185613846Y-67252967D01*
X185613842Y-67252970D01*
X185502348Y-67364464D01*
X185502345Y-67364468D01*
X185414744Y-67495571D01*
X185414737Y-67495584D01*
X185354399Y-67641255D01*
X185354396Y-67641267D01*
X185323635Y-67795910D01*
X183631234Y-67795910D01*
X183647795Y-67771125D01*
X183681334Y-67720932D01*
X183681335Y-67720930D01*
X183709387Y-67678947D01*
X183709390Y-67678942D01*
X183709394Y-67678936D01*
X183769737Y-67533254D01*
X183800500Y-67378599D01*
X183800500Y-67220915D01*
X183800500Y-67220912D01*
X183800499Y-67220910D01*
X183798208Y-67209394D01*
X183769737Y-67066260D01*
X183758740Y-67039711D01*
X183709397Y-66920584D01*
X183709390Y-66920571D01*
X183621789Y-66789468D01*
X183621786Y-66789464D01*
X183510292Y-66677970D01*
X183510288Y-66677967D01*
X183379185Y-66590366D01*
X183379172Y-66590359D01*
X183233501Y-66530021D01*
X183233489Y-66530018D01*
X183078845Y-66499257D01*
X183078842Y-66499257D01*
X182921158Y-66499257D01*
X182921155Y-66499257D01*
X182766510Y-66530018D01*
X182766498Y-66530021D01*
X182620827Y-66590359D01*
X182620814Y-66590366D01*
X182489711Y-66677967D01*
X182489707Y-66677970D01*
X182378213Y-66789464D01*
X182378210Y-66789468D01*
X182290609Y-66920571D01*
X182290602Y-66920584D01*
X182230264Y-67066255D01*
X182230261Y-67066267D01*
X182199500Y-67220910D01*
X150530141Y-67220910D01*
X150509397Y-67170827D01*
X150509390Y-67170814D01*
X150421789Y-67039711D01*
X150421786Y-67039707D01*
X150310292Y-66928213D01*
X150310288Y-66928210D01*
X150179185Y-66840609D01*
X150179172Y-66840602D01*
X150033501Y-66780264D01*
X150033489Y-66780261D01*
X149878845Y-66749500D01*
X149878842Y-66749500D01*
X149721158Y-66749500D01*
X149721155Y-66749500D01*
X149566510Y-66780261D01*
X149566498Y-66780264D01*
X149420827Y-66840602D01*
X149420814Y-66840609D01*
X149289711Y-66928210D01*
X149289707Y-66928213D01*
X149187681Y-67030240D01*
X149126358Y-67063725D01*
X149056666Y-67058741D01*
X149012319Y-67030240D01*
X148910292Y-66928213D01*
X148910288Y-66928210D01*
X148779185Y-66840609D01*
X148779172Y-66840602D01*
X148633501Y-66780264D01*
X148633489Y-66780261D01*
X148478845Y-66749500D01*
X148478842Y-66749500D01*
X148321158Y-66749500D01*
X148321155Y-66749500D01*
X148166510Y-66780261D01*
X148166498Y-66780264D01*
X148020827Y-66840602D01*
X148020814Y-66840609D01*
X147889711Y-66928210D01*
X147889707Y-66928213D01*
X147778213Y-67039707D01*
X147778210Y-67039711D01*
X147690609Y-67170814D01*
X147690602Y-67170827D01*
X147630264Y-67316498D01*
X147630262Y-67316505D01*
X147619256Y-67371833D01*
X147586870Y-67433743D01*
X147526153Y-67468316D01*
X147521833Y-67469256D01*
X147466505Y-67480262D01*
X147466498Y-67480264D01*
X147320827Y-67540602D01*
X147320814Y-67540609D01*
X147189711Y-67628210D01*
X147189707Y-67628213D01*
X147078213Y-67739707D01*
X147078210Y-67739711D01*
X146990609Y-67870814D01*
X146990602Y-67870827D01*
X146930264Y-68016498D01*
X146930261Y-68016510D01*
X146899500Y-68171153D01*
X139528232Y-68171153D01*
X139510292Y-68153213D01*
X139510288Y-68153210D01*
X139379185Y-68065609D01*
X139379172Y-68065602D01*
X139233501Y-68005264D01*
X139233489Y-68005261D01*
X139078845Y-67974500D01*
X139078842Y-67974500D01*
X138921158Y-67974500D01*
X138921155Y-67974500D01*
X138766510Y-68005261D01*
X138766498Y-68005264D01*
X138620827Y-68065602D01*
X138620814Y-68065609D01*
X138489711Y-68153210D01*
X138489707Y-68153213D01*
X138378213Y-68264707D01*
X138378210Y-68264711D01*
X138290609Y-68395814D01*
X138290602Y-68395827D01*
X138230264Y-68541498D01*
X138230261Y-68541510D01*
X138199500Y-68696153D01*
X127614643Y-68696153D01*
X127659394Y-68629179D01*
X127719737Y-68483497D01*
X127750500Y-68328842D01*
X127750500Y-68171158D01*
X127750500Y-68171155D01*
X127750499Y-68171153D01*
X127737988Y-68108258D01*
X127719737Y-68016503D01*
X127715081Y-68005263D01*
X127659397Y-67870827D01*
X127659390Y-67870814D01*
X127571789Y-67739711D01*
X127571786Y-67739707D01*
X127460292Y-67628213D01*
X127460288Y-67628210D01*
X127329185Y-67540609D01*
X127329172Y-67540602D01*
X127183501Y-67480264D01*
X127183489Y-67480261D01*
X127028845Y-67449500D01*
X127028842Y-67449500D01*
X126871158Y-67449500D01*
X126871155Y-67449500D01*
X126716510Y-67480261D01*
X126716498Y-67480264D01*
X126570827Y-67540602D01*
X126570814Y-67540609D01*
X126439711Y-67628210D01*
X126439707Y-67628213D01*
X126328213Y-67739707D01*
X126328210Y-67739711D01*
X126240609Y-67870814D01*
X126240602Y-67870827D01*
X126180264Y-68016498D01*
X126180261Y-68016510D01*
X126149500Y-68171153D01*
X103878967Y-68171153D01*
X102128967Y-66421153D01*
X112699500Y-66421153D01*
X112699500Y-66578846D01*
X112730261Y-66733489D01*
X112730264Y-66733501D01*
X112790602Y-66879172D01*
X112790609Y-66879185D01*
X112878210Y-67010288D01*
X112878213Y-67010292D01*
X112989707Y-67121786D01*
X112989711Y-67121789D01*
X113120814Y-67209390D01*
X113120827Y-67209397D01*
X113258683Y-67266498D01*
X113266503Y-67269737D01*
X113421153Y-67300499D01*
X113421156Y-67300500D01*
X113421158Y-67300500D01*
X113578844Y-67300500D01*
X113578845Y-67300499D01*
X113733497Y-67269737D01*
X113879179Y-67209394D01*
X114010289Y-67121789D01*
X114121789Y-67010289D01*
X114209394Y-66879179D01*
X114269737Y-66733497D01*
X114300500Y-66578842D01*
X114300500Y-66421158D01*
X114300500Y-66421155D01*
X114300499Y-66421153D01*
X116699500Y-66421153D01*
X116699500Y-66578846D01*
X116730261Y-66733489D01*
X116730264Y-66733501D01*
X116790602Y-66879172D01*
X116790609Y-66879185D01*
X116878210Y-67010288D01*
X116878213Y-67010292D01*
X116989707Y-67121786D01*
X116989711Y-67121789D01*
X117120814Y-67209390D01*
X117120827Y-67209397D01*
X117258683Y-67266498D01*
X117266503Y-67269737D01*
X117421153Y-67300499D01*
X117421156Y-67300500D01*
X117421158Y-67300500D01*
X117578844Y-67300500D01*
X117578845Y-67300499D01*
X117733497Y-67269737D01*
X117879179Y-67209394D01*
X118010289Y-67121789D01*
X118121789Y-67010289D01*
X118209394Y-66879179D01*
X118269737Y-66733497D01*
X118300500Y-66578842D01*
X118300500Y-66421158D01*
X118300500Y-66421155D01*
X118287426Y-66355430D01*
X118293653Y-66285838D01*
X118336516Y-66230661D01*
X118361588Y-66216678D01*
X118379179Y-66209392D01*
X118510289Y-66121787D01*
X118621789Y-66010287D01*
X118709394Y-65879177D01*
X118712854Y-65870825D01*
X118758640Y-65760286D01*
X118769737Y-65733495D01*
X118800500Y-65578840D01*
X118800500Y-65421156D01*
X118800500Y-65421153D01*
X118800499Y-65421151D01*
X118776500Y-65300500D01*
X118769737Y-65266501D01*
X118709795Y-65121786D01*
X118709397Y-65120825D01*
X118709390Y-65120812D01*
X118644673Y-65023957D01*
X118621789Y-64989708D01*
X118593234Y-64961153D01*
X158549500Y-64961153D01*
X158549500Y-65118846D01*
X158580261Y-65273489D01*
X158580264Y-65273501D01*
X158640602Y-65419172D01*
X158640609Y-65419185D01*
X158728210Y-65550288D01*
X158728213Y-65550292D01*
X158765240Y-65587319D01*
X158798725Y-65648642D01*
X158793741Y-65718334D01*
X158765240Y-65762681D01*
X158728213Y-65799707D01*
X158728210Y-65799711D01*
X158640609Y-65930814D01*
X158640602Y-65930827D01*
X158580264Y-66076498D01*
X158580261Y-66076510D01*
X158549500Y-66231153D01*
X158549500Y-66388846D01*
X158580261Y-66543489D01*
X158580264Y-66543501D01*
X158640602Y-66689172D01*
X158640609Y-66689185D01*
X158728210Y-66820288D01*
X158728213Y-66820292D01*
X158839707Y-66931786D01*
X158839711Y-66931789D01*
X158970814Y-67019390D01*
X158970827Y-67019397D01*
X159103273Y-67074257D01*
X159116503Y-67079737D01*
X159271153Y-67110499D01*
X159271156Y-67110500D01*
X159271158Y-67110500D01*
X159428844Y-67110500D01*
X159515786Y-67093206D01*
X159515786Y-67093205D01*
X159583497Y-67079737D01*
X159712707Y-67026217D01*
X159729172Y-67019397D01*
X159729172Y-67019396D01*
X159729179Y-67019394D01*
X159860289Y-66931789D01*
X159971789Y-66820289D01*
X160059394Y-66689179D01*
X160119737Y-66543497D01*
X160150500Y-66388842D01*
X160150500Y-66231158D01*
X160147619Y-66216676D01*
X160142165Y-66189254D01*
X160142165Y-66189251D01*
X160138565Y-66171151D01*
X184252533Y-66171151D01*
X184252533Y-66328844D01*
X184283294Y-66483487D01*
X184283297Y-66483499D01*
X184343635Y-66629170D01*
X184343642Y-66629183D01*
X184431243Y-66760286D01*
X184431246Y-66760290D01*
X184542740Y-66871784D01*
X184542744Y-66871787D01*
X184673847Y-66959388D01*
X184673860Y-66959395D01*
X184796731Y-67010289D01*
X184819536Y-67019735D01*
X184974186Y-67050497D01*
X184974189Y-67050498D01*
X184974191Y-67050498D01*
X185131877Y-67050498D01*
X185131878Y-67050497D01*
X185286530Y-67019735D01*
X185432212Y-66959392D01*
X185563322Y-66871787D01*
X185674822Y-66760287D01*
X185762427Y-66629177D01*
X185822770Y-66483495D01*
X185853533Y-66328840D01*
X185853533Y-66171156D01*
X185853533Y-66171153D01*
X185853532Y-66171151D01*
X185843519Y-66120814D01*
X185822770Y-66016501D01*
X185787283Y-65930827D01*
X185762430Y-65870825D01*
X185762423Y-65870812D01*
X185674822Y-65739709D01*
X185674819Y-65739705D01*
X185563325Y-65628211D01*
X185563321Y-65628208D01*
X185432218Y-65540607D01*
X185432205Y-65540600D01*
X185286534Y-65480262D01*
X185286522Y-65480259D01*
X185131878Y-65449498D01*
X185131875Y-65449498D01*
X184974191Y-65449498D01*
X184974188Y-65449498D01*
X184819543Y-65480259D01*
X184819531Y-65480262D01*
X184673860Y-65540600D01*
X184673847Y-65540607D01*
X184542744Y-65628208D01*
X184542740Y-65628211D01*
X184431246Y-65739705D01*
X184431243Y-65739709D01*
X184343642Y-65870812D01*
X184343635Y-65870825D01*
X184283297Y-66016496D01*
X184283294Y-66016508D01*
X184252533Y-66171151D01*
X160138565Y-66171151D01*
X160119738Y-66076508D01*
X160119737Y-66076507D01*
X160119737Y-66076503D01*
X160119735Y-66076498D01*
X160059397Y-65930827D01*
X160059390Y-65930814D01*
X159971789Y-65799711D01*
X159971786Y-65799707D01*
X159934760Y-65762681D01*
X159901275Y-65701358D01*
X159906259Y-65631666D01*
X159934760Y-65587319D01*
X159971786Y-65550292D01*
X159971789Y-65550289D01*
X160059394Y-65419179D01*
X160119737Y-65273497D01*
X160150500Y-65118842D01*
X160150500Y-64961158D01*
X160150500Y-64961155D01*
X160150499Y-64961153D01*
X160134192Y-64879172D01*
X160119737Y-64806503D01*
X160113153Y-64790607D01*
X160059397Y-64660827D01*
X160059390Y-64660814D01*
X159971789Y-64529711D01*
X159971786Y-64529707D01*
X159863232Y-64421153D01*
X188465000Y-64421153D01*
X188465000Y-64578846D01*
X188495761Y-64733489D01*
X188495764Y-64733501D01*
X188556102Y-64879172D01*
X188556109Y-64879185D01*
X188643710Y-65010288D01*
X188643713Y-65010292D01*
X188755207Y-65121786D01*
X188755211Y-65121789D01*
X188886314Y-65209390D01*
X188886327Y-65209397D01*
X189024207Y-65266508D01*
X189032003Y-65269737D01*
X189186653Y-65300499D01*
X189186656Y-65300500D01*
X189186658Y-65300500D01*
X189344344Y-65300500D01*
X189344345Y-65300499D01*
X189498997Y-65269737D01*
X189644679Y-65209394D01*
X189775789Y-65121789D01*
X189887289Y-65010289D01*
X189974894Y-64879179D01*
X190035237Y-64733497D01*
X190066000Y-64578842D01*
X190066000Y-64421158D01*
X190066000Y-64421155D01*
X190065999Y-64421153D01*
X190056080Y-64371287D01*
X190035237Y-64266503D01*
X190032663Y-64260288D01*
X189974897Y-64120827D01*
X189974890Y-64120814D01*
X189887289Y-63989711D01*
X189887286Y-63989707D01*
X189775792Y-63878213D01*
X189775788Y-63878210D01*
X189644685Y-63790609D01*
X189644672Y-63790602D01*
X189499001Y-63730264D01*
X189498989Y-63730261D01*
X189344345Y-63699500D01*
X189344342Y-63699500D01*
X189186658Y-63699500D01*
X189186655Y-63699500D01*
X189032010Y-63730261D01*
X189031998Y-63730264D01*
X188886327Y-63790602D01*
X188886314Y-63790609D01*
X188755211Y-63878210D01*
X188755207Y-63878213D01*
X188643713Y-63989707D01*
X188643710Y-63989711D01*
X188556109Y-64120814D01*
X188556102Y-64120827D01*
X188495764Y-64266498D01*
X188495761Y-64266510D01*
X188465000Y-64421153D01*
X159863232Y-64421153D01*
X159860292Y-64418213D01*
X159860288Y-64418210D01*
X159729185Y-64330609D01*
X159729172Y-64330602D01*
X159583501Y-64270264D01*
X159583489Y-64270261D01*
X159428845Y-64239500D01*
X159428842Y-64239500D01*
X159271158Y-64239500D01*
X159271155Y-64239500D01*
X159116510Y-64270261D01*
X159116498Y-64270264D01*
X158970827Y-64330602D01*
X158970814Y-64330609D01*
X158839711Y-64418210D01*
X158839707Y-64418213D01*
X158728213Y-64529707D01*
X158728210Y-64529711D01*
X158640609Y-64660814D01*
X158640602Y-64660827D01*
X158580264Y-64806498D01*
X158580261Y-64806510D01*
X158549500Y-64961153D01*
X118593234Y-64961153D01*
X118510292Y-64878211D01*
X118510288Y-64878208D01*
X118379185Y-64790607D01*
X118379172Y-64790600D01*
X118233501Y-64730262D01*
X118233489Y-64730259D01*
X118078845Y-64699498D01*
X118078842Y-64699498D01*
X117921158Y-64699498D01*
X117921155Y-64699498D01*
X117766510Y-64730259D01*
X117766498Y-64730262D01*
X117620827Y-64790600D01*
X117620814Y-64790607D01*
X117489711Y-64878208D01*
X117489707Y-64878211D01*
X117378213Y-64989705D01*
X117378210Y-64989709D01*
X117290609Y-65120812D01*
X117290602Y-65120825D01*
X117230264Y-65266496D01*
X117230261Y-65266508D01*
X117199500Y-65421151D01*
X117199500Y-65421156D01*
X117199500Y-65578840D01*
X117199501Y-65578844D01*
X117212574Y-65644568D01*
X117206346Y-65714160D01*
X117163482Y-65769337D01*
X117138411Y-65783319D01*
X117120826Y-65790603D01*
X117120814Y-65790609D01*
X116989711Y-65878210D01*
X116989707Y-65878213D01*
X116878213Y-65989707D01*
X116878210Y-65989711D01*
X116790609Y-66120814D01*
X116790602Y-66120827D01*
X116730264Y-66266498D01*
X116730261Y-66266510D01*
X116699500Y-66421153D01*
X114300499Y-66421153D01*
X114282137Y-66328842D01*
X114269737Y-66266503D01*
X114246081Y-66209392D01*
X114209397Y-66120827D01*
X114209390Y-66120814D01*
X114121789Y-65989711D01*
X114121786Y-65989707D01*
X114010292Y-65878213D01*
X114010288Y-65878210D01*
X113879185Y-65790609D01*
X113879172Y-65790602D01*
X113733501Y-65730264D01*
X113733489Y-65730261D01*
X113578845Y-65699500D01*
X113578842Y-65699500D01*
X113421158Y-65699500D01*
X113421155Y-65699500D01*
X113266510Y-65730261D01*
X113266498Y-65730264D01*
X113120827Y-65790602D01*
X113120814Y-65790609D01*
X112989711Y-65878210D01*
X112989707Y-65878213D01*
X112878213Y-65989707D01*
X112878210Y-65989711D01*
X112790609Y-66120814D01*
X112790602Y-66120827D01*
X112730264Y-66266498D01*
X112730261Y-66266510D01*
X112699500Y-66421153D01*
X102128967Y-66421153D01*
X100878965Y-65171151D01*
X114752533Y-65171151D01*
X114752533Y-65328844D01*
X114783294Y-65483487D01*
X114783297Y-65483499D01*
X114843635Y-65629170D01*
X114843642Y-65629183D01*
X114931243Y-65760286D01*
X114931246Y-65760290D01*
X115042740Y-65871784D01*
X115042744Y-65871787D01*
X115173847Y-65959388D01*
X115173860Y-65959395D01*
X115311716Y-66016496D01*
X115319536Y-66019735D01*
X115474186Y-66050497D01*
X115474189Y-66050498D01*
X115474191Y-66050498D01*
X115631877Y-66050498D01*
X115631878Y-66050497D01*
X115786530Y-66019735D01*
X115932212Y-65959392D01*
X116063322Y-65871787D01*
X116174822Y-65760287D01*
X116262427Y-65629177D01*
X116322770Y-65483495D01*
X116353533Y-65328840D01*
X116353533Y-65171156D01*
X116353533Y-65171153D01*
X116353532Y-65171151D01*
X116322771Y-65016508D01*
X116322770Y-65016501D01*
X116320197Y-65010288D01*
X116262430Y-64870825D01*
X116262423Y-64870812D01*
X116174822Y-64739709D01*
X116174819Y-64739705D01*
X116063325Y-64628211D01*
X116063321Y-64628208D01*
X115932218Y-64540607D01*
X115932205Y-64540600D01*
X115786534Y-64480262D01*
X115786522Y-64480259D01*
X115631878Y-64449498D01*
X115631875Y-64449498D01*
X115474191Y-64449498D01*
X115474188Y-64449498D01*
X115319543Y-64480259D01*
X115319531Y-64480262D01*
X115173860Y-64540600D01*
X115173847Y-64540607D01*
X115042744Y-64628208D01*
X115042740Y-64628211D01*
X114931246Y-64739705D01*
X114931243Y-64739709D01*
X114843642Y-64870812D01*
X114843635Y-64870825D01*
X114783297Y-65016496D01*
X114783294Y-65016508D01*
X114752533Y-65171151D01*
X100878965Y-65171151D01*
X99489966Y-63782152D01*
X118465000Y-63782152D01*
X118465000Y-63939845D01*
X118495761Y-64094488D01*
X118495764Y-64094500D01*
X118556102Y-64240171D01*
X118556109Y-64240184D01*
X118643710Y-64371287D01*
X118643713Y-64371291D01*
X118755207Y-64482785D01*
X118755211Y-64482788D01*
X118886314Y-64570389D01*
X118886327Y-64570396D01*
X119025900Y-64628208D01*
X119032003Y-64630736D01*
X119183280Y-64660827D01*
X119186653Y-64661498D01*
X119186656Y-64661499D01*
X119186658Y-64661499D01*
X119344344Y-64661499D01*
X119344345Y-64661498D01*
X119498997Y-64630736D01*
X119611666Y-64584066D01*
X119644672Y-64570396D01*
X119644672Y-64570395D01*
X119644679Y-64570393D01*
X119775789Y-64482788D01*
X119887289Y-64371288D01*
X119974894Y-64240178D01*
X120035237Y-64094496D01*
X120066000Y-63939841D01*
X120066000Y-63782157D01*
X120066000Y-63782154D01*
X120047521Y-63689258D01*
X120047521Y-63689257D01*
X120043920Y-63671153D01*
X135249500Y-63671153D01*
X135249500Y-63828846D01*
X135280261Y-63983489D01*
X135280264Y-63983501D01*
X135340602Y-64129172D01*
X135340609Y-64129185D01*
X135428210Y-64260288D01*
X135428213Y-64260292D01*
X135539707Y-64371786D01*
X135539711Y-64371789D01*
X135670814Y-64459390D01*
X135670827Y-64459397D01*
X135816498Y-64519735D01*
X135816503Y-64519737D01*
X135971153Y-64550499D01*
X135971156Y-64550500D01*
X135971158Y-64550500D01*
X136128844Y-64550500D01*
X136128845Y-64550499D01*
X136283497Y-64519737D01*
X136429179Y-64459394D01*
X136560289Y-64371789D01*
X136671789Y-64260289D01*
X136759394Y-64129179D01*
X136762854Y-64120827D01*
X136817163Y-63989711D01*
X136819737Y-63983497D01*
X136850500Y-63828842D01*
X136850500Y-63671158D01*
X136850500Y-63671155D01*
X136850499Y-63671153D01*
X136819738Y-63516510D01*
X136819737Y-63516503D01*
X136819735Y-63516498D01*
X136759397Y-63370827D01*
X136759390Y-63370814D01*
X136671789Y-63239711D01*
X136671786Y-63239707D01*
X136560292Y-63128213D01*
X136560288Y-63128210D01*
X136429185Y-63040609D01*
X136429172Y-63040602D01*
X136283501Y-62980264D01*
X136283489Y-62980261D01*
X136128845Y-62949500D01*
X136128842Y-62949500D01*
X135971158Y-62949500D01*
X135971155Y-62949500D01*
X135816510Y-62980261D01*
X135816498Y-62980264D01*
X135670827Y-63040602D01*
X135670814Y-63040609D01*
X135539711Y-63128210D01*
X135539707Y-63128213D01*
X135428213Y-63239707D01*
X135428210Y-63239711D01*
X135340609Y-63370814D01*
X135340602Y-63370827D01*
X135280264Y-63516498D01*
X135280261Y-63516510D01*
X135249500Y-63671153D01*
X120043920Y-63671153D01*
X120035238Y-63627508D01*
X120035237Y-63627502D01*
X119989258Y-63516498D01*
X119974897Y-63481826D01*
X119974890Y-63481813D01*
X119887289Y-63350710D01*
X119887286Y-63350706D01*
X119775792Y-63239212D01*
X119775788Y-63239209D01*
X119644685Y-63151608D01*
X119644672Y-63151601D01*
X119499001Y-63091263D01*
X119498989Y-63091260D01*
X119344345Y-63060499D01*
X119344342Y-63060499D01*
X119186658Y-63060499D01*
X119186655Y-63060499D01*
X119032010Y-63091260D01*
X119031998Y-63091263D01*
X118886327Y-63151601D01*
X118886314Y-63151608D01*
X118755211Y-63239209D01*
X118755207Y-63239212D01*
X118643713Y-63350706D01*
X118643710Y-63350710D01*
X118556109Y-63481813D01*
X118556102Y-63481826D01*
X118495764Y-63627497D01*
X118495761Y-63627509D01*
X118465000Y-63782152D01*
X99489966Y-63782152D01*
X98128967Y-62421153D01*
X143699500Y-62421153D01*
X143699500Y-62578846D01*
X143730261Y-62733489D01*
X143730264Y-62733501D01*
X143790602Y-62879172D01*
X143790609Y-62879185D01*
X143878210Y-63010288D01*
X143878213Y-63010292D01*
X143989707Y-63121786D01*
X143989711Y-63121789D01*
X144120814Y-63209390D01*
X144120827Y-63209397D01*
X144194013Y-63239711D01*
X144266503Y-63269737D01*
X144421153Y-63300499D01*
X144421156Y-63300500D01*
X144421158Y-63300500D01*
X144578844Y-63300500D01*
X144578845Y-63300499D01*
X144733497Y-63269737D01*
X144879179Y-63209394D01*
X145010289Y-63121789D01*
X145121789Y-63010289D01*
X145209394Y-62879179D01*
X145269737Y-62733497D01*
X145300500Y-62578842D01*
X145300500Y-62421158D01*
X145300500Y-62421155D01*
X145300499Y-62421153D01*
X184474500Y-62421153D01*
X184474500Y-62578846D01*
X184505261Y-62733489D01*
X184505264Y-62733501D01*
X184565602Y-62879172D01*
X184565609Y-62879185D01*
X184653210Y-63010288D01*
X184653213Y-63010292D01*
X184764707Y-63121786D01*
X184764711Y-63121789D01*
X184895814Y-63209390D01*
X184895827Y-63209397D01*
X184969013Y-63239711D01*
X185041503Y-63269737D01*
X185196153Y-63300499D01*
X185196156Y-63300500D01*
X185196158Y-63300500D01*
X185353844Y-63300500D01*
X185353845Y-63300499D01*
X185508497Y-63269737D01*
X185654179Y-63209394D01*
X185785289Y-63121789D01*
X185896789Y-63010289D01*
X185984394Y-62879179D01*
X186044737Y-62733497D01*
X186075500Y-62578842D01*
X186075500Y-62421158D01*
X186075500Y-62421155D01*
X186075499Y-62421153D01*
X186044738Y-62266510D01*
X186044737Y-62266503D01*
X185984794Y-62121786D01*
X185984397Y-62120827D01*
X185984390Y-62120814D01*
X185896789Y-61989711D01*
X185896786Y-61989707D01*
X185785292Y-61878213D01*
X185785288Y-61878210D01*
X185654185Y-61790609D01*
X185654172Y-61790602D01*
X185508501Y-61730264D01*
X185508489Y-61730261D01*
X185353845Y-61699500D01*
X185353842Y-61699500D01*
X185196158Y-61699500D01*
X185196155Y-61699500D01*
X185041510Y-61730261D01*
X185041498Y-61730264D01*
X184895827Y-61790602D01*
X184895814Y-61790609D01*
X184764711Y-61878210D01*
X184764707Y-61878213D01*
X184653213Y-61989707D01*
X184653210Y-61989711D01*
X184565609Y-62120814D01*
X184565602Y-62120827D01*
X184505264Y-62266498D01*
X184505261Y-62266510D01*
X184474500Y-62421153D01*
X145300499Y-62421153D01*
X145269738Y-62266510D01*
X145269737Y-62266503D01*
X145209794Y-62121786D01*
X145209397Y-62120827D01*
X145209390Y-62120814D01*
X145121789Y-61989711D01*
X145121786Y-61989707D01*
X145010292Y-61878213D01*
X145010288Y-61878210D01*
X144879185Y-61790609D01*
X144879172Y-61790602D01*
X144733501Y-61730264D01*
X144733489Y-61730261D01*
X144578845Y-61699500D01*
X144578842Y-61699500D01*
X144421158Y-61699500D01*
X144421155Y-61699500D01*
X144266510Y-61730261D01*
X144266498Y-61730264D01*
X144120827Y-61790602D01*
X144120814Y-61790609D01*
X143989711Y-61878210D01*
X143989707Y-61878213D01*
X143878213Y-61989707D01*
X143878210Y-61989711D01*
X143790609Y-62120814D01*
X143790602Y-62120827D01*
X143730264Y-62266498D01*
X143730261Y-62266510D01*
X143699500Y-62421153D01*
X98128967Y-62421153D01*
X97128967Y-61421153D01*
X113424500Y-61421153D01*
X113424500Y-61578846D01*
X113455261Y-61733489D01*
X113455264Y-61733501D01*
X113515602Y-61879172D01*
X113515609Y-61879185D01*
X113603210Y-62010288D01*
X113603213Y-62010292D01*
X113714707Y-62121786D01*
X113714711Y-62121789D01*
X113845814Y-62209390D01*
X113845827Y-62209397D01*
X113983683Y-62266498D01*
X113991503Y-62269737D01*
X114146153Y-62300499D01*
X114146156Y-62300500D01*
X114146158Y-62300500D01*
X114303844Y-62300500D01*
X114303845Y-62300499D01*
X114458497Y-62269737D01*
X114604179Y-62209394D01*
X114735289Y-62121789D01*
X114846789Y-62010289D01*
X114934394Y-61879179D01*
X114994737Y-61733497D01*
X115025500Y-61578842D01*
X115025500Y-61421158D01*
X115025500Y-61421155D01*
X115025499Y-61421153D01*
X115019360Y-61390289D01*
X114994737Y-61266503D01*
X114991703Y-61259179D01*
X114934397Y-61120827D01*
X114934390Y-61120814D01*
X114846789Y-60989711D01*
X114846786Y-60989707D01*
X114735292Y-60878213D01*
X114735288Y-60878210D01*
X114604185Y-60790609D01*
X114604172Y-60790602D01*
X114458501Y-60730264D01*
X114458489Y-60730261D01*
X114303845Y-60699500D01*
X114303842Y-60699500D01*
X114146158Y-60699500D01*
X114146155Y-60699500D01*
X113991510Y-60730261D01*
X113991498Y-60730264D01*
X113845827Y-60790602D01*
X113845814Y-60790609D01*
X113714711Y-60878210D01*
X113714707Y-60878213D01*
X113603213Y-60989707D01*
X113603210Y-60989711D01*
X113515609Y-61120814D01*
X113515602Y-61120827D01*
X113455264Y-61266498D01*
X113455261Y-61266510D01*
X113424500Y-61421153D01*
X97128967Y-61421153D01*
X95128967Y-59421153D01*
X113249500Y-59421153D01*
X113249500Y-59578846D01*
X113280261Y-59733489D01*
X113280264Y-59733501D01*
X113340602Y-59879172D01*
X113340609Y-59879185D01*
X113428210Y-60010288D01*
X113428213Y-60010292D01*
X113539707Y-60121786D01*
X113539711Y-60121789D01*
X113670814Y-60209390D01*
X113670827Y-60209397D01*
X113808683Y-60266498D01*
X113816503Y-60269737D01*
X113971153Y-60300499D01*
X113971156Y-60300500D01*
X113971158Y-60300500D01*
X114128844Y-60300500D01*
X114128845Y-60300499D01*
X114283497Y-60269737D01*
X114429179Y-60209394D01*
X114560289Y-60121789D01*
X114671789Y-60010289D01*
X114759394Y-59879179D01*
X114819737Y-59733497D01*
X114850500Y-59578842D01*
X114850500Y-59421158D01*
X114850500Y-59421155D01*
X114850499Y-59421153D01*
X114819738Y-59266510D01*
X114819737Y-59266503D01*
X114819735Y-59266498D01*
X114759397Y-59120827D01*
X114759390Y-59120814D01*
X114671789Y-58989711D01*
X114671786Y-58989707D01*
X114560292Y-58878213D01*
X114560288Y-58878210D01*
X114429185Y-58790609D01*
X114429172Y-58790602D01*
X114283501Y-58730264D01*
X114283489Y-58730261D01*
X114128845Y-58699500D01*
X114128842Y-58699500D01*
X113971158Y-58699500D01*
X113971155Y-58699500D01*
X113816510Y-58730261D01*
X113816498Y-58730264D01*
X113670827Y-58790602D01*
X113670814Y-58790609D01*
X113539711Y-58878210D01*
X113539707Y-58878213D01*
X113428213Y-58989707D01*
X113428210Y-58989711D01*
X113340609Y-59120814D01*
X113340602Y-59120827D01*
X113280264Y-59266498D01*
X113280261Y-59266510D01*
X113249500Y-59421153D01*
X95128967Y-59421153D01*
X85801527Y-50093713D01*
X98649500Y-50093713D01*
X98649500Y-50306287D01*
X98682754Y-50516243D01*
X98745001Y-50707820D01*
X98748444Y-50718414D01*
X98844951Y-50907820D01*
X98969890Y-51079786D01*
X99120213Y-51230109D01*
X99292179Y-51355048D01*
X99292181Y-51355049D01*
X99292184Y-51355051D01*
X99481588Y-51451557D01*
X99683757Y-51517246D01*
X99893713Y-51550500D01*
X99893714Y-51550500D01*
X100106286Y-51550500D01*
X100106287Y-51550500D01*
X100316243Y-51517246D01*
X100518412Y-51451557D01*
X100707816Y-51355051D01*
X100729789Y-51339086D01*
X100879786Y-51230109D01*
X100879788Y-51230106D01*
X100879792Y-51230104D01*
X101030104Y-51079792D01*
X101030106Y-51079788D01*
X101030109Y-51079786D01*
X101155048Y-50907820D01*
X101155047Y-50907820D01*
X101155051Y-50907816D01*
X101251557Y-50718412D01*
X101317246Y-50516243D01*
X101350500Y-50306287D01*
X101350500Y-50093713D01*
X101317246Y-49883757D01*
X101251557Y-49681588D01*
X101155051Y-49492184D01*
X101155049Y-49492181D01*
X101155048Y-49492179D01*
X101030109Y-49320213D01*
X100879786Y-49169890D01*
X100707820Y-49044951D01*
X100518414Y-48948444D01*
X100518413Y-48948443D01*
X100518412Y-48948443D01*
X100316243Y-48882754D01*
X100316241Y-48882753D01*
X100316240Y-48882753D01*
X100154957Y-48857208D01*
X100106287Y-48849500D01*
X99893713Y-48849500D01*
X99845042Y-48857208D01*
X99683760Y-48882753D01*
X99481585Y-48948444D01*
X99292179Y-49044951D01*
X99120213Y-49169890D01*
X98969890Y-49320213D01*
X98844951Y-49492179D01*
X98748444Y-49681585D01*
X98682753Y-49883760D01*
X98681177Y-49893713D01*
X98649500Y-50093713D01*
X85801527Y-50093713D01*
X85543249Y-49835435D01*
X85509765Y-49774113D01*
X85506971Y-49744614D01*
X85517726Y-49320208D01*
X85519030Y-49268747D01*
X85519348Y-49262483D01*
X85530183Y-49120213D01*
X85574654Y-48536230D01*
X85575290Y-48529984D01*
X85667306Y-47807496D01*
X85668257Y-47801286D01*
X85796758Y-47084324D01*
X85798009Y-47078239D01*
X85962658Y-46368713D01*
X85964219Y-46362681D01*
X86164601Y-45662376D01*
X86166469Y-45656425D01*
X86402055Y-44967195D01*
X86404216Y-44961358D01*
X86431237Y-44893713D01*
X93649500Y-44893713D01*
X93649500Y-45106286D01*
X93682753Y-45316239D01*
X93748444Y-45518414D01*
X93844951Y-45707820D01*
X93969890Y-45879786D01*
X94120213Y-46030109D01*
X94292179Y-46155048D01*
X94292181Y-46155049D01*
X94292184Y-46155051D01*
X94481588Y-46251557D01*
X94683757Y-46317246D01*
X94893713Y-46350500D01*
X94893714Y-46350500D01*
X95106286Y-46350500D01*
X95106287Y-46350500D01*
X95316243Y-46317246D01*
X95518412Y-46251557D01*
X95707816Y-46155051D01*
X95729789Y-46139086D01*
X95879786Y-46030109D01*
X95879788Y-46030106D01*
X95879792Y-46030104D01*
X96030104Y-45879792D01*
X96030106Y-45879788D01*
X96030109Y-45879786D01*
X96155048Y-45707820D01*
X96155047Y-45707820D01*
X96155051Y-45707816D01*
X96251557Y-45518412D01*
X96317246Y-45316243D01*
X96350500Y-45106287D01*
X96350500Y-44893713D01*
X96317246Y-44683757D01*
X96251557Y-44481588D01*
X96155051Y-44292184D01*
X96155049Y-44292181D01*
X96155048Y-44292179D01*
X96030109Y-44120213D01*
X95879786Y-43969890D01*
X95707820Y-43844951D01*
X95518414Y-43748444D01*
X95518413Y-43748443D01*
X95518412Y-43748443D01*
X95316243Y-43682754D01*
X95316241Y-43682753D01*
X95316240Y-43682753D01*
X95154957Y-43657208D01*
X95106287Y-43649500D01*
X94893713Y-43649500D01*
X94845042Y-43657208D01*
X94683760Y-43682753D01*
X94481585Y-43748444D01*
X94292179Y-43844951D01*
X94120213Y-43969890D01*
X93969890Y-44120213D01*
X93844951Y-44292179D01*
X93748444Y-44481585D01*
X93682753Y-44683760D01*
X93649500Y-44893713D01*
X86431237Y-44893713D01*
X86674420Y-44284917D01*
X86676874Y-44279198D01*
X86980969Y-43617364D01*
X86983729Y-43611736D01*
X87320957Y-42966147D01*
X87324006Y-42960654D01*
X87679045Y-42357530D01*
X87693501Y-42332972D01*
X87696801Y-42327678D01*
X88097625Y-41719497D01*
X88101176Y-41714396D01*
X88532312Y-41127266D01*
X88536114Y-41122355D01*
X88996403Y-40557858D01*
X89000490Y-40553097D01*
X89488789Y-40012623D01*
X89493079Y-40008111D01*
X90008111Y-39493079D01*
X90012623Y-39488789D01*
X90553102Y-39000484D01*
X90557864Y-38996398D01*
X90834996Y-38770426D01*
X91122355Y-38536114D01*
X91127266Y-38532312D01*
X91714396Y-38101176D01*
X91719497Y-38097625D01*
X92327678Y-37696801D01*
X92332972Y-37693501D01*
X92960662Y-37324001D01*
X92966138Y-37320961D01*
X93611748Y-36983722D01*
X93617364Y-36980969D01*
X94279198Y-36676874D01*
X94284917Y-36674420D01*
X94961358Y-36404216D01*
X94967195Y-36402055D01*
X95656425Y-36166469D01*
X95662376Y-36164601D01*
X96362681Y-35964219D01*
X96368713Y-35962658D01*
X97078239Y-35798009D01*
X97084324Y-35796758D01*
X97801296Y-35668255D01*
X97807486Y-35667307D01*
X98529988Y-35575289D01*
X98536230Y-35574654D01*
X99262494Y-35519347D01*
X99268747Y-35519030D01*
X99744614Y-35506971D01*
X99812130Y-35524951D01*
X99835436Y-35543250D01*
X124599500Y-60307314D01*
X124692686Y-60400500D01*
X124806814Y-60466392D01*
X124934108Y-60500500D01*
X137922810Y-60500500D01*
X137989849Y-60520185D01*
X138035604Y-60572989D01*
X138045548Y-60642147D01*
X138016523Y-60705703D01*
X137970262Y-60739061D01*
X137845827Y-60790602D01*
X137845814Y-60790609D01*
X137714711Y-60878210D01*
X137714707Y-60878213D01*
X137603213Y-60989707D01*
X137603210Y-60989711D01*
X137515609Y-61120814D01*
X137515602Y-61120827D01*
X137455264Y-61266498D01*
X137455261Y-61266510D01*
X137424500Y-61421153D01*
X137424500Y-61578846D01*
X137455261Y-61733489D01*
X137455264Y-61733501D01*
X137515602Y-61879172D01*
X137515609Y-61879185D01*
X137603210Y-62010288D01*
X137603213Y-62010292D01*
X137714707Y-62121786D01*
X137714711Y-62121789D01*
X137845814Y-62209390D01*
X137845827Y-62209397D01*
X137983683Y-62266498D01*
X137991503Y-62269737D01*
X138146153Y-62300499D01*
X138146156Y-62300500D01*
X138146158Y-62300500D01*
X138303844Y-62300500D01*
X138303845Y-62300499D01*
X138314179Y-62298443D01*
X138339287Y-62293450D01*
X138339292Y-62293449D01*
X138424800Y-62276439D01*
X138458497Y-62269737D01*
X138604179Y-62209394D01*
X138735289Y-62121789D01*
X138846789Y-62010289D01*
X138934394Y-61879179D01*
X138994737Y-61733497D01*
X139025500Y-61578842D01*
X139025500Y-61421158D01*
X139025500Y-61421155D01*
X139025499Y-61421153D01*
X139019360Y-61390289D01*
X138994737Y-61266503D01*
X138991703Y-61259179D01*
X138934397Y-61120827D01*
X138934390Y-61120814D01*
X138846789Y-60989711D01*
X138846786Y-60989707D01*
X138735292Y-60878213D01*
X138735288Y-60878210D01*
X138604185Y-60790609D01*
X138604172Y-60790602D01*
X138479738Y-60739061D01*
X138425334Y-60695221D01*
X138403269Y-60628926D01*
X138420548Y-60561227D01*
X138471685Y-60513616D01*
X138527190Y-60500500D01*
X140958210Y-60500500D01*
X141025249Y-60520185D01*
X141071004Y-60572989D01*
X141080948Y-60642147D01*
X141079827Y-60648691D01*
X141049500Y-60801153D01*
X141049500Y-60958846D01*
X141080261Y-61113489D01*
X141080264Y-61113501D01*
X141140602Y-61259172D01*
X141140609Y-61259185D01*
X141228210Y-61390288D01*
X141228213Y-61390292D01*
X141339707Y-61501786D01*
X141339711Y-61501789D01*
X141470814Y-61589390D01*
X141470827Y-61589397D01*
X141616498Y-61649735D01*
X141616503Y-61649737D01*
X141771153Y-61680499D01*
X141771156Y-61680500D01*
X141771158Y-61680500D01*
X141928844Y-61680500D01*
X141928845Y-61680499D01*
X142083497Y-61649737D01*
X142229179Y-61589394D01*
X142360289Y-61501789D01*
X142471789Y-61390289D01*
X142559394Y-61259179D01*
X142619737Y-61113497D01*
X142650500Y-60958842D01*
X142650500Y-60801158D01*
X142650500Y-60801155D01*
X142650499Y-60801153D01*
X142620173Y-60648691D01*
X142626400Y-60579100D01*
X142669263Y-60523922D01*
X142735153Y-60500678D01*
X142741790Y-60500500D01*
X158648059Y-60500500D01*
X158715098Y-60520185D01*
X158760853Y-60572989D01*
X158770797Y-60642147D01*
X158741772Y-60705703D01*
X158735740Y-60712181D01*
X158728213Y-60719707D01*
X158728210Y-60719711D01*
X158640609Y-60850814D01*
X158640602Y-60850827D01*
X158580264Y-60996498D01*
X158580261Y-60996510D01*
X158549500Y-61151153D01*
X158549500Y-61308846D01*
X158580261Y-61463489D01*
X158580264Y-61463501D01*
X158640602Y-61609172D01*
X158640609Y-61609185D01*
X158728210Y-61740288D01*
X158728213Y-61740292D01*
X158839707Y-61851786D01*
X158839711Y-61851789D01*
X158970814Y-61939390D01*
X158970827Y-61939397D01*
X159092288Y-61989707D01*
X159116503Y-61999737D01*
X159271153Y-62030499D01*
X159271156Y-62030500D01*
X159271158Y-62030500D01*
X159428844Y-62030500D01*
X159428845Y-62030499D01*
X159583497Y-61999737D01*
X159729179Y-61939394D01*
X159860289Y-61851789D01*
X159971789Y-61740289D01*
X160059394Y-61609179D01*
X160119737Y-61463497D01*
X160150500Y-61308842D01*
X160150500Y-61151158D01*
X160150500Y-61151155D01*
X160150499Y-61151153D01*
X160144658Y-61121789D01*
X160119737Y-60996503D01*
X160104138Y-60958844D01*
X160059397Y-60850827D01*
X160059390Y-60850814D01*
X159971789Y-60719711D01*
X159971786Y-60719707D01*
X159964260Y-60712181D01*
X159930775Y-60650858D01*
X159935759Y-60581166D01*
X159977631Y-60525233D01*
X160043095Y-60500816D01*
X160051941Y-60500500D01*
X175065890Y-60500500D01*
X175065892Y-60500500D01*
X175193186Y-60466392D01*
X175271542Y-60421153D01*
X184649500Y-60421153D01*
X184649500Y-60578846D01*
X184680261Y-60733489D01*
X184680264Y-60733501D01*
X184740602Y-60879172D01*
X184740609Y-60879185D01*
X184828210Y-61010288D01*
X184828213Y-61010292D01*
X184939707Y-61121786D01*
X184939711Y-61121789D01*
X185070814Y-61209390D01*
X185070827Y-61209397D01*
X185191028Y-61259185D01*
X185216503Y-61269737D01*
X185371153Y-61300499D01*
X185371156Y-61300500D01*
X185371158Y-61300500D01*
X185528844Y-61300500D01*
X185528845Y-61300499D01*
X185683497Y-61269737D01*
X185829179Y-61209394D01*
X185960289Y-61121789D01*
X186071789Y-61010289D01*
X186159394Y-60879179D01*
X186219737Y-60733497D01*
X186250500Y-60578842D01*
X186250500Y-60421158D01*
X186250500Y-60421155D01*
X186250499Y-60421153D01*
X186219738Y-60266510D01*
X186219737Y-60266503D01*
X186159794Y-60121786D01*
X186159397Y-60120827D01*
X186159390Y-60120814D01*
X186071789Y-59989711D01*
X186071786Y-59989707D01*
X185960292Y-59878213D01*
X185960288Y-59878210D01*
X185829185Y-59790609D01*
X185829172Y-59790602D01*
X185683501Y-59730264D01*
X185683489Y-59730261D01*
X185528845Y-59699500D01*
X185528842Y-59699500D01*
X185371158Y-59699500D01*
X185371155Y-59699500D01*
X185216510Y-59730261D01*
X185216498Y-59730264D01*
X185070827Y-59790602D01*
X185070814Y-59790609D01*
X184939711Y-59878210D01*
X184939707Y-59878213D01*
X184828213Y-59989707D01*
X184828210Y-59989711D01*
X184740609Y-60120814D01*
X184740602Y-60120827D01*
X184680264Y-60266498D01*
X184680261Y-60266510D01*
X184649500Y-60421153D01*
X175271542Y-60421153D01*
X175307314Y-60400500D01*
X185814100Y-49893713D01*
X198449500Y-49893713D01*
X198449500Y-50106286D01*
X198481339Y-50307314D01*
X198482754Y-50316243D01*
X198547738Y-50516243D01*
X198548444Y-50518414D01*
X198644951Y-50707820D01*
X198769890Y-50879786D01*
X198920213Y-51030109D01*
X199092179Y-51155048D01*
X199092181Y-51155049D01*
X199092184Y-51155051D01*
X199281588Y-51251557D01*
X199483757Y-51317246D01*
X199693713Y-51350500D01*
X199693714Y-51350500D01*
X199906286Y-51350500D01*
X199906287Y-51350500D01*
X200116243Y-51317246D01*
X200318412Y-51251557D01*
X200507816Y-51155051D01*
X200611402Y-51079792D01*
X200679786Y-51030109D01*
X200679788Y-51030106D01*
X200679792Y-51030104D01*
X200830104Y-50879792D01*
X200830106Y-50879788D01*
X200830109Y-50879786D01*
X200955048Y-50707820D01*
X200955047Y-50707820D01*
X200955051Y-50707816D01*
X201051557Y-50518412D01*
X201117246Y-50316243D01*
X201150500Y-50106287D01*
X201150500Y-49893713D01*
X201117246Y-49683757D01*
X201051557Y-49481588D01*
X200955051Y-49292184D01*
X200955049Y-49292181D01*
X200955048Y-49292179D01*
X200830109Y-49120213D01*
X200679786Y-48969890D01*
X200507820Y-48844951D01*
X200318414Y-48748444D01*
X200318413Y-48748443D01*
X200318412Y-48748443D01*
X200116243Y-48682754D01*
X200116241Y-48682753D01*
X200116240Y-48682753D01*
X199954957Y-48657208D01*
X199906287Y-48649500D01*
X199693713Y-48649500D01*
X199645042Y-48657208D01*
X199483760Y-48682753D01*
X199281585Y-48748444D01*
X199092179Y-48844951D01*
X198920213Y-48969890D01*
X198769890Y-49120213D01*
X198644951Y-49292179D01*
X198548444Y-49481585D01*
X198482753Y-49683760D01*
X198449500Y-49893713D01*
X185814100Y-49893713D01*
X190814100Y-44893713D01*
X203649500Y-44893713D01*
X203649500Y-45106286D01*
X203682753Y-45316239D01*
X203748444Y-45518414D01*
X203844951Y-45707820D01*
X203969890Y-45879786D01*
X204120213Y-46030109D01*
X204292179Y-46155048D01*
X204292181Y-46155049D01*
X204292184Y-46155051D01*
X204481588Y-46251557D01*
X204683757Y-46317246D01*
X204893713Y-46350500D01*
X204893714Y-46350500D01*
X205106286Y-46350500D01*
X205106287Y-46350500D01*
X205316243Y-46317246D01*
X205518412Y-46251557D01*
X205707816Y-46155051D01*
X205729789Y-46139086D01*
X205879786Y-46030109D01*
X205879788Y-46030106D01*
X205879792Y-46030104D01*
X206030104Y-45879792D01*
X206030106Y-45879788D01*
X206030109Y-45879786D01*
X206155048Y-45707820D01*
X206155047Y-45707820D01*
X206155051Y-45707816D01*
X206251557Y-45518412D01*
X206317246Y-45316243D01*
X206350500Y-45106287D01*
X206350500Y-44893713D01*
X206317246Y-44683757D01*
X206251557Y-44481588D01*
X206155051Y-44292184D01*
X206155049Y-44292181D01*
X206155048Y-44292179D01*
X206030109Y-44120213D01*
X205879786Y-43969890D01*
X205707820Y-43844951D01*
X205518414Y-43748444D01*
X205518413Y-43748443D01*
X205518412Y-43748443D01*
X205316243Y-43682754D01*
X205316241Y-43682753D01*
X205316240Y-43682753D01*
X205154957Y-43657208D01*
X205106287Y-43649500D01*
X204893713Y-43649500D01*
X204845042Y-43657208D01*
X204683760Y-43682753D01*
X204481585Y-43748444D01*
X204292179Y-43844951D01*
X204120213Y-43969890D01*
X203969890Y-44120213D01*
X203844951Y-44292179D01*
X203748444Y-44481585D01*
X203682753Y-44683760D01*
X203649500Y-44893713D01*
X190814100Y-44893713D01*
X200164564Y-35543248D01*
X200225885Y-35509765D01*
X200255383Y-35506971D01*
X200731250Y-35519030D01*
G37*
%TD.AperFunction*%
%TD*%
M02*
